<svg width="48" height="48" viewBox="0 0 48 48" fill="none" xmlns="http://www.w3.org/2000/svg">
<path fill-rule="evenodd" clip-rule="evenodd" d="M27.3424 14.2684C27.3859 14.3254 27.462 14.3743 27.5598 14.4232C22.3603 18.5145 17.9621 22.7063 14.5393 26.2869C14.4023 17.0991 19.3011 15.4527 21.4998 14.7138C22.0043 14.5443 22.3666 14.4225 22.4934 14.2684C22.7623 13.937 22.9307 13.4724 23.0394 13.0323C20.983 12.2255 19.516 10.1418 19.516 7.69411C19.516 4.54823 21.9337 2 24.9138 2C27.902 2 30.3197 4.54823 30.3197 7.69411C30.3197 10.1418 28.8528 12.2255 26.7964 13.0323C26.8996 13.4724 27.0708 13.937 27.3424 14.2684ZM20.1436 44.9231C18.7445 44.502 16.0959 40.5656 14.9957 32.2282C19.7768 31.8614 27.3859 31.6006 34.7695 32.7036C33.6367 40.7096 31.0587 44.5047 29.6923 44.9231C28.0786 45.4039 26.302 45.0562 25.8619 44.3553C25.3628 43.558 26.5076 41.5564 27.6375 39.5807C28.8139 37.5237 29.9742 35.4948 29.2468 34.8823C28.6437 34.3743 25.9787 34.3091 24.9138 34.3037C23.8516 34.3091 21.1867 34.3743 20.5836 34.8823C19.8575 35.4948 21.0186 37.5237 22.1956 39.5807C23.3262 41.5564 24.4716 43.5581 23.9739 44.3553C23.5338 45.0562 21.7518 45.4039 20.1436 44.9231ZM18.3425 28.0011C23.0693 27.7838 29.1463 27.8245 35.1825 28.7156C35.2205 28.1451 35.2531 27.561 35.2776 26.9552C35.5302 20.7829 33.596 17.8354 31.5722 16.3032C26.3645 20.2423 21.8849 24.3852 18.3425 28.0011ZM40.0125 8.25103C40.5449 9.20729 40.2352 10.4325 39.3279 10.9894C36.5978 12.6656 34.0116 14.464 31.5721 16.3032C30.3892 15.4072 29.1713 14.9965 28.3376 14.7154C28.011 14.6053 27.7433 14.515 27.5598 14.4233C30.5915 12.0408 33.8866 9.69628 37.4182 7.52839C38.3282 6.97148 39.4855 7.29749 40.0125 8.25103ZM39.5534 29.5279C38.1137 29.1965 36.6494 28.933 35.1825 28.7156C35.0874 30.15 34.9434 31.4757 34.7695 32.7037C36.1142 32.9047 37.4427 33.1438 38.7521 33.4453C38.8879 33.4752 39.0264 33.4888 39.1568 33.4888C40.0316 33.4888 40.8193 32.8422 41.0095 31.905C41.2349 30.8237 40.5776 29.7588 39.5534 29.5279ZM14.5528 26.9552C14.5718 27.3899 14.5963 27.811 14.6207 28.2293C14.6914 29.4328 14.7946 30.5602 14.9223 31.6251C14.9304 31.692 14.9386 31.7591 14.9467 31.8262C14.963 31.961 14.9793 32.0958 14.9957 32.2282C14.9127 32.2352 14.8301 32.2414 14.7484 32.2475C14.6053 32.2582 14.4649 32.2687 14.33 32.2826H14.3273C11.2006 35.7789 9.4457 38.137 9.39952 38.1994C9.02735 38.7075 8.46502 38.9737 7.89726 38.9737C7.49249 38.9737 7.08229 38.8351 6.73457 38.5526C5.90602 37.8734 5.75661 36.6156 6.39772 35.7409C6.40251 35.7345 6.40832 35.7267 6.41513 35.7176C6.59388 35.4789 7.46766 34.3118 8.95397 32.5271C9.90748 31.3806 11.111 29.9897 12.548 28.4168C13.1728 27.7349 13.8356 27.0231 14.5392 26.2869C14.5398 26.3309 14.5402 26.3747 14.5406 26.4186C14.5424 26.5943 14.5441 26.7704 14.5528 26.9552Z" fill="#E52A2D"/>
</svg>
