<svg width="60" height="60" viewBox="0 0 60 60" fill="none" xmlns="http://www.w3.org/2000/svg">
<path d="M35.16 26.6634C35.3989 26.1668 35.5482 25.7721 35.7659 25.4198C37.782 22.1836 39.8066 18.9474 41.8398 15.7218C42.6761 14.3955 43.1796 14.2957 44.5492 15.1276C47.5937 16.9759 47.5915 16.9759 45.6949 19.9978C43.9604 22.7608 42.2302 25.5323 40.4893 28.291C39.6551 29.6152 39.1452 29.7171 37.7798 28.8873C37.1611 28.516 36.5168 28.1722 35.9536 27.7287C35.6208 27.4655 35.4245 27.0284 35.16 26.6634ZM24.8362 43.0142C24.5887 43.5023 24.4586 43.8163 24.2815 44.0965C22.2356 47.3709 20.1896 50.641 18.1287 53.9006C17.318 55.1845 16.823 55.28 15.5195 54.5054C12.3961 52.6379 12.394 52.6379 14.3248 49.5545C16.0528 46.7852 17.7809 44.0158 19.524 41.2571C20.3283 39.9796 20.8488 39.8713 22.1396 40.648C22.7604 41.0194 23.4132 41.3568 23.9615 41.8152C24.3455 42.1335 24.5695 42.6343 24.8362 43.0142ZM35.1408 52.2263C35.4053 51.6957 35.561 51.301 35.7808 50.9487C37.7986 47.7114 39.8239 44.4787 41.8568 41.2507C42.6526 39.9881 43.1902 39.882 44.4788 40.6523C47.5958 42.5197 47.5958 42.5197 45.6672 45.5989C43.9561 48.3279 42.2473 51.0591 40.5298 53.786C39.6274 55.2184 39.19 55.3139 37.75 54.4354C37.1654 54.081 36.5552 53.7648 36.0304 53.3404C35.6677 53.0496 35.4309 52.6019 35.1386 52.2263H35.1408ZM16.6779 29.7128C15.3808 28.8131 14.1946 28.0852 13.1578 27.1939C12.9274 26.9944 13.0426 26.101 13.2858 25.6999C15.3808 22.2621 17.542 18.8646 19.6797 15.4523C20.2259 14.5801 20.9427 14.3424 21.8345 14.9026C25.2053 17.0099 25.5211 16.6661 23.2639 20.1803C21.523 22.8903 19.8525 25.6447 18.1052 28.3504C17.7937 28.8322 17.2582 29.1696 16.6779 29.7128ZM18.1308 12.789C18.2183 9.65892 19.3511 8.06522 21.8686 7.28216C27.0401 5.67148 32.2713 5.5866 37.4982 6.98082C40.5917 7.80208 42.0126 9.56131 42.0872 12.3179C42.1086 13.0628 41.9848 13.7355 41.1059 13.8267C40.1586 13.9265 39.7938 13.2771 39.7981 12.475C39.8066 10.5438 38.6289 9.69075 36.9649 9.23026C32.4676 7.97035 27.7072 7.97549 23.2127 9.24511C21.523 9.71197 20.4051 10.5884 20.4136 12.5047C20.4179 13.3196 19.9954 14.0326 19.0973 13.7843C18.613 13.6506 18.2866 12.9588 18.1308 12.789ZM40.3613 34.8038C40.3613 33.8318 40.3656 32.8599 40.3613 31.888C40.357 31.1049 40.5106 30.3898 41.4643 30.3388C42.4051 30.29 42.7081 30.9415 42.7187 31.75C42.7443 33.7788 42.7486 35.8096 42.7507 37.8405C42.7507 38.6511 42.4563 39.2941 41.5198 39.2644C40.6493 39.2347 40.421 38.6151 40.4317 37.849C40.4424 36.8346 40.4338 35.8202 40.4338 34.8038H40.3613ZM20.0637 34.8165C20.0637 35.8733 20.1747 36.9492 20.0146 37.9806C19.9378 38.4559 19.3277 38.8506 18.9586 39.2793C18.5532 38.8803 17.8215 38.5005 17.7959 38.0803C17.6707 35.8853 17.6565 33.6854 17.7532 31.489C17.7703 31.088 18.4402 30.7123 18.8093 30.3282C19.2103 30.7229 19.8866 31.0773 19.957 31.5251C20.1277 32.5989 20.0125 33.7151 20.0125 34.8165H20.0637Z" fill="#FAB639"/>
</svg>
