<?xml version="1.0" standalone="no"?><!DOCTYPE svg PUBLIC "-//W3C//DTD SVG 1.1//EN" "http://www.w3.org/Graphics/SVG/1.1/DTD/svg11.dtd"><svg t="1706520541501" class="icon" viewBox="0 0 1024 1024" version="1.1" xmlns="http://www.w3.org/2000/svg" p-id="91892" xmlns:xlink="http://www.w3.org/1999/xlink" width="64" height="64"><path d="M575.707429 709.741714c14.262857-1.097143 38.4-2.194286 62.281142-5.010285 96.987429-11.410286 177.005714-52.114286 232.228572-135.497143 33.389714-50.432 35.474286-102.363429 2.048-151.990857-19.273143-28.598857-42.605714-56.649143-69.814857-77.421715-84.553143-64.512-184.429714-71.387429-285.878857-65.828571-6.948571 0.365714-16.713143 12.873143-19.346286 21.504-34.816 115.748571-40.338286 232.777143-10.532572 350.390857 17.005714 66.998857 0.768 61.513143 89.014858 63.853714m-159.012572-228.937143c-2.779429-72.557714 14.518857-148.48 38.070857-223.561142 6.765714-21.540571 19.968-32.768 42.349715-34.852572 74.24-6.875429 147.565714-2.194286 219.501714 17.810286 89.307429 24.868571 158.610286 76.361143 203.885714 157.988571 34.742857 62.646857 33.865143 125.988571-0.987428 188.233143-51.346286 91.794286-132.717714 141.275429-233.325715 162.413714-59.794286 12.544-120.100571 15.104-181.028571 9.947429-28.745143-2.450286-45.312-14.884571-53.650286-42.422857-22.637714-74.605714-35.949714-150.601143-34.816-235.52zM77.165714 829.074286c-1.938286-3.730286-2.486857-4.352-2.523428-5.010286-3.657143-43.410286-3.657143-43.593143 38.4-55.844571 81.92-23.771429 163.84-47.396571 245.76-70.948572 7.570286-2.267429 15.396571-3.803429 25.234285-6.144l16.932572 43.337143L77.165714 829.074286z m20.589715-452.205715c-1.353143-4.571429-2.377143-6.582857-2.523429-8.704-2.816-39.314286-2.816-39.314286 35.108571-50.468571l243.894858-71.862857c6.875429-2.011429 13.860571-3.620571 21.101714-5.449143 0.768 41.106286-7.021714 52.406857-43.52 62.976-84.114286 24.429714-168.265143 48.713143-254.061714 73.508571z m-21.284572 335.725715c-1.097143-4.022857-2.157714-6.070857-2.230857-8.118857-1.462857-40.740571-1.462857-40.813714 38.034286-52.370286 80.493714-23.405714 160.950857-46.884571 243.821714-70.948572l12.141714 46.994286c-98.377143 28.525714-194.925714 56.429714-291.766857 84.48z m4.242286-117.613715c-4.681143-50.834286-4.754286-51.017143 38.473143-63.524571 70.034286-20.297143 140.178286-40.338286 210.285714-60.416 6.802286-1.938286 13.897143-3.291429 25.124571-5.961143 0 14.848 0.877714 27.648-0.438857 40.228572a16.969143 16.969143 0 0 1-9.837714 11.666285c-87.222857 26.185143-174.555429 51.785143-263.606857 78.006857z m7.314286-112.201142v-49.078858l277.211428-81.188571c-1.974857 17.042286-2.852571 30.72-5.376 44.105143-0.731429 3.84-5.595429 8.740571-9.472 9.874286-86.674286 25.526857-173.531429 50.578286-262.363428 76.288z" fill="#00ff00" p-id="91893"></path></svg>