<?xml version="1.0" standalone="no"?><!DOCTYPE svg PUBLIC "-//W3C//DTD SVG 1.1//EN" "http://www.w3.org/Graphics/SVG/1.1/DTD/svg11.dtd"><svg t="1706521397578" class="icon" viewBox="0 0 1024 1024" version="1.1" xmlns="http://www.w3.org/2000/svg" p-id="114235" xmlns:xlink="http://www.w3.org/1999/xlink" width="64" height="64"><path d="M896 298.666667h-42.666667v426.666666H128v42.666667h768z" fill="#FF0000" p-id="114236"></path><path d="M938.666667 810.666667H213.333333v42.666666h768V384h-42.666666zM661.333333 362.666667v-64h-42.666666v64h-64v42.666666h64v64h42.666666v-64h64v-42.666666z" fill="#FF0000" p-id="114237"></path><path d="M746.666667 213.333333V170.666667h-128v42.666666h-42.112l0.106666 42.666667H768v384H85.333333V256h276.672l0.106667-42.666667H234.666667V170.666667H106.666667v42.666666H42.666667v469.333334h768V213.333333z" fill="#FF0000" p-id="114238"></path><path d="M533.333333 128V85.333333h-85.333333V64a21.333333 21.333333 0 0 0-42.666667 0v281.258667A63.786667 63.786667 0 0 0 362.666667 405.333333a64 64 0 1 0 128 0 63.786667 63.786667 0 0 0-42.666667-60.074666V298.666667h85.333333v-42.666667h-85.333333v-42.666667h85.333333V170.666667h-85.333333V128h85.333333zM128 362.666667h170.666667v42.666666H128z" fill="#FF0000" p-id="114239"></path></svg>