<?xml version="1.0" standalone="no"?><!DOCTYPE svg PUBLIC "-//W3C//DTD SVG 1.1//EN" "http://www.w3.org/Graphics/SVG/1.1/DTD/svg11.dtd"><svg t="1706668262759" class="icon" viewBox="0 0 1024 1024" version="1.1" xmlns="http://www.w3.org/2000/svg" p-id="3729" xmlns:xlink="http://www.w3.org/1999/xlink" width="64" height="64"><path d="M516.644571 59.867429c34.340571 0 68.754286 0.877714 103.094858-0.365715 17.627429-0.658286 24.283429 3.657143 23.625142 22.674286-1.499429 40.923429 0.256 81.92-0.841142 122.843429-0.402286 16.896 4.315429 27.062857 19.236571 37.046857 96.768 64.329143 138.203429 184.283429 103.424 295.058285-33.901714 108.141714-136.082286 182.637714-250.038857 182.418286-113.554286-0.219429-215.515429-75.629714-248.832-184.064a259.766857 259.766857 0 0 1 101.741714-291.986286c15.104-10.313143 21.028571-20.516571 20.333714-38.838857-1.572571-41.618286 0.073143-83.382857-0.804571-125.001143-0.365714-14.994286 3.620571-20.553143 19.382857-20.114285 36.534857 1.060571 73.106286 0.329143 109.677714 0.329143zM727.405714 457.508571a211.492571 211.492571 0 0 0-212.553143-211.273142c-116.004571 0.512-210.139429 94.976-210.505142 211.309714-0.365714 116.882286 94.793143 212.516571 211.638857 212.516571 117.028571 0 211.748571-95.268571 211.419428-212.553143z m-211.163428-348.342857c-21.942857 0-43.885714 0.365714-65.755429-0.146285-10.276571-0.256-14.262857 3.181714-13.970286 13.787428 0.621714 24.100571 0.438857 48.237714 0.073143 72.338286-0.146286 9.289143 1.974857 13.531429 12.434286 10.752a254.427429 254.427429 0 0 1 132.096-0.438857c9.947429 2.56 13.165714-0.438857 13.019429-10.349715-0.365714-23.405714-0.768-46.811429 0.146285-70.144 0.475429-12.982857-4.754286-16.384-16.64-15.981714-20.48 0.658286-40.96 0.182857-61.44 0.182857zM311.222857 216.612571c-11.702857 10.166857-22.674286 21.065143-35.035428 29.915429-9.874286 7.021714-13.458286-5.010286-18.285715-9.654857-26.770286-25.892571-52.589714-52.845714-79.433143-78.628572-9.142857-8.777143-11.190857-14.043429-0.877714-24.210285 26.258286-25.965714 25.709714-26.514286 51.821714-0.402286L297.618286 201.874286c3.584 3.584 6.875429 7.424 13.641143 14.738285z m231.131429 637.366858c0 18.944-0.658286 37.924571 0.292571 56.832 0.585143 12.726857-4.388571 15.762286-16.347428 15.981714-37.156571 0.658286-37.156571 1.133714-37.156572-36.534857 0-32.073143 0.694857-64.146286-0.292571-96.182857-0.438857-13.897143 4.388571-17.371429 17.554285-17.005715 44.544 1.243429 34.889143-4.644571 35.949715 35.364572 0.365714 13.824 0.073143 27.684571 0 41.545143z m216.356571-601.856c-10.788571-11.885714-22.125714-22.198857-30.793143-34.450286-6.619429-9.472 5.339429-13.531429 10.166857-18.468572 25.819429-26.660571 52.662857-52.224 78.262858-79.104 9.289143-9.728 14.518857-9.874286 24.027428-0.182857 25.6 26.148571 26.148571 25.6-0.109714 51.858286-22.674286 22.674286-45.275429 45.348571-67.949714 67.913143-3.547429 3.584-7.387429 6.802286-13.604572 12.434286zM120.502857 484.205714c-19.017143 0-37.924571-0.548571-56.868571 0.182857-12.251429 0.512-17.664-3.657143-16.274286-16.201142a71.68 71.68 0 0 0 0-17.481143c-2.011429-15.286857 4.132571-20.187429 19.492571-19.785143a2182.582857 2182.582857 0 0 0 111.542858 0c14.482286-0.292571 20.260571 4.388571 18.395428 18.724571a57.819429 57.819429 0 0 0 0 15.286857c2.157714 15.36-4.022857 20.589714-19.419428 19.565715-18.870857-1.206857-37.888-0.292571-56.868572-0.292572z m790.052572-52.370285c16.822857 0 33.755429 1.755429 50.212571-0.438858 23.552-3.108571 23.588571 9.874286 23.771429 26.989715 0.219429 17.481143-0.658286 28.525714-23.734858 27.136-35.584-2.194286-71.387429-1.097143-107.081142-0.365715-13.494857 0.292571-20.845714-2.852571-18.944-17.956571 0.804571-6.436571 0.658286-13.165714 0.036571-19.638857-1.243429-12.909714 4.900571-16.310857 16.749714-15.908572 19.638857 0.694857 39.350857 0.182857 58.989715 0.182858zM201.801143 805.961143c-10.422857-10.459429-23.222857-20.004571-31.232-32.585143-5.412571-8.557714 7.497143-13.970286 13.019428-19.675429 24.868571-25.636571 50.834286-50.212571 75.337143-76.141714 9.801143-10.422857 15.725714-10.422857 25.709715-0.109714 24.649143 25.344 25.234286 24.832-0.365715 50.395428-23.186286 23.186286-46.336 46.409143-69.595428 69.485715-3.510857 3.510857-6.326857 8.228571-12.909715 8.630857z m553.142857-138.752c9.984 0.731429 12.836571 5.376 16.310857 8.850286 27.355429 27.245714 54.162286 55.076571 82.176 81.627428 10.678857 10.093714 9.801143 15.945143-0.219428 25.746286-25.161143 24.539429-24.685714 25.014857-50.102858-0.365714-22.125714-22.125714-43.629714-44.982857-66.706285-66.157715-12.251429-11.190857-12.690286-18.651429 0.146285-29.037714 7.789714-6.290286 13.568-15.104 18.395429-20.662857z m-204.8-258.669714c0 29.988571 0.438857 59.977143-0.073143 89.892571-0.438857 23.808-13.421714 37.339429-34.084571 36.937143-20.114286-0.365714-34.230857-14.884571-34.377143-37.522286a12576.877714 12576.877714 0 0 1-0.036572-181.979428c0.146286-22.674286 14.116571-37.595429 33.828572-38.144 20.297143-0.585143 35.108571 14.994286 35.547428 38.765714 0.475429 30.646857 0.073143 61.366857 0.073143 92.050286h-0.841143z m-35.254857 219.172571a35.108571 35.108571 0 0 1-34.267429-35.364571c0-19.456 15.213714-34.852571 34.450286-34.998858 19.2-0.036571 36.425143 17.554286 35.803429 36.608a35.401143 35.401143 0 0 1-35.986286 33.755429z" fill="#FFBF00" p-id="3730"></path></svg>