<?xml version="1.0" standalone="no"?><!DOCTYPE svg PUBLIC "-//W3C//DTD SVG 1.1//EN" "http://www.w3.org/Graphics/SVG/1.1/DTD/svg11.dtd"><svg t="1688026047229" class="icon" viewBox="0 0 1024 1024" version="1.1" xmlns="http://www.w3.org/2000/svg" p-id="1496" data-spm-anchor-id="a313x.7781069.0.i5" width="32" height="32" xmlns:xlink="http://www.w3.org/1999/xlink"><path d="M972.8 375.466667v443.733333h-85.333333v-45.841067l-303.709867-38.6816c2.363733-11.008 3.925333-22.2976 4.625067-33.826133L887.466667 738.944V375.466667h85.333333z m-34.133333 34.133333h-17.066667v375.466667h17.066667V409.6zM708.266667 140.8c82.474667 0 149.333333 66.858667 149.333333 149.333333v119.978667h28.0576v34.133333H857.6V546.133333c0 82.474667-66.858667 149.333333-149.333333 149.333334H588.637867a230.263467 230.263467 0 0 0-2.389334-42.666667H708.266667c58.914133 0 106.666667-47.752533 106.666666-106.666667V290.133333c0-58.914133-47.752533-106.666667-106.666666-106.666666H196.266667c-58.914133 0-106.666667 47.752533-106.666667 106.666666v256c0 32.631467 14.651733 61.841067 37.742933 81.408a226.056533 226.056533 0 0 0-7.534933 46.8992C76.16 648.362667 46.933333 600.661333 46.933333 546.133333V290.133333c0-82.474667 66.858667-149.333333 149.333334-149.333333h512z m-17.066667 68.266667c54.1952 0 98.133333 43.938133 98.133333 98.133333v221.866667c0 54.1952-43.938133 98.133333-98.133333 98.133333H580.8384a226.218667 226.218667 0 0 0-16.4352-42.666667H691.2a55.466667 55.466667 0 0 0 55.466667-55.466666V307.2a55.466667 55.466667 0 0 0-55.466667-55.466667H213.333333a55.466667 55.466667 0 0 0-55.466666 55.466667v221.866667c0 8.533333 1.928533 16.622933 5.376 23.850666a228.437333 228.437333 0 0 0-23.7568 40.763734A97.7152 97.7152 0 0 1 115.2 529.066667V307.2c0-54.1952 43.938133-98.133333 98.133333-98.133333h477.866667z m-65.4336 154.333866a17.066667 17.066667 0 0 1 0.9984 23.048534l-0.9984 1.083733-93.269333 93.269333a17.066667 17.066667 0 0 1-25.130667-23.04l0.9984-1.092266 93.269333-93.269334a17.066667 17.066667 0 0 1 24.132267 0z m-110.933333 0a17.066667 17.066667 0 0 1 0.9984 23.048534l-0.9984 1.083733-82.2016 82.210133a236.458667 236.458667 0 0 0-37.794134-9.7536c0.4608-0.768 0.9984-1.518933 1.595734-2.235733l0.9984-1.083733 93.269333-93.269334a17.066667 17.066667 0 0 1 24.132267 0z m-110.933334 0a17.066667 17.066667 0 0 1 0.9984 23.048534l-0.9984 1.083733-69.828266 69.828267c-18.176 1.5104-35.771733 5.060267-52.539734 10.410666 0.196267-3.584 1.518933-7.108267 3.968-10.018133l0.9984-1.083733 93.269334-93.269334a17.066667 17.066667 0 0 1 24.132266 0z" fill="#FFBF00" p-id="1497" data-spm-anchor-id="a313x.7781069.0.i10" class="selected"></path><path d="M354.133333 499.2c106.0352 0 192 84.053333 192 187.733333s-85.9648 187.733333-192 187.733334S162.133333 790.613333 162.133333 686.933333s85.9648-187.733333 192-187.733333z m0 51.2c-78.020267 0-140.8 61.3888-140.8 136.533333 0 75.144533 62.779733 136.533333 140.8 136.533334S494.933333 762.077867 494.933333 686.933333c0-75.144533-62.779733-136.533333-140.8-136.533333z" fill="#FFBF00" p-id="1498" data-spm-anchor-id="a313x.7781069.0.i9" class="selected"></path><path d="M349.866667 618.666667a68.266667 68.266667 0 1 1 0 136.533333 68.266667 68.266667 0 0 1 0-136.533333z m0 51.2a17.066667 17.066667 0 1 0 0 34.133333 17.066667 17.066667 0 0 0 0-34.133333z" fill="#FFBF00" p-id="1499"></path><path d="M264.533333 631.466667m-25.6 0a25.6 25.6 0 1 0 51.2 0 25.6 25.6 0 1 0-51.2 0Z" fill="#FFBF00" p-id="1500"></path></svg>