<?xml version="1.0" standalone="no"?><!DOCTYPE svg PUBLIC "-//W3C//DTD SVG 1.1//EN" "http://www.w3.org/Graphics/SVG/1.1/DTD/svg11.dtd"><svg t="1706597499916" class="icon" viewBox="0 0 1024 1024" version="1.1" xmlns="http://www.w3.org/2000/svg" p-id="19766" xmlns:xlink="http://www.w3.org/1999/xlink" width="64" height="64"><path d="M486.4 190.836364c-9.309091 0-16.290909 6.981818-16.290909 16.290909v207.127272C442.181818 418.909091 418.909091 442.181818 411.927273 470.109091H209.454545c-9.309091 0-16.290909 6.981818-16.290909 16.290909 0 9.309091 6.981818 16.290909 16.290909 16.290909h202.472728c6.981818 34.909091 34.909091 60.509091 72.145454 60.509091 39.563636 0 74.472727-32.581818 74.472728-74.472727 0-34.909091-23.272727-62.836364-55.854546-72.145455v-209.454545c0-9.309091-6.981818-16.290909-16.290909-16.290909z" fill="#00ff00" p-id="19767"></path><path d="M798.254545 805.236364h-111.70909c-79.127273 0-144.290909 23.272727-148.945455 79.127272-16.290909 2.327273-34.909091 4.654545-53.527273 4.654546-221.090909 0-402.618182-181.527273-402.618182-402.618182S260.654545 83.781818 484.072727 83.781818c221.090909 0 402.618182 179.2 402.618182 402.618182 0 60.509091-13.963636 118.690909-39.563636 172.218182-4.654545 11.636364 0 23.272727 9.309091 27.927273 11.636364 4.654545 23.272727 0 27.927272-9.309091 27.927273-60.509091 41.890909-123.345455 41.890909-190.836364 0-244.363636-200.145455-444.509091-444.50909-444.509091-244.363636 0-444.509091 200.145455-444.509091 444.509091C39.563636 730.763636 239.709091 930.909091 484.072727 930.909091c18.618182 0 37.236364-2.327273 55.854546-4.654546 13.963636 39.563636 65.163636 65.163636 144.290909 65.163637h111.709091V954.181818H907.636364v-20.945454h-109.381819v-67.490909H907.636364v-20.945455h-109.381819v-39.563636z" fill="#00ff00" p-id="19768"></path></svg>