<?xml version="1.0" standalone="no"?><!DOCTYPE svg PUBLIC "-//W3C//DTD SVG 1.1//EN" "http://www.w3.org/Graphics/SVG/1.1/DTD/svg11.dtd"><svg t="1706518920960" class="icon" viewBox="0 0 1024 1024" version="1.1" xmlns="http://www.w3.org/2000/svg" p-id="50245" xmlns:xlink="http://www.w3.org/1999/xlink" width="64" height="64"><path d="M507.501714 886.491429c-202.605714-0.365714-363.958857-163.328-363.410285-366.957715 0.621714-200.411429 164.790857-362.422857 366.701714-361.910857 200.667429 0.548571 362.532571 164.242286 362.166857 366.262857-0.365714 201.289143-163.291429 362.934857-365.458286 362.569143z m1.462857-52.48a311.588571 311.588571 0 0 0 311.478858-313.197715c-0.438857-171.300571-140.507429-310.674286-312.210286-310.601143C336.091429 210.285714 195.803429 351.451429 196.608 523.702857c0.804571 171.702857 140.726857 310.674286 312.32 310.308572z m-284.379428-8.923429c-12.251429 13.202286-23.515429 25.526857-35.291429 37.302857-0.512 0.585143-6.107429-2.962286-8.594285-5.339428a464.347429 464.347429 0 0 1-106.422858-156.708572c-3.437714-8.082286-4.096-13.860571 6.290286-15.835428a12.909714 12.909714 0 0 0 2.121143-0.585143c37.339429-13.568 37.412571-13.604571 55.442286 22.491428a419.84 419.84 0 0 0 74.788571 104.996572c3.876571 4.022857 7.314286 8.521143 11.702857 13.677714z m720.822857-131.730286c-1.389714 3.584-2.56 7.021714-3.986286 10.349715a473.234286 473.234286 0 0 1-100.717714 149.577142c-8.886857 8.96-13.897143 11.337143-23.552 0-24.32-28.525714-24.978286-27.977143-0.548571-55.222857 28.928-32.256 53.138286-67.730286 69.632-107.812571 6.217143-15.104 13.641143-18.468571 27.904-11.849143 7.168 3.328 15.36 4.388571 22.893714 7.131429 3.584 1.316571 9.179429 1.609143 8.338286 7.826285z m32-171.410285c0.914286 30.72-2.889143 61.037714-8.192 91.282285-1.828571 10.898286-4.973714 14.372571-17.152 10.934857-38.217143-10.752-37.888-10.020571-32.804571-49.664 5.339429-41.398857 5.193143-83.017143-3.035429-124.086857-2.925714-14.811429 1.243429-20.150857 15.177143-24.173714 37.229714-10.752 37.083429-11.410286 42.057143 28.123429 1.536 12.288 3.072 24.612571 3.803428 36.937142 0.658286 10.203429 0.146286 20.443429 0.146286 30.646858z m-938.349714 2.011428c-0.219429-32.694857 3.657143-61.586286 7.899428-90.587428 2.194286-14.665143 7.899429-15.725714 20.333715-12.068572 35.766857 10.605714 35.291429 10.166857 30.500571 47.762286-5.266286 41.545143-5.193143 83.309714 3.291429 124.342857 3.291429 15.616-1.828571 20.553143-15.469715 23.881143-40.594286 10.020571-33.133714 19.273143-41.289143-26.770286a316.854857 316.854857 0 0 1-5.266285-66.56z m179.053714-302.482286c0.658286 7.094857-3.803429 9.289143-6.656 12.251429C175.725714 270.994286 147.163429 313.014857 127.268571 360.704c-4.169143 10.020571-9.069714 10.825143-18.322285 7.643429-47.689143-16.347429-44.873143-3.364571-23.552-50.688 20.845714-46.262857 50.395429-86.893714 85.138285-123.904 8.630857-9.179429 13.860571-10.057143 21.869715 0 8.118857 10.166857 17.664 19.2 25.673143 27.721142z m683.885714 147.894858c-8.886857 2.194286-10.020571-4.571429-12.251428-9.691429a406.235429 406.235429 0 0 0-85.211429-126.610286c-6.948571-6.875429-6.436571-11.227429 0.146286-17.737143 38.034286-37.595429 23.917714-41.325714 60.123428-0.768 32.402286 36.205714 56.173714 78.08 76.397715 122.221715 7.424 16.237714 3.547429 21.906286-12.434286 24.758857-9.252571 1.718857-18.176 5.266286-26.770286 7.826286z" fill="#FFBF00" p-id="50246"></path></svg>