<?xml version="1.0" standalone="no"?><!DOCTYPE svg PUBLIC "-//W3C//DTD SVG 1.1//EN" "http://www.w3.org/Graphics/SVG/1.1/DTD/svg11.dtd"><svg t="1706670376943" class="icon" viewBox="0 0 1024 1024" version="1.1" xmlns="http://www.w3.org/2000/svg" p-id="4858" xmlns:xlink="http://www.w3.org/1999/xlink" width="64" height="64"><path d="M910.592 503.332571c-230.656-143.908571-573.952-147.2-810.166857 0.109715 40.411429 62.500571 80.530286 125.184 121.782857 187.062857 3.181714 4.681143 15.798857 6.765714 22.381714 4.717714 24.027429-7.424 34.267429-27.428571 38.253715-49.92h26.770285c9.362286 35.181714 26.806857 52.077714 53.906286 53.284572 28.891429 1.243429 46.445714-14.262857 59.867429-53.504h24.758857c11.702857 36.644571 27.392 52.406857 53.979428 53.284571 36.717714 1.206857 52.662857-22.418286 60.562286-53.650286h24.758857c12.507429 37.851429 28.269714 52.955429 55.588572 53.869715 28.16 0.877714 44.617143-13.970286 59.501714-53.504h25.6c3.986286 24.356571 14.921143 42.898286 38.253714 50.176 6.509714 2.048 19.090286-0.219429 22.272-4.973715 41.325714-61.842286 81.517714-124.489143 121.929143-186.953143M26.916571 487.497143c268.544-187.757714 667.355429-199.021714 956.928-0.182857L720.822857 891.721143c-142.884571-84.699429-285.330286-85.686857-430.738286-0.292572L26.916571 487.497143M768.365714 221.110857l29.842286-22.893714c25.490286 38.326857 24.576 79.506286 23.369143 122.441143H781.165714l-12.763428-99.547429M211.273143 197.851429c12.434286 9.581714 22.674286 17.554286 30.354286 23.405714l-12.873143 98.889143h-39.131429c-3.693714-41.691429-2.633143-82.176 21.650286-122.294857m313.380571 99.145142h-37.339428c-5.595429-22.784-16.091429-45.421714-14.372572-67.072 0.914286-11.483429 22.016-23.625143 36.315429-30.537142 4.498286-2.194286 19.346286 10.24 24.612571 18.907428 3.84 6.363429 0.365714 17.664-0.841143 26.624-2.267429 16.493714-5.266286 32.914286-8.411428 52.077714m250.294857-131.949714l-32.182857 23.771429c-21.357714-10.057143-40.740571-18.176-58.916572-28.342857-5.193143-2.925714-8.594286-11.593143-9.910857-18.212572-1.682286-8.338286-0.365714-17.225143-0.365714-28.379428 40.374857 5.449143 72.192 21.869714 101.376 51.163428M631.588571 153.6c-20.48 11.154286-39.204571 22.052571-58.697142 31.451429-4.315429 2.011429-11.995429 0.073143-16.676572-2.56-8.118857-4.644571-15.140571-11.227429-24.941714-18.797715a166.4 166.4 0 0 1 100.315428-49.92v39.862857z m-251.611428-39.570286a164.461714 164.461714 0 0 1 98.011428 49.115429c-4.315429 3.766857-7.862857 6.326857-10.752 9.508571-14.372571 15.725714-28.891429 19.053714-45.421714 2.56-4.461714-4.388571-11.337143-6.509714-17.371428-8.996571-30.500571-12.690286-31.744-15.213714-24.502858-52.187429M267.190857 188.928l-29.915428-22.381714c19.456-27.209143 55.405714-46.336 98.669714-51.821715 0 11.702857 0.877714 23.149714-0.475429 34.304-0.512 4.315429-5.302857 9.618286-9.581714 11.776-18.468571 9.545143-37.485714 18.102857-58.697143 28.16M484.315429 870.4v68.827429h41.435428V870.4h-41.435428z m-0.548572-433.846857v68.644571h42.130286v-68.644571h-42.130286z m0.694857 113.225143v69.083428h41.362286v-69.083428h-41.362286z" fill="#FFBF00" p-id="4859"></path></svg>