<?xml version="1.0" standalone="no"?><!DOCTYPE svg PUBLIC "-//W3C//DTD SVG 1.1//EN" "http://www.w3.org/Graphics/SVG/1.1/DTD/svg11.dtd"><svg t="1692097299727" class="icon" viewBox="0 0 1024 1024" version="1.1" xmlns="http://www.w3.org/2000/svg" p-id="8735" xmlns:xlink="http://www.w3.org/1999/xlink" width="64" height="64"><path d="M556.8 317.622857a177.005714 177.005714 0 0 1-175.725714 176.530286c-97.243429 0.548571-177.554286-79.798857-177.261715-177.371429a177.042286 177.042286 0 0 1 178.139429-176.310857 176.566857 176.566857 0 0 1 174.848 177.152z m-73.472 413.257143c-42.825143-14.336-80.603429-27.062857-118.308571-39.643429-35.949714-11.995429-44.068571-9.325714-66.56 21.467429-34.450286 47.177143-68.754286 94.500571-103.314286 141.641143a123.428571 123.428571 0 0 1-16.969143 19.931428 51.2 51.2 0 0 1-61.147429 4.242286 46.994286 46.994286 0 0 1-20.48-53.430857c3.401143-11.593143 9.398857-23.04 16.493715-32.914286 48.201143-66.998857 96.987429-133.632 145.700571-200.265143 24.685714-33.792 47.104-41.728 87.186286-31.158857 23.296 6.107429 46.592 12.324571 69.705143 19.163429 5.851429 1.718857 14.189714 4.754286 15.945143 9.289143 17.298286 45.348571 33.462857 91.062857 51.748571 141.714285z m131.986286-12.434286c-23.04-65.536-44.544-125.915429-65.097143-186.587428-1.938286-5.595429 0.329143-14.262857 3.584-19.748572a2837.321143 2837.321143 0 0 1 57.856-93.074285c23.990857-36.790857 69.12-46.884571 105.618286-24.502858 35.474286 21.686857 47.177143 68.608 25.709714 105.691429-41.398857 71.277714-83.236571 142.262857-127.670857 218.221714z m82.944-372.260571a82.285714 82.285714 0 0 1-81.773715-82.834286 82.797714 82.797714 0 0 1 82.212572-82.724571c45.860571-0.219429 84.077714 38.509714 83.2 84.260571a82.907429 82.907429 0 0 1-83.638857 81.298286z m-66.925715 537.197714c-4.022857 1.316571-5.376 2.084571-6.802285 2.157714-45.568 2.377143-45.531429 2.340571-61.147429-40.082285l-101.412571-275.163429 46.372571-26.185143 122.989714 339.273143zM917.211429 293.595429c1.097143 5.010286 1.645714 6.436571 1.682285 7.862857 1.901714 51.382857 1.901714 51.419429-42.532571 77.494857-26.331429 15.469714-52.736 30.866286-80.530286 47.140571l-23.661714-46.262857c23.478857-14.006857 47.542857-28.452571 71.68-42.825143l73.362286-43.410285z" fill="#FF0000" p-id="8736"></path></svg>