<?xml version="1.0" standalone="no"?><!DOCTYPE svg PUBLIC "-//W3C//DTD SVG 1.1//EN" "http://www.w3.org/Graphics/SVG/1.1/DTD/svg11.dtd"><svg t="1704254994437" class="icon" viewBox="0 0 1024 1024" version="1.1" xmlns="http://www.w3.org/2000/svg" p-id="25697" width="800" height="800" xmlns:xlink="http://www.w3.org/1999/xlink"><path d="M767.401037 433.896072s-10.950111 1.613701-28.799614-4.470609c-17.849504-6.076076-120.220687-41.536322-177.688185-40.153149-56.183124 1.358472-90.457793 15.815912-109.937463 25.160554-19.463204 9.328177-40.968233 25.555747-40.968233 25.555747s-32.866798 1.621934-68.96923 11.361769-59.221162 31.640056-59.221162 40.161383-1.218509 8.101435-1.218509 8.101435-12.942537 11.740494 4.26478 30.026356l2.502883 2.642846c11.411168 12.193319 7.689777 8.266098 25.086456 13.78232 8.965918 2.840442 312.868535 0 312.868534 0l78.799631-3.95192s22.814103-3.647292 29.812293-8.521327c7.006424-4.874034 28.947811-14.893797 33.467819-18.862183 5.664418-4.972832 6.644165-28.865479 5.07163-39.247501-0.510456-3.350898-7.311051-7.566279-7.311051-7.566279l-0.601021-23.472756s5.475055-3.844888 2.840442-10.546686z" fill="#AFB4AF" p-id="25698"></path><path d="M764.634693 446.459883s-18.623421 2.898074-22.344812 4.412977c-19.413805 7.912072-23.727984 16.301668-23.727984 16.301669l46.072796 0.880948v-21.595594zM772.447968 498.081833s-23.003465-1.885395-31.524792 4.816402c-8.513093 6.685331-11.551132 10.801914-11.551132 10.801914l39.338067-0.576322c0-0.008233 4.676438-10.571385 3.737857-15.041994z" fill="#202E39" p-id="25699"></path><path d="M310.559132 525.868768s-9.558706-26.840121-29.211273-21.760257c-9.426975 2.437017 3.202702 21.760257 3.202702 21.760257l26.008571 0.601021" fill="#0B0D08" p-id="25700"></path><path d="M730.878714 428.964406l20.072458 7.006424s-330.100551 33.154959-345.002581 27.38351c-14.910263-5.796149-12.777873-6.092543-12.777873-6.092543l337.707996-28.297391z" fill="#C2C6C1" p-id="25701"></path><path d="M425.411795 537.074107l285.592056-5.689118s32.496306-6.290139 50.650436-13.214231c-8.364896 4.725837-22.394211 11.444101-27.729302 15.157258-7.006424 4.849335-29.820527 8.513093-29.820527 8.513094l-78.791397 3.951919s-303.919083 2.848675-312.876768 0c-16.128772-5.112796-14.111646-2.10769-22.830568-11.370002l135.80607 2.65108z" fill="#060203" p-id="25702"></path><path d="M621.682235 537.477532c-0.461057-6.174874-0.329327-13.041335-0.329326-19.018613a45.331811 45.331811 0 1 1 90.663622 0c0 7.014657-0.609254 13.337729-2.659313 19.018613H621.682235z" fill="#0B0D08" p-id="25703"></path><path d="M666.676486 519.776225m-42.285539 0a42.28554 42.28554 0 1 0 84.571079 0 42.28554 42.28554 0 1 0-84.571079 0Z" fill="#39393A" p-id="25704"></path><path d="M666.100165 519.809158m-30.726175 0a30.726175 30.726175 0 1 0 61.45235 0 30.726175 30.726175 0 1 0-61.45235 0Z" fill="#D1D1D1" p-id="25705"></path><path d="M693.179047 520.245516a27.004784 27.004784 0 0 1-8.653057 19.833696l-18.434058-19.833696 26.584892-5.219828c0.321093 1.696032 0.502223 3.441463 0.502223 5.219828zM666.091932 547.324398c-4.775236 0-9.262312-1.234975-13.173066-3.416764l13.173066-23.653885 13.181298 23.653885a26.988318 26.988318 0 0 1-13.181298 3.416764z" fill="#060203" p-id="25706"></path><path d="M662.848064 493.372462l3.243868 26.881287-24.551301-11.394702a27.078882 27.078882 0 0 1 21.307433-15.486585zM690.659698 508.859047l-24.567766 11.394702 3.260333-26.881287a27.078882 27.078882 0 0 1 21.307433 15.486585z" fill="#060203" p-id="25707"></path><path d="M666.091932 520.245516l-18.417592 19.833696a27.02125 27.02125 0 0 1-8.142601-25.053524l26.560193 5.219828z" fill="#060203" p-id="25708"></path><path d="M666.676486 519.809158m-8.81772 0a8.817721 8.817721 0 1 0 17.635441 0 8.817721 8.817721 0 1 0-17.635441 0Z" fill="#A7A7A6" p-id="25709"></path><path d="M621.336442 510.983204l-199.571939 7.187554v8.760088l199.571939-9.904498z" fill="#C2C6C1" p-id="25710"></path><path d="M767.491602 435.649737s0.246995 6.183108-2.865142 7.508647c-3.12037 1.317307-26.650758-1.918328-26.650757-1.918328s28.807847-4.371811 29.515899-5.590319z" fill="#D67524" p-id="25711"></path><path d="M280.499843 497.727807s0.46929-5.236293 2.025359-7.508647c5.672651-8.323731 33.369021-20.286521 34.480499-16.22757 1.119711 4.042484-4.075417 18.104732-22.797637 21.784957-14.885564 2.955707-13.708221 1.95126-13.708221 1.95126z" fill="#D7B731" p-id="25712"></path><path d="M334.73994 537.428133c-0.46929-6.174874-0.329327-13.041335-0.329327-19.018613a45.331811 45.331811 0 1 1 90.671855 0c0 7.014657-0.617487 13.337729-2.667545 19.018613H334.73994z" fill="#0B0D08" p-id="25713"></path><path d="M379.734191 519.726826m-42.293773 0a42.293773 42.293773 0 1 0 84.587546 0 42.293773 42.293773 0 1 0-84.587546 0Z" fill="#39393A" p-id="25714"></path><path d="M379.149636 519.759759m-30.726175 0a30.726175 30.726175 0 1 0 61.45235 0 30.726175 30.726175 0 1 0-61.45235 0Z" fill="#D1D1D1" p-id="25715"></path><path d="M406.228519 520.196117c0 7.846207-3.326199 14.893797-8.653058 19.841929l-18.425825-19.841929 26.576659-5.211594c0.329327 1.687799 0.502223 3.43323 0.502224 5.211594z" fill="#060203" p-id="25716"></path><path d="M379.149636 547.274999a26.897753 26.897753 0 0 1-13.173065-3.424997l13.173065-23.653885 13.173066 23.653885a26.988318 26.988318 0 0 1-13.173066 3.424997zM375.905769 493.323063l3.2521 26.873054-24.567766-11.386469a27.087116 27.087116 0 0 1 21.315666-15.486585zM403.717403 508.809648l-24.559534 11.386469 3.252101-26.873054a27.103582 27.103582 0 0 1 21.307433 15.486585z" fill="#060203" p-id="25717"></path><path d="M379.149636 520.196117l-18.425825 19.841929a27.02125 27.02125 0 0 1-8.134368-25.053523l26.560193 5.211594z" fill="#060203" p-id="25718"></path><path d="M379.734191 519.759759m-8.825954 0a8.825954 8.825954 0 1 0 17.651908 0 8.825954 8.825954 0 1 0-17.651908 0Z" fill="#A7A7A6" p-id="25719"></path><path d="M429.618943 530.693403l-0.049399-0.370492c-0.041166-0.31286-4.042484-31.994082-4.9152-41.198762-0.296394-3.219168-2.865142-31.565958 0.049399-36.933982 2.511116-4.618806 134.398199-21.710858 149.43196-23.637419h70.195971l0.123498 0.115264 8.438995 8.134368-0.164663 0.271694c-0.33756 0.584555-34.159405 58.867136-40.449544 72.0896-4.890501 10.274991-10.489053 17.223783-21.957853 17.717773-12.325049 0.535156-158.867168 3.77079-160.349138 3.803723l-0.354026 0.008233z m144.574392-101.325572c-58.570742 7.54158-146.591518 19.948961-148.756841 23.217528-2.264121 4.182448-1.037379 24.872394 0.049399 36.456458 0.815083 8.653057 4.412977 37.222143 4.865801 40.811803 8.274332-0.18113 147.94999-3.268567 159.962179-3.795489 9.706903-0.419891 15.461885-5.09633 21.241568-17.256716 6.076076-12.777873 37.757298-67.454328 40.317813-71.867304l-7.862673-7.574513h-69.817246z" fill="#484F4E" p-id="25720"></path><path d="M536.353705 527.573033c-0.008233-0.296394-1.523136-30.009889-1.004447-44.063903 0.502223-13.78232 7.846207-42.5984 7.920306-42.886561l0.798617 0.205829c-0.074098 0.288161-7.393383 29.005443-7.895606 42.713664-0.518689 14.012848 0.996213 43.693411 1.012679 43.989805l-0.831549 0.041166z" fill="#484F4E" p-id="25721"></path><path d="M401.379184 450.87286s-50.090581 3.630826-69.520852 13.156599a417.14158 417.14158 0 0 1-38.786445 16.351068h-2.585214s22.056651-17.495477 50.049415-26.008571c27.984531-8.521327 48.024056-8.669524 48.024057-8.669524h7.352217c-0.008233 0 4.404744 5.013998 5.466822 5.170428z" fill="#C2C6C1" p-id="25722"></path><path d="M670.949499 417.701435S583.422714 380.882718 510.20517 400.148326c-79.911108 18.524623-84.785142 43.718111-84.785142 43.71811v7.006424l226.971916-14.004615s17.577809-7.986171 18.557555-19.16681z" fill="#202226" p-id="25723"></path><path d="M436.189009 431.384957c10.258525-8.916519 31.516559-21.085138 75.341701-31.236631 62.218034-16.367534 134.735759 7.739176 155.145776 15.354854-71.365081 0.913881-160.925459 4.60234-230.487477 15.881777z" fill="#343C3E" p-id="25724"></path><path d="M464.716929 433.113922l0.996213 20.278287s-24.987658 4.668205-24.987659-1.605467c0-6.290139 16.787425-16.433399 23.991446-18.67282z" fill="#AFB4AF" p-id="25725"></path><path d="M440.857214 452.395996a1.97596 1.97596 0 0 1-0.411658-1.218509c0-6.290139 17.042653-16.433399 24.345471-18.67282l0.329327 6.627699-24.26314 13.26363z" fill="#C2C6C1" p-id="25726"></path></svg>