<?xml version="1.0" standalone="no"?><!DOCTYPE svg PUBLIC "-//W3C//DTD SVG 1.1//EN" "http://www.w3.org/Graphics/SVG/1.1/DTD/svg11.dtd"><svg t="1703570128632" class="icon" viewBox="0 0 1024 1024" version="1.1" xmlns="http://www.w3.org/2000/svg" p-id="24163" width="16" height="16" xmlns:xlink="http://www.w3.org/1999/xlink"><path d="M367.576703 527.581883l-86.534865 175.005826c-7.258311 19.698644 8.523117 37.352723 28.224832 28.215622l175.058015-86.508259c7.549953-1.468444 14.869662-4.389984 20.717857-10.236132l310.992987-310.899866c15.613606-15.606443 15.613606-40.919968 0-56.526411l-70.678736-70.65827c-15.613606-15.609513-40.930201-15.609513-56.543807 0L377.815905 506.871189C371.97078 512.719384 369.045147 520.03193 367.576703 527.581883L367.576703 527.581883zM702.94689 238.373039c7.803733-7.80578 20.464077-7.80578 28.269857 0l42.408879 42.399669c7.806803 7.80271 7.806803 20.451798 0 28.259624l-42.408879 42.391483-69.667709-71.67032L702.94689 238.373039 702.94689 238.373039zM631.760594 309.534775l71.183226 70.154803L476.767568 605.796246c-18.056238-18.046005-14.45113-14.447037-12.784164-12.777001l-1.354857-1.354857-42.405809-42.394552c-7.809873-7.806803-6.625908-6.623861-14.137998-14.131859L631.760594 309.534775 631.760594 309.534775zM441.549461 627.110691l-108.104113 65.416895c-9.850345 4.569062-18.686594-4.894474-14.110369-14.110369l65.434292-108.062158L441.549461 627.110691 441.549461 627.110691zM787.939633 425.696402l0 321.650721c0 22.079878-21.849634 40.446177-43.927465 40.446177L264.216637 787.7933c-22.078855 0-39.983643-17.897625-39.983643-39.969317L224.232994 268.176832c0-22.075785 18.429745-43.517119 40.508599-43.517119L586.706469 224.659713l0-40.209794L264.744663 184.449919c-44.164872 0-80.492242 39.576367-80.492242 83.726913l0 479.646128c0 44.143383 35.802414 79.936587 79.963193 79.936587l479.791437 0c44.164872 0 84.176145-36.265972 84.176145-80.413448L828.183196 425.696402 787.939633 425.696402 787.939633 425.696402zM787.939633 425.696402" fill="#00ff00" p-id="24164"></path></svg>