<?xml version="1.0" standalone="no"?><!DOCTYPE svg PUBLIC "-//W3C//DTD SVG 1.1//EN" "http://www.w3.org/Graphics/SVG/1.1/DTD/svg11.dtd"><svg t="1706515024804" class="icon" viewBox="0 0 1024 1024" version="1.1" xmlns="http://www.w3.org/2000/svg" p-id="36402" xmlns:xlink="http://www.w3.org/1999/xlink" width="64" height="64"><path d="M130.742857 651.702857c66.816 108.763429 159.744 168.155429 286.464 165.741714 121.124571-2.340571 209.334857-61.842286 272.64-165.814857-68.315429-28.342857-134.217143-55.844571-200.338286-82.761143-4.242286-1.718857-11.446857-0.292571-15.542857 2.377143-50.468571 32.731429-78.811429 32.914286-126.171428 0.914286-4.461714-2.998857-12.544-4.754286-17.261715-2.779429-65.572571 26.477714-130.816 53.723429-199.789714 82.285715m-20.041143-55.332572c65.536-27.172571 129.718857-53.467429 193.462857-80.749714 5.595429-2.377143 11.337143-10.788571 12.068572-16.969143 6.326857-53.613714 42.605714-89.526857 92.598857-90.221714 51.090286-0.731429 89.051429 34.962286 95.817143 89.197714 0.804571 6.034286 4.608 14.738286 9.325714 16.749714 64.950857 27.794286 130.304 54.637714 195.547429 81.737143 35.437714-85.028571 21.942857-238.299429-97.024-337.188571A315.428571 315.428571 0 0 0 220.672 249.051429c-123.465143 92.635429-148.553143 247.954286-109.970286 347.245714m646.582857-91.428572c-3.145143 197.595429-158.902857 346.550857-359.168 343.625143-186.624-2.706286-338.176-163.328-334.848-354.889143 3.291429-189.586286 162.852571-342.308571 353.865143-338.724571 189.915429 3.547429 343.222857 161.28 340.187429 349.988571z m98.121143-83.053714c0-60.598857-0.182857-121.197714 0.109715-181.833143 0.109714-24.32 11.849143-41.801143 34.486857-50.980571 20.955429-8.484571 41.984-5.851429 56.32 10.971428 9.654857 11.264 17.846857 28.123429 18.029714 42.569143 1.389714 120.466286 1.060571 240.969143 0.621714 361.435429-0.146286 34.523429-23.954286 58.697143-55.113143 58.514286-31.378286-0.073143-54.125714-24.027429-54.418285-58.88-0.475429-60.562286-0.109714-121.161143-0.109715-181.796572h0.073143z m111.030857 342.857143a56.32 56.32 0 0 1-56.795428 56.722286 57.014857 57.014857 0 0 1-56.356572-57.526857 57.636571 57.636571 0 0 1 56.064-55.917715 56.795429 56.795429 0 0 1 57.088 56.722286z" fill="#FF0000" p-id="36403"></path></svg>