<?xml version="1.0" standalone="no"?><!DOCTYPE svg PUBLIC "-//W3C//DTD SVG 1.1//EN" "http://www.w3.org/Graphics/SVG/1.1/DTD/svg11.dtd"><svg t="1706520559901" class="icon" viewBox="0 0 1024 1024" version="1.1" xmlns="http://www.w3.org/2000/svg" p-id="92914" xmlns:xlink="http://www.w3.org/1999/xlink" width="64" height="64"><path d="M602.88 726.674286c19.017143-2.011429 45.275429-3.693714 71.241143-7.643429 95.890286-14.665143 172.982857-59.721143 225.353143-143.067428 29.44-46.811429 30.573714-94.793143 4.278857-143.323429a268.653714 268.653714 0 0 0-83.821714-93.915429c-83.638857-57.965714-178.834286-65.792-276.48-64.768-22.089143 0.182857-29.878857 9.764571-35.437715 29.110858-32.841143 115.382857-39.570286 231.826286-10.861714 348.489142 20.589714 83.492571-1.755429 73.033143 105.728 75.117715m-176.64-246.162286c-1.828571-65.682286 15.616-145.334857 40.704-223.707429 6.253714-19.382857 18.285714-31.232 38.875429-33.316571 92.086857-9.472 183.149714-3.620571 269.568 30.939429 96.438857 38.546286 166.838857 104.594286 194.194285 208.091428 15.396571 58.514286-3.876571 111.323429-36.315428 159.634286-59.245714 88.283429-145.737143 134.144-248.137143 148.260571-55.954286 7.716571-113.444571 5.010286-170.203429 6.253715-26.989714 0.548571-42.642286-14.08-50.797714-39.643429-24.868571-77.897143-37.595429-157.549714-37.888-256.512z m-17.005714 271.250286H74.020571v-48.932572c7.424-0.365714 15.104-1.024 22.784-1.024 88.283429-0.073143 176.566857 0.914286 264.850286-0.731428 23.588571-0.365714 36.754286 5.668571 40.667429 29.257143 0.987429 6.290286 3.876571 12.251429 6.948571 21.430857zM73.508571 297.289143V246.893714h335.652572c-5.12 14.848-9.069714 28.708571-14.884572 41.801143-1.718857 4.022857-8.484571 8.228571-12.982857 8.228572-102.070857 0.475429-204.178286 0.365714-307.785143 0.365714z m-0.256 340.114286V589.165714h293.632l8.301715 48.274286H73.252571zM73.142857 409.344V361.289143h301.531429l-7.424 48.054857H73.142857z m0.109714 65.609143h286.72v48.164571h-286.72v-48.164571z" fill="#0000ff" p-id="92915"></path></svg>