<?xml version="1.0" standalone="no"?><!DOCTYPE svg PUBLIC "-//W3C//DTD SVG 1.1//EN" "http://www.w3.org/Graphics/SVG/1.1/DTD/svg11.dtd"><svg t="1692097258645" class="icon" viewBox="0 0 1024 1024" version="1.1" xmlns="http://www.w3.org/2000/svg" p-id="8337" xmlns:xlink="http://www.w3.org/1999/xlink" width="64" height="64"><path d="M339.565714 901.485714c-19.565714-2.596571-37.193143-3.657143-53.942857-8.045714-6.838857-1.755429-14.006857-9.874286-17.115428-16.896-24.502857-55.222857-48.128-110.811429-73.618286-170.057143l-99.218286 64.146286-24.868571-26.953143 117.174857-124.013714 11.337143 84.992c55.222857-24.283429 110.08-37.229714 167.68-37.083429 57.819429 0.109714 113.042286 12.324571 168.850285 35.328l7.497143-37.156571c-102.912-41.545143-205.750857-43.885714-310.345143-14.006857a617.691429 617.691429 0 0 1-5.632-4.571429c4.754286-8.996571 7.753143-19.602286 14.482286-26.770286 69.595429-73.984 139.812571-147.419429 209.846857-221.037714 4.973714-5.229714 9.764571-10.642286 14.665143-16.018286-30.72-24.502857-30.939429-24.429714-55.954286 2.048l-220.489142 233.325715c0.987429-17.590857 0.073143-29.44 2.56-40.594286 12.434286-55.588571 25.234286-111.177143 39.204571-166.4 2.121143-8.338286 10.057143-17.371429 17.773714-21.76 22.784-13.056 46.884571-23.771429 70.363429-35.584 23.625143-11.885714 25.965714-26.550857 7.350857-44.690286-31.195429-30.427429-36.205714-81.078857-11.52-116.589714 27.245714-39.204571 77.312-39.533714 104.886857-0.768 23.954286 33.718857 20.772571 83.565714-7.241143 113.664-24.283429 26.148571-22.272 36.022857 10.642286 51.638857 1.938286 0.914286 3.949714 1.755429 7.899429 3.547429l105.508571-111.177143 30.756571 28.050285-98.340571 103.862858c34.669714 5.814857 36.717714 32.548571 42.422857 57.307428 7.241143 32.036571 14.409143 64.182857 23.478857 95.780572 10.678857 37.046857 15.286857 74.422857 9.764572 112.566857-2.084571 14.409143 4.242286 19.456 15.872 26.038857 37.229714 20.955429 73.289143 44.068571 111.542857 67.364571l-26.953143 29.513143-103.241143-66.084571c-23.515429 56.612571-46.153143 108.726857-66.669714 161.609143-7.899429 20.48-19.712 30.500571-41.545143 30.500571-11.337143 0-22.674286 2.742857-34.852571 4.315429 22.747429-55.588571 44.690286-109.275429 67.291428-164.388572-66.925714-23.808-128.804571-22.564571-195.181714 0.292572a351801.782857 351801.782857 0 0 1 67.876571 164.790857z m604.598857-491.52c-1.792 60.379429-15.104 124.086857-54.857142 179.638857-61.952 86.747429-156.891429 87.222857-219.794286 1.499429-74.459429-101.302857-73.984-281.417143 0.914286-382.464 62.025143-83.638857 155.355429-83.492571 217.344 0.402286 36.352 49.115429 57.051429 120.356571 56.393142 200.886857z" fill="#FF0000" p-id="8338"></path></svg>