<?xml version="1.0" standalone="no"?><!DOCTYPE svg PUBLIC "-//W3C//DTD SVG 1.1//EN" "http://www.w3.org/Graphics/SVG/1.1/DTD/svg11.dtd"><svg t="1706518836933" class="icon" viewBox="0 0 1024 1024" version="1.1" xmlns="http://www.w3.org/2000/svg" p-id="49165" xmlns:xlink="http://www.w3.org/1999/xlink" width="64" height="64"><path d="M873.142857 527.506286c-2.194286 110.445714-43.885714 202.971429-127.488 275.638857-11.337143 9.801143-12.653714 15.725714-3.803428 27.867428 20.260571 27.757714 38.326857 57.051429 58.368 84.955429 7.753143 10.788571 8.301714 17.481143-4.278858 23.734857-5.851429 2.889143-11.373714 6.765714-16.347428 10.971429-9.252571 8.045714-14.555429 4.644571-20.553143-4.461715-19.638857-29.915429-40.594286-59.062857-59.830857-89.234285-7.168-11.337143-12.836571-11.812571-24.502857-6.144-256.146286 125.220571-542.500571-60.269714-529.92-343.844572 4.461714-99.620571 45.641143-183.698286 119.771428-250.221714 15.36-13.824 14.262857-21.979429 3.510857-36.571429-19.968-27.062857-37.595429-55.771429-57.197714-83.053714-7.899429-11.008-7.424-17.554286 4.754286-23.515428 5.924571-2.925714 11.593143-6.619429 16.420571-10.971429 9.216-8.411429 14.189714-4.754286 20.114286 4.278857 20.041143 30.537143 41.398857 60.269714 61.037714 91.062857 7.643429 11.958857 13.641143 12.653714 26.075429 6.217143 218.916571-112.128 477.769143 11.446857 526.994286 251.245714 4.827429 23.698286 7.497143 47.689143 6.875428 72.045715z m-384.365714-137.947429c6.912 0 12.068571 0.182857 17.188571 0 30.756571-1.097143 56.868571 7.862857 71.570286 36.717714 14.006857 27.574857 9.691429 54.125714-10.861714 77.165715-7.058286 7.899429-1.938286 10.605714 2.998857 15.177143 21.065143 19.529143 28.452571 43.885714 22.528 71.68-2.340571 11.008-0.292571 19.2 5.997714 28.306285 30.72 44.470857 61.403429 88.978286 90.733714 134.4 10.020571 15.469714 15.945143 17.225143 30.317715 4.022857 135.277714-124.123429 134.985143-337.737143-1.316572-461.531428-94.646857-86.016-234.532571-105.618286-347.172571-48.274286-6.582857 3.364571-21.467429 3.803429-11.117714 18.907429 27.757714 40.338286 55.003429 80.969143 82.578285 121.417143 2.121143 3.145143 3.145143 7.789714 9.654857 4.644571 12.288-5.924571 25.819429-1.060571 36.900572-2.633143z m-37.668572 177.371429c0-13.897143-1.170286-27.940571 0.292572-41.691429 2.486857-23.917714-5.302857-43.190857-19.126857-62.683428a3883.812571 3883.812571 0 0 1-106.898286-158.025143c-12.251429-19.273143-19.931429-16.128-33.28-2.56-75.922286 77.165714-107.52 169.069714-90.953143 276.260571 31.305143 202.459429 257.426286 320 441.380572 229.961143 8.667429-4.278857 20.224-5.851429 9.581714-20.918857-31.488-44.836571-61.842286-90.477714-92.306286-136.082286-5.229714-7.826286-10.24-10.130286-19.748571-7.460571-24.246857 6.692571-49.408 3.218286-74.24 4.315428-11.629714 0.475429-15.213714-4.132571-14.884572-15.36 0.658286-21.869714 0.219429-43.812571 0.182857-65.755428z m36.315429-128.365715c-3.145143 21.650286 13.860571 33.206857 22.089143 48.859429 5.412571 10.24 13.312 9.618286 21.869714 4.132571 15.433143-9.764571 20.845714-24.137143 16.566857-41.325714-4.864-19.492571-19.090286-28.16-38.509714-29.110857-12.836571-0.621714-26.587429-2.084571-22.016 17.444571z m4.754286 113.152a213.577143 213.577143 0 0 1-5.12 0.841143v34.011429c0 27.721143 2.633143 29.805714 29.44 26.331428 10.605714-1.316571 14.994286-4.096 7.460571-14.665142-10.971429-15.250286-21.211429-30.976-31.817143-46.518858z m430.592-23.149714c-1.206857 108.324571-40.082286 204.8-117.138286 285.769143-4.315429 4.498286-14.189714 9.362286-10.605714 14.884571 8.594286 13.312 18.395429 27.611429 31.305143 35.84 8.886857 5.632 16.018286-9.398857 22.528-16.237714a470.528 470.528 0 0 0 12.324571-634.514286c-24.832-28.416-23.990857-27.574857-50.285714-1.828571-13.165714 12.873143-11.593143 19.565714 0.438857 32.475429 73.508571 78.665143 110.262857 172.507429 111.433143 283.611428zM182.052571 187.611429c8.411429 8.777143 15.652571 17.883429 24.356572 25.307428 12.507429 10.715429 12.251429 18.029714 0.365714 30.829714-151.04 163.035429-149.942857 407.222857 2.486857 567.515429 12.873143 13.494857 14.628571 20.809143 1.170286 34.56-22.930286 23.625143-21.942857 24.502857-44.178286 1.097143-170.166857-179.273143-169.325714-466.724571 1.828572-645.997714 4.059429-4.169143 8.411429-8.045714 13.970285-13.312z m505.051429 462.409142a71.606857 71.606857 0 0 1-69.485714-53.174857c-1.828571-6.290286-8.192-16.310857 1.316571-18.724571 9.874286-2.523429 23.149714-7.68 31.451429 5.412571 1.170286 1.828571 1.609143 4.059429 2.486857 6.107429 7.68 18.541714 21.723429 27.099429 41.581714 24.649143 19.017143-2.304 30.061714-14.189714 33.572572-32.512 3.84-19.968-1.974857-36.900571-21.138286-45.860572-15.835429-7.314286-33.097143-11.556571-49.005714-18.797714-28.635429-12.946286-41.252571-40.96-35.291429-75.081143 5.302857-30.208 30.866286-53.174857 62.171429-55.844571 29.184-2.450286 58.002286 14.884571 67.291428 42.313143 2.267429 6.582857 12.032 18.395429-1.645714 21.357714-9.910857 2.194286-25.088 8.813714-31.524572-9.033143-6.034286-16.749714-18.578286-23.990857-36.132571-20.955429-14.994286 2.56-22.235429 13.092571-24.685714 27.172572-3.035429 17.225143 3.035429 30.573714 19.163428 37.705143 11.958857 5.339429 24.649143 8.923429 36.937143 13.385143 37.302857 13.531429 56.685714 48.64 49.371429 89.417142a76.434286 76.434286 0 0 1-76.434286 62.464z m-287.707429-2.56c-16.128 4.022857-22.674286-3.876571-23.661714-19.2-0.731429-11.190857-6.253714-16.822857-18.505143-15.506285a134.875429 134.875429 0 0 1-28.525714 0c-16.969143-1.901714-27.209143 1.901714-28.562286 21.942857-1.462857 21.467429-19.748571 12.836571-30.793143 12.544-16.676571-0.438857-6.765714-13.531429-5.485714-19.712 15.36-73.618286 32.256-146.944 47.067429-220.635429 3.584-17.737143 13.531429-17.993143 26.441143-16.786285 12.909714 1.206857 28.379429-6.948571 32.877714 16.822857 14.006857 73.874286 30.061714 147.382857 46.409143 220.745143 3.730286 16.859429 0.365714 23.442286-17.261715 19.748571z m-57.526857-191.670857c-1.389714-0.731429-2.779429-1.316571-4.169143-2.011428-5.997714 29.220571-12.178286 58.404571-17.92 87.661714-7.460571 37.595429-7.314286 37.12 30.427429 35.401143 12.068571-0.548571 15.213714-4.388571 12.8-15.835429-7.387429-34.998857-14.153143-70.144-21.138286-105.216z" fill="#FFBF00" p-id="49166"></path></svg>