<?xml version="1.0" standalone="no"?><!DOCTYPE svg PUBLIC "-//W3C//DTD SVG 1.1//EN" "http://www.w3.org/Graphics/SVG/1.1/DTD/svg11.dtd"><svg t="1688452077778" class="icon" viewBox="0 0 1024 1024" version="1.1" xmlns="http://www.w3.org/2000/svg" p-id="75907" xmlns:xlink="http://www.w3.org/1999/xlink" width="32" height="32"><path d="M336.091429 205.641143v304.676571c86.198857 0 170.934857 2.011429 255.451428-0.804571 44.690286-1.462857 86.235429-17.517714 114.212572-56.210286 67.108571-92.708571 15.433143-226.742857-97.28-239.286857-89.490286-9.874286-180.516571-6.070857-272.384-8.374857m-1.28 400.091428v338.688H224.694857V116.114286c2.450286-0.804571 5.083429-2.450286 7.68-2.450286 130.121143 0.548571 260.205714 0.585143 390.217143 2.56 23.698286 0.292571 47.981714 6.290286 70.729143 13.458286 68.827429 21.796571 115.053714 67.730286 136.374857 136.96a315.392 315.392 0 0 1 3.145143 175.286857c-24.868571 94.646857-98.048 155.611429-200.667429 160.731428-89.673143 4.498286-179.712 2.304-269.604571 3.035429-8.557714 0.073143-17.078857 0-27.794286 0" fill="#00ff00" p-id="75908"></path></svg>