<?xml version="1.0" standalone="no"?><!DOCTYPE svg PUBLIC "-//W3C//DTD SVG 1.1//EN" "http://www.w3.org/Graphics/SVG/1.1/DTD/svg11.dtd"><svg t="1706518758208" class="icon" viewBox="0 0 1024 1024" version="1.1" xmlns="http://www.w3.org/2000/svg" p-id="44302" xmlns:xlink="http://www.w3.org/1999/xlink" width="64" height="64"><path d="M515.547429 893.988571c-202.459429-0.438857-363.739429-163.584-363.081143-367.250285 0.731429-200.301714 165.046857-362.203429 366.994285-361.581715 200.594286 0.658286 362.313143 164.498286 361.874286 366.628572-0.438857 201.142857-163.547429 362.642286-365.787428 362.203428z m1.462857-52.443428c172.068571-0.109714 311.478857-139.081143 311.771428-310.710857 0.292571-172.836571-139.373714-313.088-311.844571-313.088-172.251429-0.036571-312.576 140.836571-311.954286 313.197714 0.585143 171.666286 140.324571 310.710857 312.064 310.601143z" fill="#FF0000" p-id="44303"></path><path d="M931.108571 529.444571c-0.365714 109.202286-41.252571 209.078857-117.979428 288.804572-3.876571 4.059429-12.617143 8.813714-9.874286 13.056 8.667429 13.275429 18.066286 27.318857 30.537143 36.498286 9.362286 6.875429 15.36-7.460571 21.211429-13.494858 169.508571-175.872 175.945143-451.730286 15.213714-636.123428-25.490286-29.257143-24.758857-28.525714-51.712-1.718857-12.324571 12.251429-10.678857 18.724571 0.585143 30.829714 74.020571 79.250286 111.177143 173.604571 111.981714 282.148571z m-883.785142-21.577142c1.682286-102.4 43.593143-209.92 126.683428-301.604572 11.958857-13.202286 18.651429-15.542857 31.232-0.731428 22.345143 26.148571 23.296 25.380571 1.462857 50.029714-142.921143 161.718857-138.020571 402.578286 11.154286 560.128 5.010286 5.339429 17.225143 9.910857 11.922286 18.285714a156.928 156.928 0 0 1-32 35.620572c-4.022857 3.364571-10.130286-6.509714-14.628572-10.971429-86.381714-85.686857-135.570286-205.165714-135.826285-350.756571z m431.104-48.054858c0-32.877714-0.292571-65.718857 0.109714-98.669714 0.365714-26.148571 14.555429-42.386286 36.717714-43.190857 23.076571-0.877714 39.533714 15.542857 39.789714 42.496 0.585143 66.486857 0.512 132.973714 0.036572 199.497143-0.182857 26.916571-16.347429 43.776-39.131429 43.300571-22.857143-0.438857-37.156571-17.188571-37.449143-44.8-0.329143-32.841143-0.073143-65.718857-0.073142-98.633143z m76.690285 244.662858a39.131429 39.131429 0 0 1-37.595428 38.034285 39.021714 39.021714 0 0 1-39.021715-38.838857 38.912 38.912 0 0 1 37.558858-37.961143 38.948571 38.948571 0 0 1 39.058285 38.765715z" fill="#FF0000" p-id="44304"></path></svg>