<?xml version="1.0" standalone="no"?><!DOCTYPE svg PUBLIC "-//W3C//DTD SVG 1.1//EN" "http://www.w3.org/Graphics/SVG/1.1/DTD/svg11.dtd"><svg t="1710406857754" class="icon" viewBox="0 0 1024 1024" version="1.1" xmlns="http://www.w3.org/2000/svg" p-id="4270" width="64" height="64" xmlns:xlink="http://www.w3.org/1999/xlink"><path d="M472.576 671.524571c7.753143-33.097143 7.753143-33.097143-25.088-43.52-70.107429-22.235429-138.605714-22.454857-223.122286-0.548571-12.178286-11.702857-1.316571-19.017143 5.705143-26.477714 56.868571-59.904 113.883429-119.698286 170.788572-179.529143 4.900571-5.12 9.472-10.532571 15.506285-17.371429l-29.622857-15.030857-195.401143 206.701714-4.644571-1.462857c0.914286-10.349714 0.731429-20.955429 2.925714-31.012571 9.472-42.788571 20.114286-85.357714 29.366857-128.219429 2.889143-13.458286 9.216-21.577143 21.942857-26.989714 18.102857-7.68 35.547429-17.042286 53.101715-26.038857 19.456-9.984 21.211429-21.101714 6.217143-36.571429-27.062857-27.794286-30.171429-71.314286-7.241143-100.022857 22.784-28.525714 60.196571-28.306286 82.651428 0.548572 22.016 28.306286 19.748571 72.411429-6.948571 98.157714-10.861714 10.496-15.067429 21.284571-4.900572 31.561143 10.678857 10.715429 22.930286 14.665143 36.388572-1.389715 22.454857-26.770286 47.689143-51.273143 73.472-78.445714l25.6 23.04c-26.697143 28.233143-52.516571 55.661714-81.554286 86.418286 30.610286 4.388571 31.305143 27.721143 35.437714 47.798857 11.885714 58.368 36.388571 114.614857 28.050286 176.384-0.658286 4.754286 7.460571 12.361143 13.165714 15.945143 29.476571 18.688 59.465143 36.571429 91.538286 56.064l-21.430857 23.405714-91.977143-53.467428 0.073143 0.073142z m-0.109714-0.109714c-18.944 49.517714-37.083429 99.474286-57.782857 148.224-2.742857 6.436571-18.468571 7.862857-28.489143 10.459429-8.265143 2.121143-16.969143 2.56-26.331429 3.803428l55.332572-135.643428c-55.661714-20.370286-106.422857-18.541714-160.914286-0.073143l54.747428 132.754286c-37.193143 5.705143-51.126857-0.731429-65.572571-33.572572-17.554286-39.936-33.828571-80.530286-52.077714-124.16l-83.382857 53.650286-21.504-21.394286 98.304-103.862857 10.020571 69.522286c94.500571-39.606857 186.331429-41.033143 277.723429 0.402285l-0.073143-0.109714z m341.979428-59.611428l-33.060571-53.540572c-63.268571 53.833143-107.373714 47.835429-162.56-0.292571l-32.182857 53.979428c-9.947429-5.851429-18.432-10.934857-28.416-16.896 11.044571-18.797714 22.674286-35.730286 31.012571-54.125714 3.803429-8.374857 4.425143-21.028571 0.914286-29.366857-35.913143-84.736-35.657143-168.777143 0.621714-253.330286 3.328-7.68 2.56-19.602286-1.097143-27.355428-8.594286-18.358857-20.077714-35.328-31.451428-54.674286l28.306285-16.896 32.182858 53.540571c66.779429-56.685714 110.445714-44.324571 163.108571 0.182857l31.926857-53.650285 26.587429 15.36c-0.365714 3.108571 0 4.864-0.731429 5.778285-11.337143 14.518857-24.210286 34.998857-38.619428 61.44 9.654857 26.221714 17.042286 45.897143 22.162285 59.099429 27.282286 70.290286 17.371429 143.725714-14.043428 213.321143-3.145143 6.948571-2.048 18.066286 1.389714 25.234286 8.813714 18.285714 20.041143 35.474286 31.817143 55.661714l-27.867429 16.530286z m-114.102857-259.291429c21.028571-35.986286 40.265143-67.803429 58.002286-100.425143 2.596571-4.717714 0.512-15.616-3.474286-19.748571-37.12-38.546286-90.294857-30.939429-118.235428 11.739428L700.342857 352.548571z m-63.341714 176.091429c28.013714 35.328 64.182857 44.617143 98.377143 25.6 29.696-16.457143 31.232-22.308571 14.006857-51.675429-7.387429-12.617143-14.628571-25.234286-22.125714-37.778286-8.630857-14.482286-17.408-28.854857-27.355429-45.348571-21.321143 36.205714-40.557714 68.864-59.721143 101.595428-1.426286 2.413714-2.194286 5.229714-3.181714 7.606858zM616.228571 275.382857c-34.706286 63.305143-30.134857 176.091429 1.28 218.404572 19.785143-33.792 39.497143-66.889143 58.404572-100.425143a18.834286 18.834286 0 0 0-0.109714-15.725715c-18.944-33.536-38.656-66.56-59.574858-102.253714z m106.313143 110.336c31.670857 57.307429 52.662857 94.72 62.939429 112.310857 31.085714-77.019429 31.122286-148.260571 0-224.658285-10.715429 18.212571-31.670857 55.661714-62.902857 112.347428z m57.490286 487.862857h98.925714v43.154286h-163.145143c-4.242286-22.966857-5.668571-43.593143 16.896-61.44 26.258286-20.662857 50.285714-44.544 73.801143-68.461714 10.386286-10.605714 20.114286-23.771429 24.868572-37.595429a35.584 35.584 0 0 0-26.331429-47.433143c-21.467429-4.644571-40.411429 7.497143-46.08 29.842286-1.243429 4.900571-1.536 10.020571-2.742857 18.285714h-41.837714c-7.826286-32.731429 11.629714-69.997714 43.410285-85.467428 34.925714-17.078857 79.323429-7.497143 103.350858 22.308571 26.148571 32.438857 25.892571 75.337143-2.194286 110.957714-10.715429 13.604571-23.844571 25.526857-36.461714 37.632-12.068571 11.593143-24.868571 22.454857-42.459429 38.217143z" fill="#FF0000" p-id="4271"></path></svg>