<?xml version="1.0" standalone="no"?><!DOCTYPE svg PUBLIC "-//W3C//DTD SVG 1.1//EN" "http://www.w3.org/Graphics/SVG/1.1/DTD/svg11.dtd"><svg t="1703571654228" class="icon" viewBox="0 0 1024 1024" version="1.1" xmlns="http://www.w3.org/2000/svg" p-id="45535" width="16" height="16" xmlns:xlink="http://www.w3.org/1999/xlink"><path d="M815.633 493L596.708 657.207V608.42c0-14.912-12.088-27-27-27H192.526V404.578h377.176c14.91 0 26.999-12.088 27-27l0.002-23.523 0.002-25.262 218.927 164.208zM546.182 631.947v75.789c0 13.952 11.31 25.263 25.263 25.263a25.263 25.263 0 0 0 15.159-5.053l286.29-214.734c11.162-8.372 13.424-24.207 5.052-35.369a25.263 25.263 0 0 0-5.051-5.051L586.604 258.057c-11.162-8.372-26.997-6.11-35.369 5.051a25.263 25.263 0 0 0-5.053 15.159l-0.004 75.785H192.526c-27.905 0-50.526 22.622-50.526 50.526V581.42c0 27.905 22.621 50.526 50.526 50.526h353.656z" fill="#1afa29" p-id="45536"></path></svg>