<?xml version="1.0" standalone="no"?><!DOCTYPE svg PUBLIC "-//W3C//DTD SVG 1.1//EN" "http://www.w3.org/Graphics/SVG/1.1/DTD/svg11.dtd"><svg t="1703579613303" class="icon" viewBox="0 0 1024 1024" version="1.1" xmlns="http://www.w3.org/2000/svg" p-id="67428" xmlns:xlink="http://www.w3.org/1999/xlink" width="32" height="32"><path d="M695.168 755.498667a42.666667 42.666667 0 0 0 60.330667-60.330667l-181.034667-181.034667 181.034667-180.992a42.666667 42.666667 0 0 0-60.330667-60.373333l-211.072 211.072-0.128 0.128a42.538667 42.538667 0 0 0 0 60.330667l0.128 0.128 211.072 211.072z" fill="#2c2c2c" p-id="67429"></path><path d="M298.666667 768a42.666667 42.666667 0 0 1-42.666667-42.666667V298.666667a42.666667 42.666667 0 1 1 85.333333 0v426.666666a42.666667 42.666667 0 0 1-42.666666 42.666667z" fill="#2c2c2c" p-id="67430"></path></svg>