<?xml version="1.0" standalone="no"?><!DOCTYPE svg PUBLIC "-//W3C//DTD SVG 1.1//EN" "http://www.w3.org/Graphics/SVG/1.1/DTD/svg11.dtd"><svg t="1703570766517" class="icon" viewBox="0 0 1024 1024" version="1.1" xmlns="http://www.w3.org/2000/svg" p-id="44179" width="16" height="16" xmlns:xlink="http://www.w3.org/1999/xlink"><path d="M912.4 512c0 221.13-179.26 400.4-400.4 400.4S111.6 733.13 111.6 512 290.87 111.6 512 111.6 912.4 290.87 912.4 512zM512 180.44c-183.11 0-331.56 148.44-331.56 331.56S328.89 843.56 512 843.56 843.56 695.11 843.56 512 695.11 180.44 512 180.44z" fill="#ff0000" p-id="44180"></path><path d="M422.73 601l-32.78-62.69h-20.58V601h-42.83V422.98h65.32c38.04 0 69.63 12.92 69.63 55.99 0 26.08-12.2 42.83-30.63 51.44l39.72 70.58h-47.85v0.01z m-53.35-96.43h19.14c20.34 0 31.1-8.85 31.1-25.6s-10.77-22.25-31.1-22.25h-19.14v47.85zM495.94 422.98h112.93v35.41h-70.1v33.02h59.58v35.89h-59.58v37.8h72.74v35.89H495.94V422.98zM638.53 512.95c0-59.34 39.72-93.31 84.94-93.31 23.21 0 41.87 10.77 54.07 23.21l-22.49 27.28c-8.85-8.13-18.18-13.88-30.86-13.88-22.97 0-41.87 20.58-41.87 55.27 0 35.41 16.27 55.99 41.39 55.99 14.12 0 25.6-7.18 33.98-16.27l22.49 26.8c-15.07 17.47-34.93 26.32-58.14 26.32-45.22-0.02-83.51-31.12-83.51-91.41z" fill="#ff0000" p-id="44181"></path><path d="M266.8 442.62m-22.98 0a22.98 22.98 0 1 0 45.96 0 22.98 22.98 0 1 0-45.96 0Z" fill="#ff0000" p-id="44182"></path></svg>