<?xml version="1.0" standalone="no"?><!DOCTYPE svg PUBLIC "-//W3C//DTD SVG 1.1//EN" "http://www.w3.org/Graphics/SVG/1.1/DTD/svg11.dtd"><svg t="1703572494011" class="icon" viewBox="0 0 1024 1024" version="1.1" xmlns="http://www.w3.org/2000/svg" p-id="88449" width="16" height="16" xmlns:xlink="http://www.w3.org/1999/xlink"><path d="M32 555.99999969l128.80000031 126.68800031-128.80000031 132.25600031 55.2 54.30399938h257.568l73.56799969-72.44799938-294.36799969-313.21600031zM938.55999969 253.79199969l-234.336 215.29600031 36.06400031 35.87200031s-30.048 32.89600031-54.048 35.904c-24 2.976-195.29599969-5.98399969-234.30400031-17.98400062-39.072-11.93599969-99.13600031-62.75200031-126.17599969-71.74399969-27.04000031-8.95999969-108.16000031 71.74399969-108.16000031 71.74399969s156.25600031 140.57599969 180.288 161.44000031c24.03199969 20.99200031 81.08800031 41.952 90.11200031 35.93599969 8.99200031-6.01600031 105.12 38.88 108.16000031 53.82400031l-18.048 35.87200031 144.192 125.63199938s96.16000031-107.68000031 108.15999938-125.63199938c12.03199969-17.952 27.04000031-62.81599969 18.048-71.74400062-9.024-8.928-18.048-17.952-18.048-17.952l36.06400031-53.82399938 54.048 53.82399938 72.096-125.568L938.55999969 253.79199969zM578.94399969 282.62400031H280.47999969V203.29599969L32.31999969 356.70399969l546.624-0.48z" fill="#00ff00" p-id="88450"></path></svg>