<?xml version="1.0" standalone="no"?><!DOCTYPE svg PUBLIC "-//W3C//DTD SVG 1.1//EN" "http://www.w3.org/Graphics/SVG/1.1/DTD/svg11.dtd"><svg t="1706526514016" class="icon" viewBox="0 0 1024 1024" version="1.1" xmlns="http://www.w3.org/2000/svg" p-id="131945" xmlns:xlink="http://www.w3.org/1999/xlink" width="64" height="64"><path d="M514.998857 877.897143c-202.24-0.585143-363.373714-163.986286-362.532571-367.762286 0.841143-200.192 165.376-361.801143 367.542857-361.069714 200.411429 0.731429 361.837714 164.864 361.325714 367.140571-0.585143 200.996571-163.913143 362.276571-366.336 361.691429z m2.742857-52.443429a311.552 311.552 0 0 0 311.076572-313.636571c-0.585143-172.068571-141.604571-311.076571-314.843429-310.162286-170.605714 0.841143-310.016 142.518857-308.992 313.892572 1.097143 171.739429 141.238857 310.601143 312.758857 309.906285z m-116.187428-313.782857c0-62.829714 0.585143-125.696-0.402286-188.525714-0.256-16.676571 4.900571-21.101714 21.101714-20.736 45.312 1.060571 90.624 0.036571 135.899429 0.475428 78.518857 0.731429 131.145143 52.516571 130.925714 128.256-0.146286 75.264-55.625143 129.865143-132.608 130.340572-27.794286 0.182857-55.588571 1.133714-83.273143-0.365714-17.225143-0.914286-20.845714 5.522286-20.516571 21.248 0.950857 40.886857-0.219429 81.846857 0.621714 122.770285 0.292571 14.445714-4.388571 18.980571-18.761143 18.505143-39.314286-1.28-32.621714 3.766857-32.914285-32.219428-0.402286-59.904-0.073143-119.844571-0.073143-179.748572z m51.456-79.286857c0 21.101714 0.292571 42.24-0.109715 63.378286-0.146286 9.874286 3.108571 14.848 13.750858 14.628571 32.073143-0.731429 64.292571 0.804571 96.146285-1.792 37.668571-3.072 69.12-43.008 67.547429-81.664-1.828571-43.081143-28.672-70.4-72.192-71.936-29.842286-1.060571-59.794286 0.182857-89.636572-0.768-13.312-0.438857-15.981714 5.449143-15.725714 16.896 0.621714 20.406857 0.219429 40.813714 0.219429 61.257143z m533.833143 79.798857c-1.755429 126.025143-45.421714 235.776-132.973715 328.118857-12.580571 13.312-21.942857 17.554286-32.438857-0.877714a31.451429 31.451429 0 0 0-7.204571-8.228571c-12.361143-10.496-12.214857-18.358857 0.109714-31.012572 153.344-156.964571 156.050286-406.674286 6.144-567.369143-12.690286-13.604571-14.409143-20.626286-0.438857-34.121143 25.6-24.649143 24.832-25.746286 48.786286 1.828572 77.275429 89.197714 116.004571 192.950857 118.016 311.661714z m-939.849143-0.658286c2.450286-123.977143 44.8-231.424 128.365714-322.669714 10.093714-11.008 16.091429-15.213714 28.196571-1.28 24.027429 27.648 24.978286 26.843429 0.512 54.966857-140.214857 161.024-134.290286 400.603429 13.604572 556.836572 5.046857 5.376 17.188571 10.203429 12.214857 18.212571a153.453714 153.453714 0 0 1-31.817143 35.766857c-4.498286 3.730286-10.313143-6.217143-14.701714-10.605714-90.514286-92.013714-134.217143-203.264-136.374857-331.227429z" fill="#FFBF00" p-id="131946"></path></svg>