<?xml version="1.0" standalone="no"?><!DOCTYPE svg PUBLIC "-//W3C//DTD SVG 1.1//EN" "http://www.w3.org/Graphics/SVG/1.1/DTD/svg11.dtd"><svg t="1706510208235" class="icon" viewBox="0 0 1024 1024" version="1.1" xmlns="http://www.w3.org/2000/svg" p-id="11851" xmlns:xlink="http://www.w3.org/1999/xlink" width="32" height="32"><path d="M765.805714 819.126857a201802.24 201802.24 0 0 0-155.245714-128.512c5.851429-12.8 12.434286-24.868571 16.896-37.595428 2.084571-6.034286 3.035429-16.64-0.402286-19.748572-21.979429-19.821714-41.581714-44.690286-74.715428-45.897143-50.614857-1.938286-89.965714-24.612571-127.890286-57.6-89.234286-77.641143-181.650286-151.771429-269.897143-224.914285 9.289143-19.236571 18.468571-36.425143 25.929143-54.272 16.676571-39.862857 39.460571-53.394286 81.261714-41.581715 23.478857 6.656 45.824 18.468571 67.730286 29.732572 53.138286 27.392 104.521143 58.514286 158.902857 83.017143 63.597714 28.708571 129.426286 32.731429 195.584 3.218285 8.777143-3.913143 27.794286 0.694857 34.304 8.155429 71.68 82.614857 150.052571 157.732571 239.872 220.525714 16.018286 11.264 17.005714 27.648 8.521143 42.861714-40.009143 72.045714-84.370286 140.032-160.914286 180.297143-15.286857 8.118857-25.307429 26.404571-39.899428 42.313143zM128.548571 347.721143l276.187429 225.755428-55.369143 66.925715L73.142857 414.646857l55.369143-66.925714z" fill="#000000" p-id="11852"></path></svg>