<?xml version="1.0" standalone="no"?><!DOCTYPE svg PUBLIC "-//W3C//DTD SVG 1.1//EN" "http://www.w3.org/Graphics/SVG/1.1/DTD/svg11.dtd"><svg t="1706511098325" class="icon" viewBox="0 0 1024 1024" version="1.1" xmlns="http://www.w3.org/2000/svg" p-id="16645" xmlns:xlink="http://www.w3.org/1999/xlink" width="32" height="32"><path d="M435.5584 564.6336l98.9184 98.9184 67.5328-67.4816-82.1248-82.1248-84.3264 50.688z" fill="#FF0000" p-id="16646"></path><path d="M454.4 712.3456l-8.704 9.5744 53.9136 53.9136a24.6272 24.6272 0 0 0 34.816 0l180.0704-180.0704a24.6272 24.6272 0 0 0 0-34.816l-46.336-46.08-8.9088-7.5264z m240.64-133.8368L517.12 756.6848l-35.072-35.1232 178.1248-178.1248zM178.432 239.9744a69.3248 69.3248 0 1 0 98.048 0 69.3248 69.3248 0 0 0-98.048 0z m79.6672 79.6672a43.3152 43.3152 0 1 1 0-61.44 43.3152 43.3152 0 0 1 0 61.44z" fill="#FF0000" p-id="16647"></path><path d="M232.67328 346.5728L284.9792 294.25152 376.1152 385.3824 323.79904 437.69344zM421.632 672.8704l238.8992-128a17.2544 17.2544 0 0 0 3.6352-2.7136 15.36 15.36 0 0 0-18.3808-24.7808l-238.8992 128a16.0768 16.0768 0 0 0-3.4816 2.6624 15.36 15.36 0 0 0 18.2272 24.7808z" fill="#FF0000" p-id="16648"></path><path d="M367.6672 618.9056l238.848-128a14.9504 14.9504 0 0 0 3.6864-2.7136 15.36 15.36 0 0 0-18.3808-24.7296l-238.8992 128a17.664 17.664 0 0 0-3.4816 2.6112 15.8208 15.8208 0 0 0-2.8672 18.4832 15.616 15.616 0 0 0 21.0944 6.3488zM313.7024 564.9408l238.848-128a17.2032 17.2032 0 0 0 3.6864-2.7136A15.36 15.36 0 0 0 537.6 409.6l-238.6432 128a15.7696 15.7696 0 0 0-6.3488 21.0944 15.616 15.616 0 0 0 21.0944 6.2464z" fill="#FF0000" p-id="16649"></path><path d="M259.7376 510.976l238.848-128a17.2032 17.2032 0 0 0 3.6864-2.7136 15.36 15.36 0 0 0-18.432-24.7296l-238.848 128a15.7696 15.7696 0 0 0-6.3488 21.0944 15.616 15.616 0 0 0 21.0944 6.3488z" fill="#FF0000" p-id="16650"></path><path d="M407.6544 289.0752L227.584 469.1456a24.6784 24.6784 0 0 0 0 34.8672l20.224 20.48 215.04-215.04-20.224-20.224a24.6784 24.6784 0 0 0-34.9696-0.1536zM699.6992 761.2416a63.232 63.232 0 1 1 0-89.3952 63.232 63.232 0 0 1 0 89.3952z m-60.1088-60.16a21.8624 21.8624 0 1 0 30.72 0 21.9136 21.9136 0 0 0-30.72 0zM519.39328 772.64896l29.25568-29.25568 28.34432 28.34944-29.25056 29.25056zM681.95328 610.13504l29.25568-29.25568 28.34432 28.34944-29.25056 29.25056z" fill="#FF0000" p-id="16651"></path></svg>