<?xml version="1.0" standalone="no"?><!DOCTYPE svg PUBLIC "-//W3C//DTD SVG 1.1//EN" "http://www.w3.org/Graphics/SVG/1.1/DTD/svg11.dtd"><svg t="1710410029599" class="icon" viewBox="0 0 1024 1024" version="1.1" xmlns="http://www.w3.org/2000/svg" p-id="53426" xmlns:xlink="http://www.w3.org/1999/xlink" width="64" height="64"><path d="M451.584 479.268571L345.6 373.065143l-104.594286 104.667428c53.357714 46.482286 149.138286 47.433143 210.578286 1.536m-258.669714-49.737142c35.474286-35.584 71.204571-71.277714 108.580571-108.617143-16.457143-15.872-34.925714-33.499429-53.211428-51.309715-18.029714-17.627429-35.876571-35.437714-54.016-53.321142-48.347429 64-47.067429 160.548571-1.353143 213.248m304.347428 4.790857c50.066286-60.489143 50.761143-156.525714 4.278857-215.113143l-111.177142 110.153143 106.898285 104.96m-42.496-262.692572c-63.926857-48.932571-160.841143-47.981714-214.674285-0.292571l107.483428 107.410286 107.154286-107.117715m-281.161143 19.053715L128.292571 150.710857l43.739429-44.763428 36.022857 47.689142c108.178286-61.805714 157.696-62.061714 273.92-3.072 11.812571-14.262857 24.32-29.513143 38.509714-46.774857l42.678858 48.493715L519.314286 189.622857c60.452571 92.013714 59.538286 180.114286-0.402286 269.531429 15.067429 13.348571 30.281143 26.953143 47.469714 42.276571l-45.787428 39.387429-39.424-43.739429c-90.733714 59.026286-177.737143 59.611429-267.849143 0.292572-13.604571 16.018286-27.648 32.548571-41.801143 49.115428l-43.666286-44.178286 47.140572-42.642285c-60.050286-90.441143-60.745143-177.334857-1.462857-268.982857zM497.005714 772.754286c-38.875429-13.165714-73.142857-24.795429-107.483428-36.315429-28.525714-9.581714-38.4-6.582857-56.064 17.554286-31.890286 43.593143-63.378286 87.405714-95.634286 130.742857-6.363429 8.557714-14.262857 17.298286-23.405714 22.198857a43.264 43.264 0 0 1-64.073143-40.045714c0.402286-10.386286 3.657143-22.308571 9.581714-30.610286 47.542857-66.56 95.085714-133.010286 144.896-197.741714 8.813714-11.446857 27.867429-16.274286 43.190857-20.918857 8.192-2.56 18.468571 2.377143 27.830857 3.072 57.307429 4.169143 90.002286 34.157714 100.059429 91.062857 3.401143 19.090286 12.653714 37.12 21.101714 61.001143z m116.626286-15.469715c-18.761143-53.467429-37.412571-105.691429-55.113143-158.171428-2.194286-6.509714-1.828571-16.201143 1.572572-21.942857 17.298286-29.622857 35.145143-58.953143 54.381714-87.259429 20.443429-29.988571 60.854857-37.376 91.428571-18.468571 30.427429 18.834286 43.300571 58.989714 25.856 89.929143-36.571429 64.804571-74.788571 128.658286-112.420571 192.841142-0.585143 1.024-2.413714 1.353143-5.705143 3.072z m2.450286-402.358857a74.130286 74.130286 0 0 1 72.996571-74.459428 74.605714 74.605714 0 0 1 75.117714 74.825143 74.898286 74.898286 0 0 1-74.386285 73.472 74.349714 74.349714 0 0 1-73.728-73.874286z m-138.24 273.481143l41.874285-22.564571 109.641143 302.628571c-2.377143 1.572571-2.925714 2.194286-3.474285 2.194286-42.678857 4.278857-42.642286 4.242286-57.270858-35.474286-29.878857-81.371429-59.830857-162.742857-90.770285-246.784zM886.564571 380.342857c0 18.249143 1.097143 31.378286-0.475428 44.178286a25.6 25.6 0 0 1-10.349714 16.822857c-32.292571 19.858286-65.206857 38.656-99.072 58.514286l-21.321143-41.435429 131.218285-78.08z" fill="#FFBF00" p-id="53427"></path></svg>