<?xml version="1.0" standalone="no"?><!DOCTYPE svg PUBLIC "-//W3C//DTD SVG 1.1//EN" "http://www.w3.org/Graphics/SVG/1.1/DTD/svg11.dtd"><svg t="1704420234055" class="icon" viewBox="0 0 1024 1024" version="1.1" xmlns="http://www.w3.org/2000/svg" p-id="43707" xmlns:xlink="http://www.w3.org/1999/xlink" width="64" height="64"><path d="M315.172571 377.782857l-95.268571 95.122286c56.100571 40.996571 141.568 40.411429 188.525714-1.974857l-93.257143-93.147429M174.592 236.690286c-43.483429 51.712-42.057143 149.796571 1.170286 190.208 31.963429-31.890286 63.890286-63.634286 93.769143-93.513143L174.592 236.690286m275.492571 193.353143c45.568-48.859429 46.262857-147.017143 2.633143-193.024L354.742857 335.104c30.793143 30.72 63.122286 62.829714 95.378286 94.939429M409.965714 193.462857c-47.506286-43.52-148.260571-43.593143-193.060571 1.462857l95.707428 95.597715 97.353143-97.097143m-253.952 18.834285L111.798857 174.665143 156.891429 134.875429l32 42.788571c83.894857-55.734857 163.145143-56.685714 246.308571-2.267429l34.889143-44.873142c16.201143 17.664 27.465143 29.988571 41.179428 44.836571l-41.252571 34.486857c54.491429 82.797714 54.345143 162.779429-1.353143 245.686857 14.482286 11.556571 29.184 23.405714 44.032 35.218286l-41.435428 42.057143-36.425143-43.958857c-81.517714 52.882286-160.256 53.284571-241.737143-0.109715l-36.717714 43.666286-40.301715-40.192 42.422857-36.937143c-54.454857-81.846857-55.588571-161.243429-2.450285-243.053714z m569.014857 477.403429h-58.514285c-13.714286-48.64 25.965714-109.494857 79.981714-123.611429 47.469714-12.434286 95.305143 3.218286 123.757714 40.448 29.44 38.509714 33.28 92.233143 6.070857 133.558858-13.897143 21.101714-32.109714 39.643429-50.102857 57.6-20.553143 20.48-43.044571 39.058286-69.522285 62.72h136.192v59.245714h-225.28c-4.278857-32.182857-5.485714-60.781714 25.526857-85.065143 37.266286-29.184 70.656-63.524571 104.228571-97.097143a130.925714 130.925714 0 0 0 29.257143-42.825143c12.8-31.963429-4.059429-63.378286-34.852571-70.802285-30.281143-7.314286-59.172571 13.458286-64.621715 46.628571-0.950857 5.668571-1.28 11.410286-2.121143 19.2z m-275.931428 45.275429c-37.046857-12.434286-68.937143-22.637714-100.425143-33.938286-19.456-6.985143-33.426286-2.084571-45.348571 14.628571-28.781714 40.448-58.185143 80.457143-87.625143 120.466286-18.541714 25.197714-43.410286 31.232-63.817143 16.054857-18.907429-14.043429-21.028571-40.448-3.620572-64.658286 40.96-56.868571 82.614857-113.261714 123.794286-169.984 13.421714-18.505143 31.488-25.088 53.540572-22.235428 5.046857 0.621714 9.984 2.450286 15.030857 2.889143 50.249143 4.132571 80.201143 29.476571 88.722285 80.566857 2.925714 17.554286 11.776 34.121143 19.748572 56.210286z m106.203428-10.020572c-18.724571-53.028571-35.913143-100.937143-52.187428-149.101714-1.755429-5.229714 0.256-13.092571 3.218286-18.102857 15.286857-25.709714 30.793143-51.346286 47.469714-76.141715 18.358857-27.355429 53.248-34.742857 81.371428-18.724571 28.306286 16.091429 41.033143 53.138286 25.088 81.554286-33.170286 59.099429-68.022857 117.321143-104.96 180.516571z m66.998858-432.603428a66.340571 66.340571 0 1 1-0.585143 132.754285 66.304 66.304 0 0 1-65.792-65.609143 66.194286 66.194286 0 0 1 66.377143-67.145142zM431.542857 604.891429l37.741714-20.333715 98.816 272.64c-41.325714 6.070857-41.325714 6.070857-54.710857-30.281143l-81.846857-221.988571z m249.673143-152.722286c35.181714-20.955429 68.864-41.106286 102.582857-61.147429 3.657143-2.157714 7.68-3.84 11.556572-5.851428 11.008 32.621714 6.948571 44.8-19.858286 60.452571l-74.788572 43.666286-19.492571-37.12z" fill="#ff0000" p-id="43708"></path></svg>