<?xml version="1.0" standalone="no"?><!DOCTYPE svg PUBLIC "-//W3C//DTD SVG 1.1//EN" "http://www.w3.org/Graphics/SVG/1.1/DTD/svg11.dtd"><svg t="1706514968722" class="icon" viewBox="0 0 1024 1024" version="1.1" xmlns="http://www.w3.org/2000/svg" p-id="34341" xmlns:xlink="http://www.w3.org/1999/xlink" width="64" height="64"><path d="M510.829714 950.857143C266.788571 950.089143 72.338286 753.956571 73.142857 509.330286 73.910857 266.496 271.542857 71.972571 516.352 73.142857c240.384 1.133714 435.456 198.948571 434.468571 440.612572A437.869714 437.869714 0 0 1 510.866286 950.857143z m-0.036571-47.433143c213.504 1.097143 391.058286-173.933714 391.972571-386.304 0.950857-216.978286-171.702857-394.971429-384.182857-396.068571C298.24 119.954286 121.856 292.681143 120.978286 510.390857c-0.841143 216.064 173.641143 392.045714 389.814857 393.033143z m346.112-392.374857c-15.213714 17.481143-36.754286 26.660571-56.32 38.180571-29.842286 17.408-29.513143 16.566857-12.617143 47.579429 23.588571 43.300571 17.042286 36.717714-20.845714 40.301714-34.596571 3.218286-35.510857 3.108571-47.798857-29.659428-5.302857-14.189714-10.971429-17.371429-26.697143-15.469715a1213.988571 1213.988571 0 0 1-266.313143 1.682286c-10.605714-1.097143-17.042286-1.828571-19.821714 11.776-7.058286 34.523429-7.862857 34.377143-44.726858 31.707429-34.742857-2.56-36.425143-5.632-19.565714-36.425143 17.078857-31.085714 16.822857-30.427429-15.762286-41.837715-52.845714-18.468571-101.558857-44.617143-142.336-83.456-27.648-26.258286-23.149714-43.885714 13.531429-56.027428 38.107429-12.544 73.362286-3.986286 106.203429 17.334857 15.981714 10.386286 30.354286 22.820571 43.264 36.754286 11.885714 12.836571 22.016 10.971429 32.658285-1.462857 118.052571-137.984 309.028571-117.723429 393.984 42.166857 8.155429 15.286857 16.896 17.664 31.451429 11.044571 15.652571-7.204571 31.817143-13.348571 47.725714-19.894857l4.022857 5.705143z" fill="#FFBF00" p-id="34342"></path></svg>