<?xml version="1.0" standalone="no"?><!DOCTYPE svg PUBLIC "-//W3C//DTD SVG 1.1//EN" "http://www.w3.org/Graphics/SVG/1.1/DTD/svg11.dtd"><svg t="1704254981183" class="icon" viewBox="0 0 1537 1024" version="1.1" xmlns="http://www.w3.org/2000/svg" p-id="25446" width="1200.78125" height="800" xmlns:xlink="http://www.w3.org/1999/xlink"><path d="M961.887522 364.452299c3.224836-89.47009 2.873313-87.483224 2.842747-87.04 0.168119-1.818746 6.633075-75.944119-5.639642-146.783523-12.425552-71.741134-93.199284-91.502806-93.199284-91.502806l-4.157134-0.152836-85.068418-3.240119v0.443224l-84.243104 3.194268-4.157135 0.152836s-80.743164 19.761672-93.184 91.487523c-12.272716 70.839403-5.823045 144.98006-5.654925 146.783522-0.030567-0.42794-0.38209-2.43009 2.842746 87.009433 3.392955 94.345552-5.960597 327.022806-4.676776 355.282149 1.268537 28.228776-2.109134 88.109851 3.530507 103.913075s24.851104 92.633791 24.851105 92.633791 31.086806 59.453134 161.532179 50.573373v-0.366806c129.711761 8.57409 160.676299-50.60394 160.676299-50.60394s19.211463-76.8 24.851104-92.633791c5.639642-15.803224 2.26197-75.684299 3.545791-103.913075 1.268537-28.24406-8.069731-260.936597-4.69206-355.236298z" fill="#AFB4AF" p-id="25447"></path><path d="M883.635582 283.158925c-30.429612-15.818507-106.985075-16.964776-106.985075-16.964776v-0.106985s-76.570746 1.100418-106.985074 16.918926-41.60191 23.33803-39.50806 33.883701c2.109134 10.545672 24.820537 115.605015 24.820537 118.218508 0 2.64406 2.139701 7.152716 13.984478 3.775044s107.688119-7.519522 107.688119-7.519522v0.137552s95.82806 4.141851 107.68812 7.504239c11.844776 3.408239 13.969194-1.100418 13.969194-3.729194 0-2.64406 22.726687-107.703403 24.835821-118.233791 2.093851-10.530388-9.109015-18.065194-39.50806-33.883702z" fill="#121215" p-id="25448"></path><path d="M937.800597 334.374209s-0.366806 120.847284 0 156.610866c0.366806 35.794149-0.366806 83.998567-3.010866 116.751283-2.628776 32.752716-8.650507 179.964179-8.650507 179.964179v3.010866s-18.829373-51.215284-22.604418-90.75391c-8.283701-38.774448-4.508657-134.419104 0-192.771821 1.879881-57.955343 30.50603-162.647881 34.265791-172.811463z" fill="#101114" p-id="25449"></path><path d="M890.45206 750.332179c-2.170269-13.556537-4.065433-9.59809-4.600359-10.729075-0.534925-1.115701-14.183164 2.537075-19.731104 3.958448-44.597493 7.916896-89.47009 5.945313-89.47009 5.945314v-0.152836s-44.887881 1.986866-89.470089-5.93003c-5.54794-1.40609-19.196179-5.058866-19.731105-3.958448-0.550209 1.130985-2.445373-2.812179-4.600358 10.729075-2.185552 13.571821-13.52597 95.44597-12.71594 96.317134 0.825313 0.840597 27.846687 16.918925 75.699582 24.530149 10.545672 0.504358 50.81791 2.414806 50.81791 2.261971v0.152835c0 0.137552 40.256955-1.757612 50.817911-2.26197 47.852896-7.641791 74.874269-23.704836 75.684298-24.560716 0.825313-0.840597-10.530388-82.745313-12.700656-96.301851z" fill="#131417" p-id="25450"></path><path d="M934.545194 365.017791l11.997612 6.892896v11.584955h-11.997612z" fill="#0D0E13" p-id="25451"></path><path d="M857.179701 46.599642a12.838209 12.838209 0 0 0-3.377671-1.665911c-5.318687-1.543642-3.087284-1.054567 3.377671 1.665911zM941.315821 132.126567c-8.329552-50.114866-64.93994-77.487761-84.13612-85.526925 19.272597 13.128597 32.966687 87.101134 43.298389 134.098149 10.927761 49.702209 16.98006 129.803463 16.980059 129.803463s23.307463 4.233552 34.219941 67.140776c8.298985 39.523343 0.779463-178.481672-10.362269-245.515463zM700.064478 45.346388a12.410269 12.410269 0 0 0-3.392956 1.650627c6.464955-2.705194 8.711642-3.209552 3.392956-1.650627zM612.550687 132.554507c-11.141731 67.018507-18.676537 285.008239-10.392836 245.484896 10.927761-62.876657 34.21994-67.110209 34.21994-67.110209s6.067582-80.116537 16.98006-129.818746c10.331701-46.981731 24.025791-120.954269 43.313671-134.098149-19.180896 8.023881-75.806567 35.41206-84.120835 85.542208z" fill="#C2C6C1" p-id="25452"></path><path d="M899.912597 565.079881l36.695881-27.678568v32.768l-36.695881 23.139344zM652.92991 824.992478c-1.589493 12.333851-2.613493 21.228896-2.338388 21.519283 0.81003 0.840597 27.831403 16.918925 75.684299 24.530149 10.560955 0.504358 50.81791 2.414806 50.81791 2.261971v0.152835c0 0.137552 40.272239-1.757612 50.817911-2.26197 47.852896-7.641791 74.889552-23.704836 75.699582-24.560716 0.412657-0.443224-2.506507-23.231045-5.700776-46.737194l-244.980538 25.095642z" fill="#202226" p-id="25453"></path><path d="M648.467104 404.418866l234.526568-55.555821 35.534328-11.340418c2.200836-10.331701 3.820896-18.00406 4.325254-20.48 2.093851-10.530388-9.093731-18.080478-39.50806-33.883702-30.414328-15.818507-106.985075-16.964776-106.985075-16.964776v-0.106985s-76.570746 1.100418-106.985074 16.918926-41.617194 23.33803-39.50806 33.883701c1.390806 6.95403 11.707224 54.852776 18.600119 87.529075z" fill="#212428" p-id="25454"></path><path d="M616.341015 334.771582s0.38209 120.862567 0 156.626149c-0.366806 35.778866 0.38209 83.968 3.010866 116.736s8.650507 179.979463 8.650507 179.979463v3.010866s18.829373-51.230567 22.604418-90.753911c8.283701-38.805015 4.52394-134.419104 0-192.787104-1.879881-57.970627-30.50603-162.647881-34.265791-172.811463z" fill="#101114" p-id="25455"></path><path d="M961.887522 364.712119c3.224836-89.485373 2.873313-87.46794 2.842747-87.024716 0.168119-1.83403 6.633075-75.959403-5.639642-146.783522-12.425552-71.725851-93.199284-91.487522-93.199284-91.487523l-4.157134-0.168119-85.068418-3.24012v0.443224l-84.243104 3.194269-4.157135 0.152836s-80.743164 19.776955-93.184 91.502806c-12.272716 70.824119-5.823045 144.964776-5.654925 146.783522-0.030567-0.443224-0.38209-2.445373 2.842746 87.009433 3.392955 94.330269-5.960597 327.007522-4.676776 355.251582 1.268537 28.24406-2.109134 88.125134 3.530507 103.928358 5.639642 15.818507 24.851104 92.649075 24.851105 92.649075s31.086806 59.437851 161.532179 50.558089v-0.351522c129.711761 8.558806 160.676299-50.619224 160.676299-50.619224s19.211463-76.830567 24.851104-92.633791c5.639642-15.818507 2.26197-75.669015 3.545791-103.913075 1.268537-28.228776-8.069731-260.936597-4.69206-355.251582z m-5.639641 460.647165c-15.818507 92.97003-38.774448 108.039642-64.756538 121.993552-25.98209 13.923343-114.840836 15.803224-114.840836 15.803224v0.382089c-9.078448-0.244537-89.485373-2.659343-113.984955-15.78794-25.98209-13.938627-48.953313-28.992955-64.771821-121.993552s6.205134-130.659343 3.392956-210.30209-2.521791-284.687284-1.696478-307.826627c0.840597-23.139343-5.624358-183.555821 16.674388-206.67988 22.298746-23.16991 54.05803-54.91391 72.856836-56.060179a737.616239 737.616239 0 0 1 33.746149-1.008717v-0.534925h54.65409v-0.412657h53.798209v0.565493c9.567522 0.076418 23.017075 0.336239 33.746149 0.993432 18.783522 1.146269 50.55809 32.905552 72.856836 56.044896 22.298746 23.16991 15.849075 183.586388 16.674388 206.710448 0.840597 23.108776 1.115701 228.183881-1.696478 307.811343-2.85803 79.642746 19.165612 117.301493 3.347105 210.30209z" fill="#A4A4A3" p-id="25456"></path><path d="M620.482866 892.958567s14.687522 31.270209 38.025552 39.553911 40.287522 12.608955 40.287522 12.608955-30.12394-0.366806-45.743761-9.231284-33.501612-22.772537-32.569313-42.931582z" fill="#D67524" p-id="25457"></path><path d="M689.090866 44.903164s-32.569313 15.818507-42.350806 26.547582-24.285612 29.176358-24.652418 31.254926 0 9.032597 0 9.032597 58.15403-63.075343 67.003224-66.835105z" fill="#D7B731" p-id="25458"></path><path d="M776.925612 35.992836h0.122269l0.030567-0.259821zM851.769313 47.31797c-0.290388-3.255403-16.81194-8.054448-20.892656-8.895045-3.973731-0.825313-51.016597-2.323104-53.813493-2.414806v0.412657c-3.072 0.091701-49.824478 1.589493-53.782925 2.399523-4.111284 0.855881-20.617552 5.654925-20.892657 8.879761-0.290388 3.255403 2.827463 4.799045 6.755343 3.133134 3.973731-1.696478 9.475821-6.510806 13.69409-7.488955 4.233552-0.978149 54.363701-2.68991 54.363701-2.689911v-0.397373c3.912597 0.122269 50.023164 1.742328 54.088597 2.674627 4.233552 0.978149 9.750925 5.792478 13.69409 7.488955 3.958448 1.696478 7.061015 0.137552 6.78591-3.102567z" fill="#1D2021" p-id="25459"></path><path d="M605.902328 372.323343s-32.768 12.991045-34.724298 25.98209-1.681194 14.397134 0 14.397134c1.696478 0 36.43606-18.355582 36.43606-18.355582v-22.023642h-1.711762z" fill="#C2C6C1" p-id="25460"></path><path d="M571.453134 415.667582l-0.275104-2.949731 36.420776-18.355582v2.537074z" fill="#0D0E13" p-id="25461"></path><path d="M619.611701 365.399881l-12.012895 6.923462v11.584956h12.012895z" fill="#0D0E13" p-id="25462"></path><path d="M654.229015 565.492537l-36.711164-27.69385v32.768l36.711164 23.16991z" fill="#202226" p-id="25463"></path><path d="M662.558567 750.332179c2.170269-13.556537 4.050149-9.59809 4.585075-10.729075 0.550209-1.115701 14.213731 2.537075 19.746388 3.958448 44.612776 7.916896 89.47009 5.945313 89.470089 5.945314v-0.152836s44.887881 1.986866 89.47009-5.93003c5.532657-1.40609 19.196179-5.058866 19.746388-3.958448 0.534925 1.130985 2.414806-2.812179 4.600358 10.729075 2.154985 13.571821 13.495403 95.44597 12.685373 96.317134-0.81003 0.840597-27.831403 16.918925-75.684298 24.530149-10.545672 0.504358-50.81791 2.414806-50.817911 2.261971v0.152835c0 0.137552-40.272239-1.757612-50.81791-2.26197-47.852896-7.641791-74.874269-23.704836-75.699582-24.560716-0.81003-0.840597 10.545672-82.745313 12.71594-96.301851zM670.995104 283.158925c30.414328-15.818507 106.985075-16.934209 106.985075-16.934209v-0.137552s76.570746 1.100418 106.985075 16.918926 41.617194 23.33803 39.508059 33.883701c-2.109134 10.545672-24.820537 115.605015-24.820537 118.218508 0 2.674627-2.139701 7.152716-13.984477 3.775044s-107.688119-7.519522-107.68812-7.519522v0.137552s-95.82806 4.141851-107.672836 7.504239c-11.844776 3.408239-13.984478-1.100418-13.984477-3.729194 0-2.64406-22.726687-107.688119-24.820538-118.233791-2.109134-10.530388 9.093731-18.065194 39.492776-33.883702z" fill="#343C3E" p-id="25464"></path><path d="M657.683104 290.38806c-20.739821 11.401552-28.442746 18.156896-26.66985 27.067224 2.109134 10.545672 24.820537 115.589731 24.820537 118.218507 0 2.64406 2.139701 7.168 13.984478 3.775045 2.68991-0.779463 9.689791-1.574209 18.875224-2.368955-14.320716-35.106388-26.272478-112.838687-31.010389-146.691821zM897.268537 290.17409c20.755104 11.401552 28.45803 18.172179 26.700418 27.067223-2.109134 10.530388-24.835821 115.589731-24.835821 118.233791 0 2.628776-2.139701 7.137433-13.984477 3.759762-2.674627-0.779463-9.674507-1.589493-18.875224-2.353672 14.305433-35.121672 26.272478-112.838687 30.995104-146.707104z" fill="#2E3436" p-id="25465"></path><path d="M917.947224 303.70006c-5.991164-5.670209-17.010627-11.967045-34.158806-20.877373-30.414328-15.803224-106.985075-16.934209-106.985075-16.934209v0.122268h-0.21397v0.091702c-6.128716 0.106985-77.44191 1.818746-106.541851 16.918925-17.148179 8.910328-28.182925 15.191881-34.174089 20.86209l27.036657 21.228895s54.975045-8.681075 114.321194-9.674507v-0.21397c59.025194 1.054567 113.526448 6.78591 113.526447 6.78591l27.189493-18.309731z" fill="#202226" p-id="25466"></path><path d="M865.035463 44.490507s32.584597 15.803224 42.366089 26.547583c9.781493 10.729075 24.270328 29.176358 24.652418 31.239641 0.366806 2.078567 0 9.032597 0 9.032597s-58.169313-63.06006-67.018507-66.819821z" fill="#D7B731" p-id="25467"></path><path d="M823.326567 54.776358h-102.415283s-21.07606 6.037015-27.861971 82.837015c-6.770627 76.815284-18.81409 135.565373 28.610866 121.993552 47.440239-13.556537 73.055522-1.497791 94.146866-3.010865 21.07606-1.513075 53.46197 21.824955 41.403224-82.821732-12.058746-104.677254-13.556537-110.698985-33.883702-118.99797z" fill="#C2C6C1" p-id="25468"></path><path d="M717.701731 251.873433l17.316299-173.560358-12.792358 61.378865zM836.424597 251.491343L819.108299 77.915701l12.807641 61.363583z" fill="#AFB4AF" p-id="25469"></path><path d="M933.643463 892.530627s-14.672239 31.285493-38.025553 39.55391c-23.33803 8.298985-40.287522 12.624239-40.287522 12.624239s30.139224-0.38209 45.743761-9.231283c15.650388-8.83391 33.532179-22.757254 32.569314-42.946866z" fill="#D67524" p-id="25470"></path><path d="M667.143642 740.000478c-0.534925 1.130985-2.414806-2.812179-4.585075 10.744358s-13.52597 95.430687-12.71594 96.301851c0.397373 0.366806 6.908179 4.355821 18.890507 9.216l15.558687-112.960956c-6.342687-1.635343-16.674388-4.264119-17.148179-3.301253zM890.192239 750.744836c-2.185552-13.556537-4.065433-9.613373-4.600358-10.744358-0.473791-0.962866-10.805493 1.66591-17.163463 3.301253l15.558686 112.960956c11.997612-4.844896 18.508418-8.83391 18.890508-9.216 0.794746-0.871164-10.545672-82.745313-12.685373-96.301851z" fill="#2E3436" p-id="25471"></path><path d="M948.224 371.910687s32.768 13.021612 34.724299 25.997373c1.986866 12.991045 1.696478 14.381851 0 14.38185-1.681194 0-36.420776-18.355582-36.420777-18.355582v-22.023641h1.696478z" fill="#C2C6C1" p-id="25472"></path><path d="M982.688478 415.270209l0.275104-2.965015-36.420776-18.370866v2.537075z" fill="#0D0E13" p-id="25473"></path><path d="M827.712955 866.930627h-107.30603s-58.734806-7.916896-50.81791 16.934209-7.916896 55.357134 73.422328 55.357134h62.127761c81.32394 0 65.505433-30.50603 73.422329-55.357134s-50.848478-16.934209-50.848478-16.934209z" fill="#C2C6C1" p-id="25474"></path><path d="M780.456119 853.985433c-49.74806 0-94.513672-11.034746-125.524059-28.610866l-2.00215-0.382089c-3.194269 23.490866-2.842746 21.610985-2.399522 22.054209 0.81003 0.840597 27.831403 16.918925 75.684299 24.545432 10.560955 0.489075 50.833194 2.399522 50.833194 2.261971v-0.137553c0 0.137552 40.256955-1.788179 50.802626-2.26197 47.852896-7.611224 74.874269-23.704836 75.699583-24.545433 0.244537-0.290388-0.626627-8.039164-2.048-19.089194-30.781134 16.139463-73.636299 26.165493-121.045971 26.165493z" fill="#202226" p-id="25475"></path><path d="M850.882866 516.47809c11.890627-36.894567-7.916896-49.885612-30.139224-53.798209-17.560836-3.072-61.210746-2.154985-75.470329-1.19212-25.645851 1.727045-53.88991 12.563104-40.211104 54.990329 23.276896 72.184358-1.253254 170.748179 0 182.333134 0.932299 8.543522 13.388418 22.894806 38.453492 26.440597 8.940896 1.283821 65.612418 1.192119 75.882986-1.314388 20.403582-4.997731 30.658866-17.453851 31.484179-25.141493 1.23797-11.569672-23.292179-110.133493 0-182.31785z" fill="#C2C6C1" p-id="25476"></path></svg>