<?xml version="1.0" standalone="no"?><!DOCTYPE svg PUBLIC "-//W3C//DTD SVG 1.1//EN" "http://www.w3.org/Graphics/SVG/1.1/DTD/svg11.dtd"><svg t="1692097239433" class="icon" viewBox="0 0 1024 1024" version="1.1" xmlns="http://www.w3.org/2000/svg" p-id="7836" xmlns:xlink="http://www.w3.org/1999/xlink" width="64" height="64"><path d="M758.930286 677.302857h-0.182857c15.104 8.374857 30.573714 16.054857 45.129142 25.234286 37.595429 23.771429 74.715429 48.201143 115.090286 74.349714l-33.206857 36.790857c-45.604571-29.293714-90.002286-57.782857-137.362286-88.064-6.473143 22.016-9.874286 38.509714-16.128 53.76a9209.965714 9209.965714 0 0 1-75.008 177.590857 27.209143 27.209143 0 0 1-17.152 13.531429c-22.710857 4.571429-45.897143 6.948571-70.034285 10.422857l86.784-210.651428c-86.125714-31.488-166.290286-29.403429-250.660572 0.292571l87.442286 211.017143c-24.685714-3.437714-48.603429-5.668571-71.899429-10.715429-6.765714-1.462857-14.189714-9.910857-17.261714-16.932571-32.036571-72.667429-63.232-145.664-96.292571-222.354286l-128.512 83.163429-33.389715-32.182857 153.490286-162.304 13.860571 109.348571c145.481143-64.402286 287.451429-61.074286 430.336-2.925714l14.957715-49.371429z m-0.073143 0c-6.326857-1.170286-12.946286-1.462857-18.870857-3.657143-125.513143-47.323429-252.342857-49.700571-381.878857-12.141714-9.362286-12.653714-6.582857-23.186286 4.681142-35.035429 93.549714-97.645714 186.624-195.657143 279.808-293.668571 4.900571-5.12 9.545143-10.605714 15.945143-17.773714-10.459429-5.339429-19.968-9.033143-28.16-14.628572-13.275429-9.033143-21.942857-6.509714-32.987428 5.339429-78.701714 84.48-158.244571 168.228571-237.568 252.16-17.408 18.432-34.925714 36.827429-57.490286 54.125714 0.987429-15.36-0.073143-31.232 3.291429-46.08 16.091429-72.009143 33.024-143.798857 50.834285-215.405714 2.084571-8.411429 9.691429-17.92 17.371429-22.052572 33.353143-18.066286 67.803429-34.194286 101.668571-51.309714 19.858286-10.057143 22.857143-34.633143 6.4-49.371428-43.337143-38.765714-51.712-106.057143-19.163428-153.307429 35.145143-50.907429 100.937143-50.468571 135.570285 0.804571 30.976 45.824 24.137143 112.493714-15.286857 148.772572-22.272 20.553143-19.565714 42.203429 7.058286 55.588571l21.394286 10.386286 135.204571-142.884571c12.982857 11.812571 25.234286 22.893714 39.387429 35.84l-122.038857 128.731428c0.621714 2.084571 0.731429 4.388571 1.462857 4.534857 33.645714 8.96 41.142857 35.547429 47.36 65.353143 10.386286 50.029714 22.162286 99.876571 36.096 149.028572 11.593143 40.996571 13.165714 81.846857 8.448 123.611428-0.804571 7.533714 0.804571 15.36 1.316571 23.04z" fill="#FF0000" p-id="7837"></path></svg>