<?xml version="1.0" standalone="no"?><!DOCTYPE svg PUBLIC "-//W3C//DTD SVG 1.1//EN" "http://www.w3.org/Graphics/SVG/1.1/DTD/svg11.dtd"><svg t="1706514375102" class="icon" viewBox="0 0 1024 1024" version="1.1" xmlns="http://www.w3.org/2000/svg" p-id="21680" width="64" height="64" xmlns:xlink="http://www.w3.org/1999/xlink"><path d="M690.102857 293.485714c-10.496-34.706286-19.126857-65.609143-29.586286-95.890285-1.792-5.12-11.337143-10.569143-17.517714-10.861715a4598.893714 4598.893714 0 0 0-155.611428-4.681143 37.997714 37.997714 0 0 0-24.356572 9.984c-30.354286 29.622857-59.611429 60.233143-89.161143 90.697143-3.035429 3.108571-5.010286 7.314286-7.314285 10.752h323.510857z m-188.269714-151.771428c57.856 3.474286 107.410286 6.765714 157.001143 9.325714 20.041143 1.097143 36.278857 8.228571 50.285714 22.857143 29.257143 30.646857 58.989714 60.891429 89.6 90.185143 7.899429 7.606857 19.126857 13.202286 29.805714 16.274285a2028.617143 2028.617143 0 0 0 97.645715 24.905143c11.922286 2.816 16.493714 9.362286 21.321142 20.845715 20.114286 47.725714 13.531429 87.405714-22.125714 126.902857-17.188571 19.017143-36.425143 22.016-56.978286 26.514285-15.36 3.364571-25.088 7.68-29.878857 25.307429-8.338286 30.610286-37.229714 50.139429-69.010285 51.858286-33.060571 1.828571-63.158857-14.738286-75.702858-45.348572-5.851429-14.153143-12.982857-17.664-27.318857-17.554285a27687.862857 27687.862857 0 0 1-306.834285 0c-13.129143 0-20.736 3.218286-27.867429 15.104-16.566857 27.428571-42.861714 39.533714-74.459429 36.205714-30.72-3.254857-51.638857-20.992-65.316571-48.896-4.169143-8.411429-13.824-14.262857-21.467429-20.699429-2.56-2.194286-6.765714-2.523429-10.24-3.620571-62.537143-19.456-62.610286-19.456-88.064-80.201143-1.609143-3.876571-3.949714-8.374857-3.364571-12.178286 2.706286-17.773714 51.602286-66.267429 69.632-69.851428 53.028571-10.386286 106.130286-20.260571 158.939429-31.451429 10.093714-2.157714 20.553143-7.606857 28.269714-14.445714 32.731429-29.147429 65.499429-58.404571 96.329143-89.526857 24.941714-25.161143 51.712-40.484571 79.798857-32.512z m177.444571 724.114285v-95.195428H351.305143v95.451428l-200.082286-140.580571 199.204572-140.068571v96.036571h327.789714V584.411429c68.864 48.384 133.485714 93.732571 200.777143 141.056l-199.716572 140.361142z" fill="#00ff00" p-id="21681"></path></svg>