<?xml version="1.0" standalone="no"?><!DOCTYPE svg PUBLIC "-//W3C//DTD SVG 1.1//EN" "http://www.w3.org/Graphics/SVG/1.1/DTD/svg11.dtd"><svg t="1706521006638" class="icon" viewBox="0 0 1024 1024" version="1.1" xmlns="http://www.w3.org/2000/svg" p-id="101390" xmlns:xlink="http://www.w3.org/1999/xlink" width="64" height="64"><path d="M883.017143 302.994286h-27.172572c-150.601143 0-301.202286 0.292571-451.766857-0.585143a58.148571 58.148571 0 0 1-34.523428-13.238857c-38.034286-32.548571-74.605714-66.925714-114.907429-103.497143h115.346286v63.195428h307.053714v-63.268571h135.277714V249.417143h124.306286v479.561143c-60.854857 11.483429-94.244571-1.389714-129.645714-50.834286h76.032V302.957714z m-179.675429 427.52H112.054857V253.769143c51.309714-18.541714 81.298286 13.824 114.944 48.749714H165.083429v375.222857h25.819428c138.861714 0 277.723429 0.585143 416.548572-0.548571 25.965714-0.219429 46.738286 5.010286 64.036571 24.685714 8.082286 9.142857 18.212571 16.530286 31.853714 28.635429zM162.230857 140.8L927.817143 826.002286l-34.742857 37.156571L129.536 176.201143l32.694857-35.364572z m674.523429 288.804571v45.714286h-55.076572l-2.56 57.051429h-44.873143v-55.661715h-56.466285V430.445714h55.625143v-55.771428h46.628571v54.966857h56.722286z m-619.227429 2.377143h159.232v42.532572H217.526857v-42.532572z" fill="#FF0000" p-id="101391"></path></svg>