<?xml version="1.0" standalone="no"?><!DOCTYPE svg PUBLIC "-//W3C//DTD SVG 1.1//EN" "http://www.w3.org/Graphics/SVG/1.1/DTD/svg11.dtd"><svg t="1688451991352" class="icon" viewBox="0 0 1024 1024" version="1.1" xmlns="http://www.w3.org/2000/svg" p-id="71444" xmlns:xlink="http://www.w3.org/1999/xlink" width="32" height="32"><path d="M311.296 481.499429c21.357714 0 40.923429 0.256 60.489143 0 73.691429-1.170286 147.529143 0.073143 221.037714-4.498286 53.942857-3.291429 101.522286-24.027429 123.611429-79.433143 42.861714-107.373714-20.297143-201.362286-135.131429-201.654857-82.505143-0.182857-165.046857-0.073143-247.588571 0-7.094857 0-14.189714 0.621714-22.418286 0.987428v284.598858z m384.731429 47.250285c77.641143 15.908571 108.434286 68.681143 117.321142 138.057143 5.412571 42.715429 6.948571 85.942857 10.934858 128.841143 4.205714 44.544 12.032 88.173714 41.435428 129.28-40.886857 0-77.787429 0.914286-114.578286-0.804571-6.436571-0.329143-16.310857-10.825143-17.92-18.066286-5.266286-24.100571-7.936-48.822857-10.861714-73.398857-6.253714-52.845714-8.594286-106.422857-18.870857-158.500572-13.824-69.595429-52.406857-98.889143-123.721143-99.803428-84.845714-1.170286-169.618286-0.512-254.427428-0.548572-4.205714 0-8.484571 0.768-14.628572 1.389715v348.16H201.508571V104.886857c4.973714-0.731429 9.142857-1.901714 13.312-1.828571 132.315429 0.146286 264.704-0.621714 396.982858 1.170285 60.708571 0.804571 115.894857 20.224 162.889142 60.891429 98.011429 84.699429 85.174857 312.137143-69.12 357.814857-1.938286 0.585143-3.657143 2.194286-9.508571 5.851429z" fill="#00ff00" p-id="71445"></path></svg>