<?xml version="1.0" standalone="no"?><!DOCTYPE svg PUBLIC "-//W3C//DTD SVG 1.1//EN" "http://www.w3.org/Graphics/SVG/1.1/DTD/svg11.dtd"><svg t="1706518486516" class="icon" viewBox="0 0 1024 1024" version="1.1" xmlns="http://www.w3.org/2000/svg" p-id="42037" xmlns:xlink="http://www.w3.org/1999/xlink" width="64" height="64"><path d="M849.005714 685.129143c27.648-11.922286 50.578286-21.321143 73.142857-31.670857 10.788571-4.937143 19.126857-7.350857 22.308572 8.009143 2.267429 11.044571 15.981714 21.833143-5.632 30.793142-82.944 34.377143-165.229714 70.363429-247.734857 105.764572l-340.114286 145.92c-9.033143 3.913143-18.541714 11.849143-22.930286-5.485714-3.108571-12.288-15.725714-24.978286 7.533715-32.182858 17.188571-5.302857 33.133714-14.482286 52.662857-23.296-23.515429-6.4-42.057143-14.811429-53.979429-32.841142-4.973714-7.497143-10.898286-4.827429-17.371428-3.693715-29.513143 5.083429-45.714286-3.949714-56.502858-31.341714-3.181714-8.118857-5.997714-16.457143-8.96-24.685714-11.702857-32.621714-5.851429-53.650286 23.04-74.130286a3609.453714 3609.453714 0 0 1 101.522286-68.864c10.715429-7.058286 19.017143-15.177143 24.393143-27.062857 8.192-17.92 18.907429-34.742857 26.404571-52.845714 19.968-48.274286 54.601143-78.628571 103.497143-97.133715 66.852571-25.344 132.425143-54.162286 198.070857-82.578285 23.588571-10.24 42.459429-4.790857 63.707429 7.314285 63.268571 36.205714 80.859429 100.388571 102.180571 162.011429 6.656 19.382857-1.097143 38.4-19.712 49.152-10.788571 6.217143-13.238857 12.580571-11.190857 24.466286 3.035429 17.773714-4.388571 34.084571-14.336 54.381714zM394.24 849.042286c29.696 0.073143 49.298286-28.745143 38.838857-61.403429-5.961143-18.358857-1.097143-24.758857 15.652572-31.780571a13708.288 13708.288 0 0 0 265.508571-114.102857c18.029714-8.009143 27.428571-8.155429 36.644571 11.556571 11.337143 24.356571 33.133714 31.890286 54.125715 23.186286 21.211429-8.777143 32.402286-29.769143 24.283428-54.345143-6.509714-19.675429-1.828571-29.513143 16.530286-36.681143 9.837714-3.84 22.454857-9.216 16.969143-23.552-20.224-52.662857-34.267429-109.238857-89.380572-140.068571-11.958857-6.729143-21.833143-8.557714-34.742857-3.035429a20265.728 20265.728 0 0 1-216.100571 90.550857c-26.331429 10.861714-45.019429 29.147429-57.746286 54.162286-13.531429 26.697143-27.245714 53.284571-40.338286 80.201143a62.171429 62.171429 0 0 1-22.784 25.6 3527.094857 3527.094857 0 0 0-108.909714 73.654857c-23.552 16.749714-17.078857 21.321143-1.828571 61.732571 7.314286 19.382857 22.235429 9.581714 33.28 5.229715 15.213714-5.961143 24.137143-3.474286 30.610285 12.068571 7.131429 16.859429 20.992 25.673143 39.387429 27.062857zM783.908571 713.142857c-25.6-5.778286-42.678857-14.921143-54.345142-32-4.973714-7.277714-9.947429-5.924571-16.749715-2.998857-78.226286 33.828571-156.635429 67.401143-234.934857 101.083429-5.12 2.194286-12.434286 3.328-10.788571 11.300571 4.534857 22.162286-2.450286 42.203429-14.262857 65.060571l331.081142-142.445714zM263.497143 246.089143c-0.109714-91.574857 61.074286-173.019429 148.48-197.668572a206.006857 206.006857 0 0 1 233.325714 92.050286c46.957714 77.677714 36.022857 179.2-25.746286 246.125714-11.227429 12.214857-19.638857 15.506286-30.537142 0.548572-4.644571-6.436571-10.971429-11.666286-16.896-17.152-7.241143-6.802286-13.897143-12.105143-3.072-22.710857 9.398857-9.179429 15.579429-8.521143 22.528 1.097143 8.630857 11.958857 14.921143 9.764571 22.308571-1.865143 13.458286-21.211429 23.515429-43.556571 28.306286-68.388572 2.230857-11.483429 1.243429-18.578286-12.982857-16.932571-10.678857 1.243429-17.846857-0.512-17.883429-14.665143 0-14.153143 6.985143-15.981714 17.737143-14.665143 14.08 1.755429 15.506286-5.083429 13.275428-16.822857-4.900571-25.563429-15.140571-48.566857-29.257142-70.290286-7.460571-11.373714-13.494857-11.300571-21.211429-1.243428-6.875429 8.923429-12.8 11.337143-22.564571 1.645714-10.349714-10.276571-5.595429-16.164571 2.633142-22.491429 11.044571-8.557714 8.045714-14.262857-2.267428-21.028571a193.316571 193.316571 0 0 0-68.242286-28.598857c-12.141714-2.486857-20.406857-2.413714-18.066286 13.568 1.645714 11.154286-1.170286 17.371429-14.884571 17.371428-14.409143 0-15.542857-7.68-14.372571-18.102857 1.609143-14.116571-5.193143-15.250286-16.822858-13.019428a186.697143 186.697143 0 0 0-70.180571 29.549714c-9.106286 6.144-12.178286 11.081143-2.304 19.529143 7.058286 6.034286 17.664 11.410286 4.754286 23.771428-11.190857 10.678857-17.408 6.107429-24.466286-2.889142-7.277714-9.289143-12.763429-9.033143-19.748571 1.170285a199.789714 199.789714 0 0 0-29.952 70.107429c-2.852571 12.946286 0.036571 19.785143 14.811428 17.810286 10.093714-1.353143 16.164571 0.950857 16.237714 13.677714 0.073143 13.019429-4.973714 17.298286-16.786285 15.652571-15.725714-2.194286-16.64 6.290286-13.970286 18.322286 5.339429 23.808 14.372571 45.860571 27.867429 66.267429 6.948571 10.496 12.8 15.908571 22.308571 2.889142 6.436571-8.850286 12.434286-11.885714 22.308571-1.938285 9.581714 9.654857 6.765714 14.372571-1.170285 22.564571-35.401143 36.315429-37.997714 36.315429-66.998857-5.814857a204.214857 204.214857 0 0 1-36.534858-117.430857zM126.939429 282.806857c36.534857 14.884571 69.229714 28.269714 101.997714 41.472 7.606857 3.072 6.875429 7.753143 4.278857 13.860572-13.531429 32.182857-26.916571 64.365714-40.704 97.536-2.450286-2.779429-4.388571-4.169143-5.266286-5.997715-17.225143-34.56-17.225143-34.56-52.516571-19.968-50.102857 20.736-49.590857 20.48-70.582857-29.293714-5.668571-13.312-3.693714-18.944 9.837714-23.625143 17.883429-6.144 34.706286-15.433143 52.662857-21.211428 16.457143-5.266286 18.102857-13.348571 10.313143-27.062858-3.766857-6.656-5.668571-14.372571-10.020571-25.709714z m343.04 15.177143c-8.155429 0.292571-17.590857 0.365714-23.04-5.046857-17.92-17.956571-34.962286-9.069714-52.918858-1.024-12.580571 5.668571-26.002286 9.581714-38.436571 15.542857-10.678857 5.12-16.091429 4.205714-21.577143-7.716571-6.436571-14.153143 2.304-16.091429 11.300572-19.602286 10.861714-4.242286 21.540571-8.96 32.475428-13.019429 20.736-7.68 40.118857-12.873143 44.873143-41.837714 4.022857-24.685714 34.962286-36.205714 60.16-29.257143 25.161143 6.948571 41.069714 30.793143 37.668571 56.539429a51.273143 51.273143 0 0 1-50.505142 45.421714z" fill="#FFBF00" p-id="42038"></path></svg>