<?xml version="1.0" standalone="no"?><!DOCTYPE svg PUBLIC "-//W3C//DTD SVG 1.1//EN" "http://www.w3.org/Graphics/SVG/1.1/DTD/svg11.dtd"><svg t="1703571916860" class="icon" viewBox="0 0 1024 1024" version="1.1" xmlns="http://www.w3.org/2000/svg" p-id="57940" width="16" height="16" xmlns:xlink="http://www.w3.org/1999/xlink"><path d="M0 558.933333l137.386667 135.133867-137.386667 141.073067 58.88 57.924266h274.7392l78.472533-77.277866-313.992533-334.097067zM966.997333 236.578133l-249.9584 229.649067 38.468267 38.263467s-32.0512 35.089067-57.6512 38.2976c-25.6 3.1744-208.315733-6.382933-249.924267-19.182934-41.6768-12.731733-105.745067-66.935467-134.587733-76.526933-28.842667-9.557333-115.370667 76.526933-115.370667 76.526933s166.673067 149.947733 192.3072 172.202667c25.634133 22.391467 86.493867 44.7488 96.119467 38.331733 9.591467-6.417067 112.128 41.472 115.370667 57.412267l-19.2512 38.263467 153.8048 134.007466s102.570667-114.858667 115.370666-134.007466c12.834133-19.1488 28.842667-67.003733 19.2512-76.526934-9.6256-9.5232-19.2512-19.1488-19.2512-19.1488l38.468267-57.412266 57.6512 57.412266 76.9024-133.9392L966.997333 236.578133zM318.702933 182.715733v84.616534H0.341333v78.506666l583.0656 0.512z" fill="#ff0000" p-id="57941"></path></svg>