<?xml version="1.0" standalone="no"?><!DOCTYPE svg PUBLIC "-//W3C//DTD SVG 1.1//EN" "http://www.w3.org/Graphics/SVG/1.1/DTD/svg11.dtd"><svg t="1706514993102" class="icon" viewBox="0 0 1024 1024" version="1.1" xmlns="http://www.w3.org/2000/svg" p-id="35379" xmlns:xlink="http://www.w3.org/1999/xlink" width="64" height="64"><path d="M541.366857 432.749714c-37.997714 0-76.032 0.475429-114.029714-0.219428-13.568-0.219429-20.004571 2.852571-18.797714 18.139428 1.389714 18.212571 0.146286 36.571429 0.329142 54.857143 0.109714 11.776-5.156571 17.481143-17.188571 17.225143-16.786286-0.219429-33.645714-0.365714-50.432 0.109714-12.909714 0.365714-19.2-4.937143-18.724571-18.029714 0.146286-3.657143 0.036571-7.314286 0-10.971429-0.329143-27.794286-0.219429-53.942857-14.116572-81.371428-21.540571-42.422857-21.065143-90.697143-13.421714-137.508572 3.072-18.870857-2.230857-23.917714-20.48-23.917714-30.025143 0-37.449143-11.702857-28.598857-39.131428 4.425143-13.787429 14.848-18.541714 26.953143-17.810286 32.694857 1.901714 51.090286-11.702857 60.781714-43.812572 18.176-60.123429 63.085714-83.273143 123.648-84.260571 58.477714-0.987429 116.845714-1.353143 175.36 0.292571 56.978286 1.682286 98.157714 24.685714 117.833143 80.164572 0.256 0.731429 0.694857 1.353143 0.841143 2.048 6.692571 33.755429 26.989714 47.140571 61.403428 46.043428 22.052571-0.731429 29.805714 13.056 29.001143 37.302858-0.694857 21.430857-15.725714 19.894857-29.513143 19.309714-17.92-0.841143-25.856 2.669714-22.089143 24.137143 7.350857 42.203429 10.093714 87.332571-9.472 125.001143-18.102857 34.852571-17.810286 68.973714-18.139428 104.813714-0.146286 13.165714-6.180571 17.956571-18.980572 17.700571-82.249143-1.901714-65.865143 12.690286-66.450285-63.780571-0.146286-20.553143-4.205714-28.013714-26.075429-26.88-36.461714 1.974857-73.069714 0.548571-109.641143 0.548571z m1.572572-201.325714c58.368 0 116.772571-0.365714 175.177142 0.256 15.469714 0.182857 19.090286-3.547429 13.568-18.578286a599.734857 599.734857 0 0 0-31.158857-72.228571c-9.325714-17.737143-22.784-28.269714-42.349714-30.464a1034.971429 1034.971429 0 0 0-231.387429-0.073143c-19.529143 2.194286-33.426286 12.434286-42.532571 30.281143-10.971429 21.467429-21.211429 43.154286-28.745143 66.084571-8.045714 24.722286-8.301714 24.722286 16.64 24.722286h170.788572z m-242.432 346.806857c41.910857 3.803429 83.382857-10.788571 121.307428 16.164572 18.285714 13.019429 39.497143 21.979429 58.953143 33.536 20.406857 12.105143 36.059429 27.428571 33.645714 54.198857-2.194286 25.673143-21.686857 34.852571-41.179428 43.410285-61.549714 27.136-126.061714 46.153143-189.366857 68.498286-17.408 6.144-39.460571 8.521143-42.715429 31.890286-3.181714 23.222857 15.104 34.706286 31.085714 46.445714 20.48 15.067429 41.069714 29.952 60.964572 47.177143-45.750857-1.316571-93.110857 14.299429-134.582857-20.772571-18.761143-15.908571-42.386286-25.929143-62.025143-40.923429-34.816-26.477714-31.780571-64.585143 7.241143-83.968 53.028571-26.404571 109.787429-43.629714 165.814857-62.354286 17.298286-5.814857 34.889143-10.898286 51.748571-17.810285 31.634286-13.019429 35.986286-37.778286 9.837714-60.269715-17.115429-14.701714-36.717714-26.441143-55.003428-39.789714-5.010286-3.620571-11.702857-5.522286-15.725714-15.433143z m385.353142 0.073143c27.684571 0 55.369143 0.109714 83.017143 0 9.581714-0.109714 16.164571 5.961143 23.771429 10.057143 26.953143 14.628571 55.04 27.282286 79.835428 45.494857 37.193143 27.318857 34.889143 66.230857-6.253714 86.564571-56.393143 27.867429-116.918857 45.238857-176.274286 65.572572-13.092571 4.498286-26.477714 8.411429-39.241142 13.641143-32.914286 13.604571-37.083429 38.180571-9.618286 61.476571 18.285714 15.579429 38.582857 28.891429 57.965714 43.190857 5.778286 4.242286 11.593143 8.484571 16.822857 14.994286-42.642286-2.194286-86.820571 15.36-126.683428-15.908571-20.553143-16.091429-44.982857-27.245714-66.121143-42.715429-39.533714-28.964571-36.498286-67.547429 7.424-88.685714 54.674286-26.258286 112.64-44.032 170.166857-63.122286 15.908571-5.266286 32.109714-10.093714 47.36-16.932571 27.026286-12.178286 31.451429-34.852571 9.435429-55.076572-17.115429-15.689143-37.376-27.904-56.210286-41.691428l-16.969143-12.434286 1.572571-4.388572z" fill="#FFBF00" p-id="35380"></path></svg>