<?xml version="1.0" standalone="no"?><!DOCTYPE svg PUBLIC "-//W3C//DTD SVG 1.1//EN" "http://www.w3.org/Graphics/SVG/1.1/DTD/svg11.dtd"><svg t="1703579595294" class="icon" viewBox="0 0 1024 1024" version="1.1" xmlns="http://www.w3.org/2000/svg" p-id="66302" width="32" height="32" xmlns:xlink="http://www.w3.org/1999/xlink"><path d="M328.832 268.501333a42.666667 42.666667 0 0 0-60.330667 60.330667l181.034667 181.034667-181.034667 180.992a42.666667 42.666667 0 1 0 60.330667 60.373333l211.029333-211.072 0.170667-0.128a42.538667 42.538667 0 0 0 0-60.330667l-0.128-0.128-211.072-211.072z" fill="#2c2c2c" p-id="66303"></path><path d="M725.333333 256a42.666667 42.666667 0 0 1 42.666667 42.666667v426.666666a42.666667 42.666667 0 1 1-85.333333 0V298.666667a42.666667 42.666667 0 0 1 42.666666-42.666667z" fill="#2c2c2c" p-id="66304"></path></svg>