<?xml version="1.0" standalone="no"?><!DOCTYPE svg PUBLIC "-//W3C//DTD SVG 1.1//EN" "http://www.w3.org/Graphics/SVG/1.1/DTD/svg11.dtd"><svg t="1706514859524" class="icon" viewBox="0 0 1024 1024" version="1.1" xmlns="http://www.w3.org/2000/svg" p-id="29531" xmlns:xlink="http://www.w3.org/1999/xlink" width="64" height="64"><path d="M722.761143 913.810286v-47.945143h-51.492572v47.250286h-65.938285v-47.689143h-52.955429l-2.340571 48.128h-63.158857l-2.121143-48.676572h-52.516572v48.274286h-65.974857v-47.250286H313.856v49.188572c-15.250286 0-27.501714 0.365714-39.716571-0.073143-37.376-1.389714-45.458286-12.214857-56.32-48.164572-12.8-42.24-26.989714-85.394286-48.822858-123.392-80.749714-140.470857-76.946286-279.332571-1.097142-419.291428 9.435429-17.298286 19.821714-34.121143 29.074285-51.565714A144.566857 144.566857 0 0 0 213.942857 187.977143c-1.718857-16.530286-5.229714-38.436571 13.312-44.763429 22.528-7.68 47.798857-8.155429 72.009143-9.033143 4.242286-0.182857 12.032 12.726857 12.946286 20.260572 5.485714 44.836571 0.731429 87.515429-30.72 123.574857-17.773714 20.333714-32.987429 43.154286-52.224 61.952-96.329143 94.208-96.548571 300.544 15.104 404.370286 19.748571 18.395429 39.862857 36.571429 60.891428 53.504 6.729143 5.376 16.822857 9.069714 25.453715 9.106285 125.037714 0.548571 250.075429 0.438857 375.113142 0.219429 6.217143-0.036571 13.970286-0.548571 18.541715-4.059429 63.890286-49.371429 122.843429-103.424 141.714285-186.258285 23.186286-101.814857 14.262857-197.632-61.074285-278.674286-17.92-19.236571-33.389714-40.630857-50.651429-60.452571-31.451429-36.132571-35.474286-78.848-30.646857-123.721143 0.585143-5.485714 2.779429-12.507429 6.729143-15.616 21.686857-17.005714 44.836571-5.156571 67.181714-1.206857 15.104 2.706286 23.881143 13.348571 24.868572 29.330285 0.146286 1.462857 0.731429 2.925714 0.512 4.352-11.154286 60.635429 19.017143 108.507429 47.286857 157.622857 58.843429 102.217143 70.802286 210.907429 38.034285 323.730286-8.192 28.342857-22.674286 55.296-37.046857 81.334857-24.905143 44.982857-48.091429 90.148571-55.296 142.043429-3.218286 22.893714-17.225143 36.900571-41.179428 38.034286-16.566857 0.804571-33.170286 0.182857-52.077715 0.182857z m-154.843429-519.606857c0 44.544 0.182857 89.088 0 133.595428-0.256 36.534857-19.126857 57.782857-50.834285 58.075429-30.829714 0.256-52.662857-22.820571-52.809143-57.234286-0.292571-91.245714-0.292571-182.491429 0-273.773714 0.109714-34.450286 22.016-57.892571 52.48-57.490286 29.696 0.329143 50.724571 23.113143 51.053714 56.649143 0.438857 46.738286 0.109714 93.44 0.109714 140.178286z m-51.565714 364.726857a51.858286 51.858286 0 0 1-52.516571-52.772572 52.772571 52.772571 0 0 1 52.736-53.028571c27.282286 0.146286 53.577143 26.550857 53.394285 53.650286a52.736 52.736 0 0 1-53.577143 52.150857z" fill="#FFBF00" p-id="29532"></path></svg>