<?xml version="1.0" standalone="no"?><!DOCTYPE svg PUBLIC "-//W3C//DTD SVG 1.1//EN" "http://www.w3.org/Graphics/SVG/1.1/DTD/svg11.dtd"><svg t="1706518950509" class="icon" viewBox="0 0 1024 1024" version="1.1" xmlns="http://www.w3.org/2000/svg" p-id="51289" xmlns:xlink="http://www.w3.org/1999/xlink" width="64" height="64"><path d="M507.977143 874.788571c-202.715429-0.256-364.361143-162.998857-363.885714-366.445714 0.438857-200.594286 164.425143-362.861714 366.153142-362.422857 200.850286 0.438857 362.934857 163.913143 362.678858 365.750857-0.219429 201.435429-162.925714 363.300571-364.946286 363.081143z m0.402286-52.48c171.958857 0.073143 311.625143-138.861714 312.027428-310.418285 0.402286-172.909714-139.154286-313.270857-311.552-313.380572-172.324571-0.109714-312.649143 140.507429-312.246857 312.905143 0.402286 171.629714 139.958857 310.857143 311.771429 310.893714z m470.125714-314.294857c-1.865143 127.341714-45.641143 236.982857-133.156572 329.398857-13.165714 13.824-22.162286 16.347429-32.548571-1.316571a38.948571 38.948571 0 0 0-8.594286-9.874286c-11.556571-9.618286-10.24-16.896 0.475429-27.794285 61.805714-62.756571 100.278857-137.984 112.859428-225.28 18.761143-129.974857-15.798857-244.736-104.265142-341.942858-13.933714-15.36-15.140571-23.113143 0.073142-37.449142 23.917714-22.528 22.966857-23.771429 44.397715 0.585142 79.067429 89.746286 118.674286 194.706286 120.758857 313.673143z m-939.995429 8.411429C40.850286 385.462857 82.907429 277.942857 166.290286 186.514286c10.678857-11.702857 17.152-15.908571 29.696-1.206857 23.149714 27.026286 24.137143 26.148571 0.365714 53.321142-140.068571 160.329143-135.314286 398.921143 10.642286 555.300572 5.851429 6.217143 19.968 11.044571 13.933714 21.540571-7.460571 13.019429-18.761143 24.283429-30.208 34.340572-5.339429 4.754286-9.691429-4.205714-13.385143-7.936-75.044571-74.715429-119.625143-164.717714-133.924571-269.568-2.852571-20.918857-3.766857-42.166857-4.900572-55.881143z m549.083429 68.534857c-17.554286 0-35.108571-0.109714-52.626286 0.109714-4.754286 0.073143-12.946286-1.316571-12.324571 5.376 2.048 22.747429-10.752 47.36 10.642285 67.949715 17.554286 16.896 20.333714 44.251429 9.033143 64.987428-11.593143 21.138286-30.098286 31.707429-54.016 30.976-24.137143-0.731429-44.726857-17.371429-51.858285-40.630857-6.290286-20.553143-2.742857-40.082286 12.507428-54.784 10.24-9.874286 12.251429-19.968 12.214857-32.841143-0.292571-102.4-0.219429-204.726857-0.073143-307.090286 0-7.972571 0-16.310857 2.230858-23.771428 4.278857-14.336 15.396571-21.467429 30.061714-20.333714 15.725714 1.28 25.965714 10.678857 27.501714 26.477714 1.389714 14.518857 1.243429 29.257143 0.512 43.812571-0.585143 11.702857 3.913143 15.140571 15.177143 14.957715 32.914286-0.585143 65.828571 0.475429 98.742857-0.512 14.628571-0.438857 18.358857 4.498286 18.358857 18.651428 0.036571 14.628571-3.218286 20.809143-19.273143 20.224-31.378286-1.170286-62.866286 0.219429-94.281142-0.585143-13.787429-0.365714-19.017143 3.072-18.907429 18.102857 0.365714 37.010286-0.438857 37.046857 36.864 37.046858 25.6 0 51.236571 0.987429 76.8-0.365715 16.64-0.914286 18.724571 6.473143 18.761143 20.48 0.036571 13.750857-2.925714 19.602286-18.066286 19.090286-31.414857-1.097143-62.866286 0.365714-94.317714-0.621714-14.774857-0.475429-20.662857 3.035429-19.968 19.126857 1.755429 43.227429-5.778286 35.84 35.254857 36.498286 27.062857 0.365714 54.125714 0.804571 81.188571-0.182858 15.36-0.585143 15.872 7.570286 15.652572 19.017143-0.182857 10.971429 0.658286 20.297143-15.36 19.090286-16.749714-1.28-33.645714-0.256-50.432-0.256z" fill="#FF0000" p-id="51290"></path></svg>