<?xml version="1.0" standalone="no"?><!DOCTYPE svg PUBLIC "-//W3C//DTD SVG 1.1//EN" "http://www.w3.org/Graphics/SVG/1.1/DTD/svg11.dtd"><svg t="1706520652660" class="icon" viewBox="0 0 1024 1024" version="1.1" xmlns="http://www.w3.org/2000/svg" p-id="95039" xmlns:xlink="http://www.w3.org/1999/xlink" width="64" height="64"><path d="M529.810286 543.890286c-5.997714 122.404571-21.796571 242.834286-69.741715 357.193143-7.972571 19.017143-16.091429 23.771429-37.193142 17.700571-180.736-52.187429-308.077714-211.858286-313.051429-394.934857-5.12-188.562286 136.009143-368.274286 320.475429-409.453714 15.36-3.437714 20.187429 1.645714 25.673142 13.970285 43.117714 96 60.818286 197.851429 70.070858 301.604572 3.401143 37.851429 5.193143 75.812571 3.766857 113.92z m-52.955429-33.28c-3.181714-99.145143-13.531429-207.213714-48.786286-311.478857-9.252571-27.318857-9.837714-27.099429-36.644571-16.493715-138.130286 54.710857-230.765714 192.950857-228.498286 340.918857 2.194286 141.275429 103.168 281.526857 237.494857 331.629715 16.859429 6.290286 20.406857 0.768 25.234286-13.568 35.181714-104.192 49.627429-211.492571 51.2-331.008z m257.426286 415.853714c22.089143-34.011429 36.096-65.609143 39.424-101.485714 2.816-30.573714-5.632-59.355429-11.337143-88.649143-2.084571-10.934857-9.252571-12.946286-19.236571-12.8-38.765714 0.365714-77.531429-0.731429-116.224 0.512-19.090286 0.621714-25.892571-3.730286-26.368-24.795429-0.548571-23.259429 10.057143-23.954286 27.355428-23.515428 32.841143 0.804571 65.792-0.146286 98.669714 0.402285 12.507429 0.219429 18.066286-3.181714 13.787429-16.274285-11.337143-34.56-6.326857-69.705143-0.950857-104.192 2.486857-16.091429-3.035429-16.822857-15.177143-16.749715-35.108571 0.365714-70.217143-0.950857-105.252571 0.512-20.699429 0.877714-17.627429-11.702857-17.444572-23.917714 0.182857-11.812571-4.242286-25.088 16.822857-24.429714 41.691429 1.28 83.382857-0.182857 125.037715 0.658286 13.421714 0.256 19.638857-4.205714 22.893714-17.115429 8.777143-34.742857 10.752-69.010286-0.731429-103.606857-4.059429-12.178286-10.130286-17.188571-23.588571-16.932572-40.886857 0.877714-81.92-0.621714-122.770286 0.658286-20.224 0.658286-17.956571-11.446857-17.700571-23.917714 0.219429-11.922286-3.803429-25.124571 17.115428-24.283429 35.035429 1.353143 70.180571-0.182857 105.252572 0.585143 14.153143 0.365714 17.481143-3.108571 13.531428-17.298286-14.518857-52.662857-10.349714-103.643429 13.897143-153.490285 9.654857-19.821714 21.101714-29.696 43.337143-25.782857 7.021714 1.243429 14.409143 0.182857 24.612571 0.182857-7.862857 16.676571-14.336 31.122286-21.394285 45.348571-21.650286 43.666286-21.979429 88.32-7.497143 134.217143 3.986286 12.617143 10.020571 17.188571 23.296 16.859429 38.729143-0.804571 77.494857 0.731429 116.224-0.658286 20.955429-0.731429 16.822857 12.434286 17.078857 24.32 0.256 12.507429 2.56 24.868571-17.700571 23.917714-31.341714-1.389714-62.902857 0.036571-94.281143-0.512-12.726857-0.256-18.870857 1.243429-14.628572 16.749714 9.398857 34.486857 8.411429 69.522286-0.256 104.082286-3.145143 12.507429-0.877714 16.969143 12.690286 16.603429 28.525714-0.731429 57.014857 0.073143 85.504-0.329143 16.64-0.292571 30.061714-2.486857 29.769143 23.405714-0.292571 23.881143-10.24 25.234286-28.708572 24.612572-33.572571-1.097143-67.291429 0.182857-100.864-0.585143-12.909714-0.256-18.468571 4.096-23.552 16.493714-14.811429 36.205714-9.508571 71.460571-0.365714 107.373714 3.108571 12.141714 10.313143 13.604571 20.845714 13.458286 38.034286-0.365714 76.068571 0.768 114.066286-0.512 17.92-0.621714 18.870857 8.704 17.408 21.577143-1.243429 11.446857 6.729143 27.611429-16.676571 26.770286-32.109714-1.170286-64.365714 0.365714-96.475429-0.548572-16.018286-0.365714-20.699429 3.584-15.36 19.931429 17.444571 53.833143 13.056 106.166857-10.532571 157.842285-8.850286 19.419429-19.638857 28.891429-41.216 25.6-9.033143-1.426286-18.505143-0.292571-32.329143-0.292571z" fill="#FFBF00" p-id="95040"></path></svg>