<?xml version="1.0" standalone="no"?><!DOCTYPE svg PUBLIC "-//W3C//DTD SVG 1.1//EN" "http://www.w3.org/Graphics/SVG/1.1/DTD/svg11.dtd"><svg t="1688451817412" class="icon" viewBox="0 0 1024 1024" version="1.1" xmlns="http://www.w3.org/2000/svg" p-id="47702" xmlns:xlink="http://www.w3.org/1999/xlink" width="32" height="32"><path d="M307.309714 814.006857c77.677714 0 154.697143 6.144 230.4-1.462857 108.982857-10.971429 176.603429-78.116571 205.312-182.601143 24.685714-89.856 23.844571-180.882286 0-270.811428-26.038857-98.486857-93.696-159.451429-195.474285-168.082286-78.336-6.656-157.549714-3.291429-236.361143-4.242286-1.097143 0-2.194286 1.609143-3.876572 2.925714v624.274286z m-109.568 93.293714V96.658286c3.876571-0.950857 7.241143-2.486857 10.569143-2.450286 110.372571 0.841143 220.818286-1.28 330.971429 3.803429 91.282286 4.205714 174.738286 34.267429 239.36 103.533714 46.994286 50.395429 71.314286 111.835429 82.029714 178.651428 14.921143 93.44 11.666286 186.660571-13.019429 278.235429-38.473143 142.884571-140.141714 233.801143-288.768 244.736-118.491429 8.740571-237.933714 4.242286-356.937142 5.595429-0.731429 0-1.389714-0.475429-4.205715-1.462858z" fill="#00ff00" p-id="47703"></path></svg>