<?xml version="1.0" standalone="no"?><!DOCTYPE svg PUBLIC "-//W3C//DTD SVG 1.1//EN" "http://www.w3.org/Graphics/SVG/1.1/DTD/svg11.dtd"><svg t="1706578802041" class="icon" viewBox="0 0 1024 1024" version="1.1" xmlns="http://www.w3.org/2000/svg" p-id="34773" xmlns:xlink="http://www.w3.org/1999/xlink" width="64" height="64"><path d="M482.011429 548.461714c5.851429 30.573714 17.261714 86.966857 27.209142 143.652572 3.474286 19.675429 14.262857 27.136 32.694858 27.209143 21.942857 0.109714 43.885714 1.316571 65.755428 0.256 86.674286-4.242286 167.314286-24.868571 232.96-86.528 89.270857-83.858286 91.867429-168.850286 7.058286-256.731429a178.468571 178.468571 0 0 0-11.190857-10.459429c-88.246857-77.129143-194.889143-86.198857-304.896-81.481142-6.217143 0.292571-15.542857 8.521143-17.664 14.994285-23.552 72.082286-33.718857 146.285714-31.926857 249.088m-51.053715-55.954285c-2.779429-73.837714 14.518857-149.796571 38.144-224.804572 6.509714-20.589714 19.017143-32.182857 40.484572-34.194286 84.662857-7.899429 168.155429-2.157714 248.722285 26.441143 78.884571 28.050286 139.227429 78.994286 178.578286 153.417143 30.976 58.550857 31.232 117.906286 0.621714 176.493714-50.468571 96.475429-133.632 148.114286-237.568 169.874286-59.026286 12.434286-118.601143 14.848-178.834285 10.093714-30.72-2.413714-47.652571-15.872-56.283429-45.092571-21.833143-74.130286-35.254857-149.284571-33.865143-232.228571zM203.52 301.385143L257.828571 131.510857l-66.377142-31.232c50.358857-13.970286 95.451429-26.624 140.580571-39.021714 41.435429-11.410286 41.508571-11.337143 55.296 28.452571 12.434286 35.766857 24.649143 71.533714 39.021714 113.152L353.682286 172.617143c-8.557714 24.941714-17.152 47.945143-24.32 71.387428-4.278857 14.006857-12.288 21.504-26.477715 25.6-30.829714 8.850286-61.074286 19.419429-99.364571 31.817143z m176.64 665.270857L195.291429 919.405714c26.002286-12.434286 46.592-22.308571 69.558857-33.389714l-34.962286-90.660571 97.024-34.194286 32.585143 81.371428 70.326857-32.182857-49.664 156.379429z m10.130286-668.635429c-3.547429 16.969143-5.339429 30.72-9.581715 43.629715-1.938286 5.851429-7.972571 12.580571-13.677714 14.518857-81.481143 27.977143-163.254857 55.222857-245.028571 82.505143-2.56 0.877714-5.558857 0.438857-8.045715 0.585143-0.731429-1.316571-1.28-1.901714-1.389714-2.56-5.961143-44.544-6.034286-44.726857 35.547429-58.733715 72.667429-24.502857 145.408-48.749714 218.148571-73.069714 6.838857-2.267429 13.860571-3.949714 24.027429-6.875429z m-17.042286 340.260572c2.194286 3.474286 3.803429 5.156571 4.352 7.094857 11.483429 39.058286 11.483429 39.131429-26.587429 52.004571l-217.819428 73.728c-5.485714 1.828571-11.008 3.108571-19.273143 5.412572 0-14.592-1.28-27.721143 0.621714-40.338286 0.804571-5.449143 7.314286-12.434286 12.763429-14.336 81.408-28.16 163.035429-55.552 245.942857-83.565714z m-260.388571-84.553143c0-16.457143-0.731429-29.513143 0.512-42.313143 0.365714-4.461714 5.12-10.861714 9.325714-12.288 80.64-27.538286 161.499429-54.454857 245.467428-82.578286-1.28 17.188571-1.024 31.158857-3.876571 44.397715-1.133714 5.376-8.338286 11.556571-14.116571 13.531428-77.421714 26.331429-155.062857 51.931429-237.275429 79.250286z m248.795428-23.296c9.289143 47.542857 9.325714 47.652571-31.817143 61.586286-70.473143 23.844571-141.019429 47.542857-214.747428 72.411428-0.804571-15.177143-2.377143-28.525714-1.645715-41.764571 0.219429-4.132571 5.851429-10.093714 10.24-11.593143 78.628571-27.026286 157.366857-53.394286 237.970286-80.64z" fill="#00ff00" p-id="34774"></path></svg>