<?xml version="1.0" standalone="no"?><!DOCTYPE svg PUBLIC "-//W3C//DTD SVG 1.1//EN" "http://www.w3.org/Graphics/SVG/1.1/DTD/svg11.dtd"><svg t="1706772274221" class="icon" viewBox="0 0 1024 1024" version="1.1" xmlns="http://www.w3.org/2000/svg" p-id="2189" xmlns:xlink="http://www.w3.org/1999/xlink" width="64" height="64"><path d="M450.4576 396.74368C381.8752 302.76096 202.84416 330.05568 202.84416 330.05568l-6.98368 4.4288c45.056 278.05696 220.29312 264.0896 220.29312 264.0896 99.67616-103.4752 199.9872-154.2144 199.9872-154.2144-122.53696 69.79072-274.2528 293.88288-274.2528 293.88288h55.22432l56.72448-96.896c309.81632 89.74848 374.36416-340.51072 374.36416-340.51072C498.0736 236.73344 450.4576 396.74368 450.4576 396.74368zM792.41216 533.8368c-12.85632 10.38336-27.81696 19.13856-44.9792 26.368v26.78272c9.56416-3.18464 20.32128-7.95136 32.32256-14.28992 11.95008-6.35392 21.632-12.69248 29.00992-19.0464v176.3328h30.62784V503.72096h-19.74784c-5.376 9.71264-14.38208 19.72224-27.23328 30.11584z" fill="#0000FF" p-id="2190"></path><path d="M778.4448 192.768a18.2272 18.2272 0 0 0-5.7344-0.84992H256.0768c-119.6544 0-163.15904 137.61024-165.00736 143.49824a20.6336 20.6336 0 0 0-0.8192 5.57568v324.66432c0.91648 130.27328 155.264 164.59264 161.85856 166.0672 1.29024 0.19968 2.63168 0.3584 3.96288 0.3584H772.7104c114.14528 0 158.42304-141.46048 160.25088-147.49696 0.55808-1.77664 0.78848-3.69152 0.78848-5.56032V342.5792c0-99.7888-148.95616-147.82464-155.30496-149.8112z m117.04832 483.2c-5.86752 17.27488-43.71968 117.90848-122.78272 117.90848H258.23744c-16.58368-4.0192-129.05984-34.41664-129.69472-128.41472V344.12544c5.9392-16.97792 43.47392-113.97632 127.53408-113.97632h513.60768c37.49376 12.47744 125.80864 54.12352 125.80864 112.43008v333.3888z" fill="#0000FF" p-id="2191"></path></svg>