<?xml version="1.0" standalone="no"?><!DOCTYPE svg PUBLIC "-//W3C//DTD SVG 1.1//EN" "http://www.w3.org/Graphics/SVG/1.1/DTD/svg11.dtd"><svg t="1706585411229" class="icon" viewBox="0 0 1024 1024" version="1.1" xmlns="http://www.w3.org/2000/svg" p-id="17828" xmlns:xlink="http://www.w3.org/1999/xlink" width="64" height="64"><path d="M778.43456 192.78336a18.176 18.176 0 0 0-5.73952-0.89088H256.08192c-119.66976 0-163.17952 137.6512-165.00736 143.49824a18.57024 18.57024 0 0 0-0.80896 5.61664v324.608c0.89088 130.2784 155.2384 164.67968 161.82784 166.07232 1.29024 0.27136 2.60096 0.43008 3.98336 0.43008h516.61312c114.1504 0 158.38208-141.50144 160.25088-147.52768 0.55808-1.8176 0.78848-3.73248 0.78848-5.60128v-336.4352c0.00512-99.75296-148.94592-147.82464-155.29472-149.77024z m117.04832 483.17952c-5.86752 17.26976-43.71968 117.90848-122.78784 117.90848H258.22208c-16.57856-4.0192-129.05472-34.42176-129.6896-128.37888V344.12032c5.93408-16.97792 43.4688-113.97632 127.52896-113.97632h513.6128c37.48864 12.47744 125.80864 54.12352 125.80864 112.42496v333.39392z" fill="#FFBF00" p-id="17829"></path><path d="M450.44736 396.73856C381.85984 302.75072 202.8288 330.04544 202.8288 330.04544l-6.98368 4.43392c45.06112 278.08256 220.29824 264.08448 220.29824 264.08448 99.67104-103.47008 199.98208-154.2144 199.98208-154.2144-122.53184 69.79072-274.2528 293.92384-274.2528 293.92384h55.22944l56.71936-96.90112c309.81632 89.71776 374.36416-340.54144 374.36416-340.54144-330.12736-64.1024-377.73824 95.90784-377.73824 95.90784z m-42.40384 93.30176h-1.8944L349.62432 434.176l64.77312 50.78528-6.35392 5.07904z" fill="#FFBF00" p-id="17830"></path></svg>