<?xml version="1.0" standalone="no"?><!DOCTYPE svg PUBLIC "-//W3C//DTD SVG 1.1//EN" "http://www.w3.org/Graphics/SVG/1.1/DTD/svg11.dtd"><svg t="1706521186991" class="icon" viewBox="0 0 1024 1024" version="1.1" xmlns="http://www.w3.org/2000/svg" p-id="105598" xmlns:xlink="http://www.w3.org/1999/xlink" width="64" height="64"><path d="M209.216 705.44H172.48l-55.072-175.136H77.632v175.136h-35.2V300.736h76.512c24.48 0 44.384 9.088 59.68 27.232 15.296 18.144 22.944 47.744 22.944 88.736 0 31.584-5.12 56.032-15.296 73.376-10.208 17.376-21.952 28.416-35.2 33.12l58.144 182.24z m-42.848-288.736c0-22.08-4.352-39.424-12.992-52.064-8.672-12.608-22.72-18.944-42.08-18.944H77.632v139.648h42.848c12.224 0 22.944-5.088 32.128-15.392 9.152-10.24 13.76-28 13.76-53.248zM398.912 705.44H242.848V300.736h148.416v44.96H278.048v125.44h104.032v44.96H278.048v144.352h120.864v44.992zM605.472 705.44h-36.704l-21.408-125.44H480l-21.408 125.44h-36.704l76.48-409.44h30.592l76.512 409.44z m-65.792-170.4L515.2 390.656h-3.072l-24.48 144.352h52.032zM792.128 504.256c0 72.576-9.952 124.256-29.824 155.008-19.904 30.784-46.656 46.144-80.32 46.144h-52.032V300.736h52.032c37.728 0 65.536 15.776 83.392 47.328 17.824 31.584 26.752 83.648 26.752 156.192z m-36.704 0c0-58.368-6.112-99.392-18.368-123.072-12.256-23.68-30.592-35.488-55.072-35.488h-16.832v314.752h16.832c24.48 0 42.848-11.424 55.072-34.304 12.224-22.848 18.368-63.488 18.368-121.888zM994.08 300.736l-71.904 222.464v182.24h-35.2V523.2l-71.904-222.464h35.2l53.536 172.768h1.536l53.536-172.768h35.2z" fill="#00ff00" p-id="105599"></path></svg>