<?xml version="1.0" standalone="no"?><!DOCTYPE svg PUBLIC "-//W3C//DTD SVG 1.1//EN" "http://www.w3.org/Graphics/SVG/1.1/DTD/svg11.dtd"><svg t="1706668159870" class="icon" viewBox="0 0 1024 1024" version="1.1" xmlns="http://www.w3.org/2000/svg" p-id="2661" xmlns:xlink="http://www.w3.org/1999/xlink" width="64" height="64"><path d="M809.252571 90.989714c0 42.788571-0.438857 80.566857 0.146286 118.272 0.694857 49.444571 1.024 49.334857-48.859428 49.078857-37.083429-0.182857-74.093714-0.036571-118.308572-0.036571 15.579429-16.384 25.6-28.379429 37.193143-38.619429 12.068571-10.715429 8.594286-16.493714-3.510857-23.515428-33.499429-19.565714-70.107429-29.037714-108.178286-32.768-73.069714-7.204571-144.457143-2.194286-210.834286 33.572571-15.945143 8.594286-22.747429 16.64-4.278857 30.354286 11.52 8.594286 21.357714 19.492571 36.644572 33.718857-43.739429 1.609143-81.115429 3.145143-118.528 4.278857-52.150857 1.572571-51.931429 1.426286-51.126857-51.053714 0.512-36.425143 0.073143-72.850286 0.073142-112.749714 19.821714 11.446857 30.939429 26.843429 44.617143 39.094857 5.851429 5.266286 9.654857 8.923429 18.139429 2.486857 83.529143-63.524571 180.297143-75.373714 280.722286-68.022857 65.536 4.754286 128.256 21.504 181.540571 63.049143 7.387429 5.705143 10.898286 2.633143 16.237714-2.340572 14.153143-13.238857 25.6-29.476571 48.274286-44.8z m-284.525714 465.92c57.563429-0.475429 113.078857 10.861714 167.716572 28.16 17.371429 5.485714 27.209143 15.030857 28.818285 33.718857 5.266286 60.342857 1.133714 119.734857-17.883428 177.444572-20.370286 61.549714-58.806857 108.653714-116.297143 139.337143-48.786286 25.965714-96.987429 22.601143-143.798857-5.376-75.849143-45.348571-109.056-116.845714-120.795429-200.777143-4.864-34.852571-4.900571-69.778286-2.450286-104.96 1.645714-23.369143 12.873143-35.437714 34.304-41.874286a598.125714 598.125714 0 0 1 170.422858-25.673143z m-4.681143 38.692572c-47.725714 0.585143-94.354286 7.826286-140.507428 20.041143-15.725714 4.169143-21.101714 12.361143-21.906286 27.209142-1.718857 30.793143 0.036571 61.44 4.754286 91.794286 10.496 68.132571 41.618286 123.904 100.498285 162.304 36.608 23.917714 73.764571 24.502857 111.36 2.230857a202.093714 202.093714 0 0 0 86.857143-101.12c20.589714-51.126857 24.210286-104.850286 22.930286-159.268571-0.292571-13.604571-7.314286-18.614857-19.346286-21.942857-47.323429-13.385143-95.378286-21.211429-144.64-21.211429z m102.180572-184.064c0 29.915429 0.402286 59.830857-0.256 89.746285-0.182857 6.948571 5.558857 20.736-10.605715 17.334858-10.934857-2.304-27.904 3.108571-26.806857-19.273143 1.462857-29.842286 0.365714-59.794286 0.365715-89.746286 0-31.378286 0.621714-62.756571-0.256-94.098286-0.365714-14.262857 6.875429-15.177143 17.554285-14.701714 10.093714 0.438857 20.699429-2.304 20.224 14.409143-0.877714 32.073143-0.256 64.219429-0.219428 96.329143z m-247.478857 4.973714c0 33.536 0.146286 67.035429-0.036572 100.571429-0.073143 13.714286-16.822857 27.501714-30.281143 25.965714-8.155429-0.987429-6.070857-7.094857-6.107428-11.556572-0.146286-72.886857 0.073143-145.773714-0.219429-218.624-0.036571-16.420571 11.593143-11.117714 19.931429-11.849142 9.106286-0.804571 17.188571-0.987429 16.932571 12.726857-0.731429 34.230857-0.256 68.498286-0.219428 102.765714z m329.654857 5.924571c0 33.536 0.365714 67.108571-0.329143 100.644572-0.146286 6.546286 5.266286 20.260571-6.546286 18.395428-11.190857-1.718857-29.988571 0.146286-29.805714-20.992 0.219429-22.601143 0.036571-45.238857 0.036571-67.84 0-44.507429 0.621714-89.014857-0.329143-133.485714-0.329143-14.848 4.937143-18.102857 18.761143-18.249143 14.409143-0.109714 18.870857 4.388571 18.505143 18.651429-0.914286 34.304-0.292571 68.608-0.292571 102.875428z m-201.581715-17.883428c0-29.147429 0.731429-58.368-0.292571-87.478857-0.512-14.738286 6.180571-16.822857 18.432-16.457143 11.044571 0.365714 19.382857-0.073143 19.2 15.579428a7153.737143 7153.737143 0 0 0 0 179.382858c0.219429 16.018286-8.667429 14.848-19.419429 15.36-12.580571 0.621714-18.651429-2.413714-18.212571-16.676572 0.950857-29.878857 0.292571-59.794286 0.292571-89.709714z m-45.348571 4.498286c0 29.878857-1.243429 59.830857 0.438857 89.636571 1.316571 23.881143-16.896 18.541714-28.16 19.894857-14.994286 1.755429-8.630857-12.251429-8.704-18.980571-0.621714-59.794286 0.109714-119.552-0.658286-179.309715-0.219429-15.104 4.022857-19.968 19.492572-19.894857 14.921143 0.073143 18.285714 5.339429 17.92 19.017143-0.914286 29.842286-0.329143 59.757714-0.329143 89.636572z" fill="#00ff00" p-id="2662"></path></svg>