<?xml version="1.0" standalone="no"?><!DOCTYPE svg PUBLIC "-//W3C//DTD SVG 1.1//EN" "http://www.w3.org/Graphics/SVG/1.1/DTD/svg11.dtd"><svg t="1706518577284" class="icon" viewBox="0 0 1024 1024" version="1.1" xmlns="http://www.w3.org/2000/svg" p-id="43180" xmlns:xlink="http://www.w3.org/1999/xlink" width="64" height="64"><path d="M327.533714 590.226286c-0.804571 2.56-1.645714 5.156571-2.450285 7.899428-14.336 48.64-50.176 77.568-96.292572 77.787429-45.494857 0.292571-80.676571-27.428571-96.914286-74.569143-1.974857-5.668571-9.508571-12.068571-15.469714-13.348571-42.276571-8.850286-58.294857-28.196571-57.307428-71.570286 1.974857-84.48 11.849143-96.731429 94.646857-113.737143 41.472-8.521143 83.017143-17.042286 124.854857-23.405714 21.833143-3.291429 39.789714-11.117714 56.137143-25.965715 24.32-22.125714 50.029714-42.752 75.410285-63.634285 35.035429-28.781714 74.459429-44.690286 120.685715-44.105143 106.715429 1.28 213.394286 1.828571 320.109714 1.755428 31.963429-0.073143 54.601143 13.750857 70.290286 40.228572 14.116571 23.954286 27.574857 48.237714 40.777143 72.594286 2.998857 5.558857 5.339429 12.288 5.485714 18.541714 1.097143 46.774857 2.669714 93.549714 1.755428 140.214857-0.841143 40.704-18.761143 58.88-58.075428 67.291429-6.290286 1.353143-13.897143 9.142857-16.054857 15.616-15.104 45.238857-50.688 73.654857-95.158857 74.093714-45.604571 0.512-81.554286-27.318857-97.536-73.764572-2.084571-5.924571-11.154286-13.458286-17.005715-13.494857-116.918857-0.585143-233.910857-0.219429-350.829714 0-2.121143 0-4.205714 0.914286-7.058286 1.572572z m531.382857-40.886857c16.091429-1.755429 31.012571-1.645714 44.836572-5.485715 8.338286-2.340571 21.321143-10.569143 21.467428-16.384 1.353143-48.859429 0.256-97.755429-0.365714-146.688 0-2.596571-2.413714-5.229714-3.84-7.826285-11.410286-20.370286-22.893714-40.704-34.304-61.110858-8.594286-15.286857-20.553143-22.491429-39.131428-22.491428-105.252571 0-210.468571-0.731429-315.721143-1.865143-36.205714-0.402286-67.181714 11.776-94.537143 34.486857-30.939429 25.673143-61.074286 52.297143-92.708572 77.092572a92.086857 92.086857 0 0 1-36.571428 17.188571c-47.835429 10.130286-96.109714 18.212571-144.201143 27.318857-63.012571 11.849143-64.182857 13.860571-62.537143 78.738286 0.402286 14.592 6.290286 21.504 20.333714 22.930286 15.104 1.572571 30.171429 3.547429 45.824 5.449142 1.755429 12.836571 2.852571 24.502857 4.973715 35.986286 4.754286 25.234286 24.576 43.666286 49.005714 46.299429 25.526857 2.633143 49.188571-10.24 58.441143-33.389715a82.285714 82.285714 0 0 0 6.034286-29.805714c0.036571-18.651429 6.948571-24.393143 26.221714-24.32 133.741714 0.731429 267.52 0.109714 401.298286-0.073143h22.857142c13.824 69.522286 25.965714 88.064 60.269715 87.588572 54.674286-0.694857 59.318857-42.020571 62.354285-83.638857z m-259.510857 165.668571h49.152l-98.523428 97.426286-98.962286-96.548572h51.2v-91.794285h97.133714v90.88z m-96.036571-293.010286H454.582857l99.401143-99.145143 99.108571 98.194286h-52.662857v91.501714h-97.024v-90.550857z" fill="#FFBF00" p-id="43181"></path></svg>