<?xml version="1.0" standalone="no"?><!DOCTYPE svg PUBLIC "-//W3C//DTD SVG 1.1//EN" "http://www.w3.org/Graphics/SVG/1.1/DTD/svg11.dtd"><svg t="1704420222708" class="icon" viewBox="0 0 1024 1024" version="1.1" xmlns="http://www.w3.org/2000/svg" p-id="43509" xmlns:xlink="http://www.w3.org/1999/xlink" width="64" height="64"><path d="M529.408 666.038857c38.473143 15.579429 72.96 37.814857 105.618286 63.158857 6.838857 5.266286 13.641143 10.605714 3.328 18.176-7.68 5.632-10.605714 24.027429-26.587429 9.984a327.314286 327.314286 0 0 0-70.875428-46.555428c-6.180571-3.108571-12.324571-8.704-20.114286-3.584-10.788571 58.258286-38.985143 109.787429-63.268572 162.742857-5.668571 12.361143-21.138286 8.118857-31.963428 9.581714-9.398857 1.28-21.723429 10.24-27.940572 2.194286-6.326857-8.082286 5.997714-16.932571 9.728-25.490286 15.835429-36.132571 31.853714-72.082286 44.397715-109.568 4.315429-12.873143 1.499429-17.664-11.556572-21.394286-48.493714-13.970286-96.438857-12.726857-144.822857 0.804572-13.787429 3.84-15.177143 9.289143-10.496 21.577143a2227.931429 2227.931429 0 0 0 56.868572 134.729143c-19.236571 1.28-35.876571-3.584-52.736-5.522286a12.178286 12.178286 0 0 1-10.020572-7.460572c-24.064-49.956571-49.664-99.254857-61.952-153.892571a14.628571 14.628571 0 0 0-0.731428-1.682286c-3.584-7.789714-8.374857-8.96-17.188572-3.913143-24.137143 13.714286-48.274286 27.538286-69.229714 45.641143-12.617143 10.934857-18.761143 5.924571-28.306286-3.657143-10.276571-10.276571-7.021714-16.128 1.389714-24.868571 32.768-34.121143 64.914286-68.900571 97.28-103.424 6.948571 18.468571 2.194286 38.619429 8.045715 57.270857 1.974857 6.363429 0.914286 13.897143 6.144 18.761143 3.291429-9.581714 10.971429-14.445714 19.894857-17.700571 89.892571-33.353143 179.785143-32.475429 269.568 0.512 8.118857 2.962286 14.592 7.936 17.993143 16.054857 5.302857-10.020571 5.193143-21.357714 6.729143-32.256-88.722286-36.096-179.382857-40.667429-271.835429-16.310857-5.229714 1.389714-11.337143 6.838857-15.542857-0.256-4.096-6.948571-2.194286-13.604571 3.730286-19.748572 71.314286-74.130286 142.482286-148.48 213.686857-222.756571v-0.036572c-2.450286-9.398857-12.141714-9.179429-18.285715-13.677714-4.754286-3.437714-13.897143-2.706286-12.105142-12.544 27.904-28.745143 56.868571-56.612571 83.309714-86.674286 13.824-15.725714 19.492571-4.022857 29.184 2.925715 12.141714 8.777143 8.704 14.921143 0 23.734857-23.661714 23.844571-46.482286 48.530286-69.778286 72.777143-3.84 4.022857-10.459429 6.838857-3.766857 13.641142 18.102857 3.364571 25.892571 14.555429 29.513143 32.475429 7.168 35.584 15.104 71.204571 25.526857 105.984 11.922286 39.862857 13.385143 79.725714 7.168 120.246857z m-109.970286-285.110857c9.874286 9.691429-1.316571 13.824-5.814857 18.614857a47097.6 47097.6 0 0 1-194.633143 206.08c-3.949714 4.169143-6.4 11.776-15.469714 9.984v-28.306286c12.068571-50.322286 24.612571-100.571429 35.986286-151.04 2.998857-13.312 8.850286-21.686857 21.577143-27.245714 21.357714-9.362286 42.057143-20.297143 62.866285-30.866286 20.406857-10.386286 22.308571-24.027429 6.070857-40.155428-28.781714-28.598857-33.938286-73.362286-12.324571-106.422857 25.344-38.692571 74.24-38.802286 99.730286-0.182857 20.662857 31.305143 16.786286 76.214857-8.923429 103.424-21.613714 22.857143-18.907429 34.304 10.861714 46.043428l0.073143 0.073143z m-216.941714 208.713143z m424.009143 74.166857c-7.68 14.884571-15.213714 5.12-22.637714 1.097143-7.936-4.278857-18.176-7.058286-9.398858-20.626286 13.056-20.187429 32.073143-40.777143 34.194286-62.573714 2.084571-21.467429-15.250286-44.251429-21.467428-67.181714-21.869714-81.115429-17.334857-160.658286 19.419428-236.982858 5.302857-10.971429 4.315429-18.468571-1.645714-27.867428-10.203429-15.981714-18.578286-33.206857-29.257143-48.786286-8.740571-12.617143-2.889143-17.554286 7.716571-22.930286 8.96-4.498286 16.493714-12.836571 24.137143 2.56 7.68 15.689143 14.445714 37.449143 27.574857 43.264 14.628571 6.509714 26.112-17.188571 41.216-24.722285 42.166857-21.211429 87.405714-16.384 125.586286 18.432 13.604571 12.397714 19.163429 10.459429 25.892572-4.608 3.803429-8.630857 10.605714-16.018286 14.006857-24.722286 7.314286-18.724571 17.115429-19.602286 32.402285-8.192 8.045714 5.961143 11.812571 10.532571 4.498286 18.797714-11.154286 12.580571-23.442286 33.060571-36.900571 61.44 9.033143 27.428571 16.603429 49.773714 22.710857 66.998857 28.233143 79.469714 19.675429 161.426286-17.554286 238.518858-4.754286 9.837714-4.827429 17.078857 0.877714 26.112 10.971429 17.261714 20.150857 35.620571 31.451429 52.589714 9.179429 13.750857-2.194286 16.201143-9.654857 20.626286-7.497143 4.498286-15.213714 13.056-22.674286-1.462858-8.374857-16.164571-15.177143-39.350857-28.672-44.982857-14.262857-5.851429-26.843429 18.724571-43.044571 26.258286-39.606857 18.432-76.507429 14.921143-111.798857-9.654857-8.923429-6.217143-16.896-13.824-27.062858-22.308572-10.825143 18.249143-21.211429 34.121143-29.915428 50.907429z m27.538286-363.812571c-38.656 55.954286-36.608 194.56 0.329142 242.468571 21.942857-37.449143 43.629714-74.459429 65.426286-111.396571 3.108571-5.266286 5.376-10.130286 1.828572-16.164572-22.418286-37.961143-44.726857-76.032-67.584-114.907428z m187.977142-4.096l-68.205714 116.443428c-2.633143 4.461714-5.485714 8.777143-2.340571 14.153143 22.674286 38.838857 45.421714 77.604571 70.546285 120.612571 34.742857-85.650286 34.816-165.705143 0-251.245714z m-95.195428 88.649142l61.586286-104.667428c2.194286-3.766857 4.022857-7.789714 6.582857-11.337143 4.681143-6.290286 1.206857-10.349714-2.779429-15.177143-33.389714-40.265143-93.878857-40.886857-129.353143-1.462857-5.668571 6.326857-7.497143 11.300571-2.779428 19.163429 21.76 36.315429 42.971429 72.886857 66.742857 113.481142z m0.073143 73.691429l-61.805715 105.398857c-1.536 2.486857-2.742857 5.193143-4.498285 7.497143-5.339429 6.875429-4.278857 12.288 1.536 19.017143 34.633143 40.228571 97.755429 39.789714 130.56-1.097143 4.022857-5.083429 5.961143-8.777143 2.121143-15.250286-22.308571-37.376-44.178286-75.081143-67.913143-115.565714z" fill="#ff0000" p-id="43510"></path></svg>