<?xml version="1.0" standalone="no"?><!DOCTYPE svg PUBLIC "-//W3C//DTD SVG 1.1//EN" "http://www.w3.org/Graphics/SVG/1.1/DTD/svg11.dtd"><svg t="1706509507069" class="icon" viewBox="0 0 1024 1024" version="1.1" xmlns="http://www.w3.org/2000/svg" p-id="9972" width="32" height="32" xmlns:xlink="http://www.w3.org/1999/xlink"><path d="M512 139.636364c218.530909 0 395.636364 177.105455 395.636364 384.325818C907.636364 753.757091 730.530909 930.909091 512 930.909091S116.363636 753.757091 116.363636 523.962182C116.363636 316.741818 293.469091 139.636364 512 139.636364zM194.746182 193.885091a23.272727 23.272727 0 0 1 0.442182 32.907636A440.552727 440.552727 0 0 0 69.818182 535.272727c0 117.620364 46.08 227.909818 126.952727 310.085818a23.272727 23.272727 0 0 1-33.186909 32.651637A487.144727 487.144727 0 0 1 23.272727 535.272727 487.098182 487.098182 0 0 1 161.838545 194.327273a23.272727 23.272727 0 0 1 32.907637-0.442182z m666.577454-0.418909A487.121455 487.121455 0 0 1 1000.727273 535.272727c0 129.954909-50.967273 251.904-140.288 342.714182a23.272727 23.272727 0 0 1-33.186909-32.651636A440.599273 440.599273 0 0 0 954.181818 535.272727c0-117.201455-45.777455-227.141818-126.138182-309.248a23.272727 23.272727 0 1 1 33.28-32.558545zM512 186.181818C319.511273 186.181818 162.909091 342.784 162.909091 535.272727s156.602182 349.090909 349.090909 349.090909 349.090909-156.602182 349.090909-349.090909S704.488727 186.181818 512 186.181818z m0.186182 142.848c53.527273 0 71.214545 26.647273 81.105454 47.569455l139.287273 312.133818c1.559273 4.165818 0.512 6.283636-4.142545 6.283636h-67.048728a14.033455 14.033455 0 0 1-14.056727-9.425454l-33.768727-75.310546H410.298182l-34.304 75.822546c-3.118545 5.771636-7.819636 8.890182-14.033455 8.890182h-66.56c-3.607273 0-5.701818-3.677091-4.142545-6.283637l139.310545-312.622545c9.355636-20.410182 28.043636-47.057455 81.594182-47.057455z m0 74.24a12.497455 12.497455 0 0 0-9.355637 3.653818c-2.094545 2.094545-4.165818 5.748364-6.74909 10.472728l-58.181819 130.164363h148.084364l-58.181818-130.164363a65.954909 65.954909 0 0 0-5.748364-10.472728c-2.606545-2.629818-5.701818-3.653818-9.867636-3.653818z" fill="#000000" p-id="9973"></path></svg>