<?xml version="1.0" standalone="no"?><!DOCTYPE svg PUBLIC "-//W3C//DTD SVG 1.1//EN" "http://www.w3.org/Graphics/SVG/1.1/DTD/svg11.dtd"><svg t="1712038074727" class="icon" viewBox="0 0 1024 1024" version="1.1" xmlns="http://www.w3.org/2000/svg" p-id="11629" width="16" height="16" xmlns:xlink="http://www.w3.org/1999/xlink"><path d="M886.879718 838.702329c33.215019-57.799095 14.818316-102.194443-44.001264-146.612902-69.141194-52.216228-136.712131-87.342071-185.298887-31.07796 0 0-51.564285 61.381131-203.297856-82.257891-176.441711-168.19269-102.389053-227.844227-102.389053-227.844227 61.366535-61.694939 22.354578-107.715279-29.111186-177.419625C271.32179 103.790243 219.333012 81.725147 144.70139 141.675896c-143.819036 115.526427 58.971619 386.780791 161.507845 492.259274l-0.004865 0.004865c0 0 155.916464 161.27553 254.028968 214.962278l52.485032 29.348366c75.284781 38.633684 159.840283 56.317628 219.373837 20.446187C832.093425 898.696865 860.788632 883.9345 886.879718 838.702329L886.879718 838.702329zM886.879718 838.702329M656.977493 276.853043l71.260008 70.289392c-35.737647 35.249907-60.069947 55.829888-76.673808 68.721567-101.659267 78.905738-182.30433 46.148053-182.30433 46.148053 138.838243 136.875117 340.851674-33.970348 340.851674-33.970348l65.844992 64.947354 53.21117-268.550504L656.977493 276.853043 656.977493 276.853043 656.977493 276.853043zM656.977493 276.853043" fill="#272636" p-id="11630"></path></svg>