<?xml version="1.0" standalone="no"?><!DOCTYPE svg PUBLIC "-//W3C//DTD SVG 1.1//EN" "http://www.w3.org/Graphics/SVG/1.1/DTD/svg11.dtd"><svg t="1706521809120" class="icon" viewBox="0 0 1024 1024" version="1.1" xmlns="http://www.w3.org/2000/svg" p-id="124757" xmlns:xlink="http://www.w3.org/1999/xlink" width="64" height="64"><path d="M602.550857 414.098286c4.096-8.557714 6.656-15.36 10.386286-21.430857 34.56-55.771429 69.266286-111.542857 104.118857-167.131429 14.336-22.857143 22.966857-24.576 46.445714-10.24 52.187429 31.853714 52.150857 31.853714 19.638857 83.931429-29.732571 47.616-59.392 95.378286-89.234285 142.921142-14.299429 22.820571-23.04 24.576-46.445715 10.276572-10.605714-6.4-21.650286-12.324571-31.305142-19.968-5.705143-4.534857-9.069714-12.068571-13.604572-18.358857z m-176.969143 281.782857c-4.242286 8.411429-6.473143 13.824-9.508571 18.651428-35.072 56.429714-70.144 112.786286-105.472 168.96-13.897143 22.125714-22.381714 23.771429-44.726857 10.422858-53.540571-32.182857-53.577143-32.182857-20.48-85.321143 29.622857-47.725714 59.245714-95.451429 89.124571-142.994286 13.787429-22.016 22.710857-23.881143 44.836572-10.496 10.642286 6.4 21.833143 12.214857 31.232 20.114286 6.582857 5.485714 10.422857 14.116571 14.994285 20.662857z m176.64 158.756571c4.534857-9.142857 7.204571-15.945143 10.971429-22.016a42212.571429 42212.571429 0 0 1 104.155428-167.131428c13.641143-21.76 22.857143-23.588571 44.946286-10.313143 53.430857 32.182857 53.430857 32.182857 20.370286 85.248-29.330286 47.030857-58.624 94.098286-88.064 141.092571-15.469714 24.685714-22.966857 26.331429-47.652572 11.190857-10.020571-6.107429-20.48-11.556571-29.476571-18.870857-6.217143-5.010286-10.276571-12.726857-15.286857-19.2zM285.732571 466.651429c-22.235429-15.506286-42.569143-28.050286-60.342857-43.410286-3.949714-3.437714-1.974857-18.834286 2.194286-25.746286 35.913143-59.245714 72.96-117.796571 109.604571-176.603428 9.362286-15.030857 21.650286-19.126857 36.937143-9.472 57.782857 36.315429 63.195429 30.390857 24.502857 90.953142-29.842286 46.701714-58.477714 94.171429-88.429714 140.8-5.339429 8.301714-14.518857 14.116571-24.466286 23.478858z m24.905143-291.657143c1.499429-53.942857 20.918857-81.408 64.073143-94.902857 88.649143-27.757714 178.322286-29.220571 267.922286-5.193143 53.028571 14.153143 77.385143 44.470857 78.665143 91.977143 0.365714 12.836571-1.755429 24.429714-16.822857 26.002285-16.237714 1.718857-22.491429-9.472-22.418286-23.296 0.146286-33.28-20.041143-47.981714-48.566857-55.917714a433.115429 433.115429 0 0 0-235.739429 0.256c-28.964571 8.045714-48.128 23.149714-47.981714 56.173714 0.073143 14.043429-7.168 26.331429-22.564572 22.052572-8.301714-2.304-13.897143-14.226286-16.566857-17.152z m381.074286 379.392c0-16.749714 0.073143-33.499429 0-50.249143-0.073143-13.494857 2.56-25.819429 18.907429-26.697143 16.128-0.841143 21.321143 10.386286 21.504 24.32 0.438857 34.962286 0.512 69.961143 0.548571 104.96 0 13.970286-5.046857 25.051429-21.101714 24.539429-14.921143-0.512-18.834286-11.190857-18.651429-24.393143 0.182857-17.481143 0.036571-34.962286 0.036572-52.48h-1.243429z m-347.940571 0.219428c0 18.212571 1.901714 36.754286-0.841143 54.528-1.316571 8.192-11.776 14.994286-18.102857 22.381715-6.948571-6.875429-19.492571-13.421714-19.931429-20.662858a1131.52 1131.52 0 0 1-0.731429-113.590857c0.292571-6.912 11.776-13.385143 18.102858-20.004571 6.875429 6.802286 18.468571 12.909714 19.675428 20.626286 2.925714 18.505143 0.950857 37.741714 0.950857 56.722285h0.877715z" fill="#FFBF00" p-id="124758"></path></svg>