<?xml version="1.0" standalone="no"?><!DOCTYPE svg PUBLIC "-//W3C//DTD SVG 1.1//EN" "http://www.w3.org/Graphics/SVG/1.1/DTD/svg11.dtd"><svg t="1706522375549" class="icon" viewBox="0 0 1024 1024" version="1.1" xmlns="http://www.w3.org/2000/svg" p-id="129869" xmlns:xlink="http://www.w3.org/1999/xlink" width="64" height="64"><path d="M832.896 287.968C741.472 233.792 628.8 222.4 550.4 222.4c-8.608 0-17.504 0.224-26.464 0.704l-15.712 0.832-6.368 14.368c-77.824 175.808-76.96 379.872 2.336 559.904l6.304 14.272 19.232 1.184c7.136 0.448 11.424 0.704 20.672 0.704 109.568 0 209.952-24.192 282.656-68.096C920.288 693.632 966.4 614.816 966.4 518.4c0-98.944-46.176-178.624-133.504-230.432zM550.4 763.2c-2.144 0-3.904 0-5.504-0.032-65.28-158.272-66.176-334.912-2.464-489.472 2.688-0.064 5.344-0.064 7.968-0.064 101.792 0 192.832 20.736 256.384 58.432C878.72 374.688 915.2 437.376 915.2 518.4c0 180.672-196.512 244.8-364.8 244.8zM86.4 297.6h304c30.88 0 30.944-48 0-48H86.4c-30.88 0-30.944 48 0 48zM400 736H86.4c-30.88 0-30.944 48 0 48h313.6c30.88 0 30.944-48 0-48zM86.4 419.2h272c30.88 0 30.944-48 0-48H86.4c-30.88 0-30.944 48 0 48zM86.4 540.8h240c30.88 0 30.944-48 0-48H86.4c-30.88 0-30.944 48 0 48zM86.4 662.4h272c30.88 0 30.944-48 0-48H86.4c-30.88 0-30.944 48 0 48z" fill="#0000ff" p-id="129870"></path><path d="M667.936 374.4l-95.52 259.072h39.2l19.52-56.832h104.544l19.52 56.832h39.2L698.912 374.4h-30.976z m-24.928 167.68l40.416-117.6 40.416 117.6h-80.832z" fill="#0000ff" p-id="129871"></path></svg>