<?xml version="1.0" standalone="no"?><!DOCTYPE svg PUBLIC "-//W3C//DTD SVG 1.1//EN" "http://www.w3.org/Graphics/SVG/1.1/DTD/svg11.dtd"><svg t="1706521038920" class="icon" viewBox="0 0 1024 1024" version="1.1" xmlns="http://www.w3.org/2000/svg" p-id="103489" xmlns:xlink="http://www.w3.org/1999/xlink" width="64" height="64"><path d="M152.393143 324.059429v291.547428h563.602286V324.059429H152.393143zM110.08 656.457143V281.051429h96.694857V230.107429h105.984v48.713142h241.773714V229.778286h106.093715v50.541714h96.658285V656.457143H110.08z m480.219429-162.925714v-42.532572h-43.52v-37.485714l42.422857-2.304v-41.691429h35.657143v41.837715h44.434285v38.290285H627.2l-2.413714 43.885715h-34.450286zM198.875429 413.696v34.742857h123.465142v-34.742857H198.875429z m91.648 374.491429v-39.460572h606.72v-336.054857h40.484571v375.515429H290.523429zM806.034286 346.660571h41.435428v375.588572H201.069714v-37.961143H806.034286V346.660571z" fill="#FFBF00" p-id="103490"></path></svg>