<?xml version="1.0" standalone="no"?><!DOCTYPE svg PUBLIC "-//W3C//DTD SVG 1.1//EN" "http://www.w3.org/Graphics/SVG/1.1/DTD/svg11.dtd"><svg t="1703571644695" class="icon" viewBox="0 0 1024 1024" version="1.1" xmlns="http://www.w3.org/2000/svg" p-id="45345" width="16" height="16" xmlns:xlink="http://www.w3.org/1999/xlink"><path d="M209.368 493l218.925 164.206V608.42c0-14.912 12.088-27 27-27h377.182V404.578H455.299c-14.911 0-27-12.088-27-27l-0.003-23.523v-25.262L209.367 493.001z m269.45 138.946v75.789c0 13.952-11.31 25.263-25.262 25.263a25.263 25.263 0 0 1-15.159-5.053L152.106 513.21c-11.162-8.372-13.423-24.207-5.051-35.369a25.263 25.263 0 0 1 5.051-5.051l286.291-214.734c11.162-8.372 26.997-6.11 35.369 5.051a25.263 25.263 0 0 1 5.053 15.159l0.004 75.785h353.652c27.904 0 50.526 22.622 50.526 50.526V581.42c0 27.905-22.622 50.526-50.526 50.526H478.819z" fill="#1afa29" p-id="45346"></path></svg>