<?xml version="1.0" standalone="no"?><!DOCTYPE svg PUBLIC "-//W3C//DTD SVG 1.1//EN" "http://www.w3.org/Graphics/SVG/1.1/DTD/svg11.dtd"><svg t="1706518988160" class="icon" viewBox="0 0 1024 1024" version="1.1" xmlns="http://www.w3.org/2000/svg" p-id="53454" xmlns:xlink="http://www.w3.org/1999/xlink" width="64" height="64"><path d="M779.629714 645.12c58.733714-87.661714 68.608-266.642286-66.450285-384.365714a311.222857 311.222857 0 0 0-425.764572 15.36c-96 96.768-123.062857 282.697143-49.517714 365.312l22.016-56.905143h25.6c5.339429 38.034286 18.724571 71.460571 62.939428 71.460571 44.361143 0 57.088-34.048 63.341715-71.497143h28.196571c5.12 37.961143 18.724571 71.168 62.683429 71.460572 45.202286 0.292571 57.856-34.669714 63.890285-71.021714h27.355429c11.337143 49.664 28.269714 70.509714 60.379429 71.021714 11.776 0.219429 27.794286-2.304 34.523428-10.020572 15.067429-17.334857 25.526857-38.656 39.716572-61.293714h19.748571c6.070857 23.149714 8.265143 47.250286 31.341714 60.525714m-273.444571 215.003429c-202.166857-0.731429-363.044571-164.315429-362.057143-368.201143 0.914286-200.082286 165.668571-361.508571 367.945143-360.630857 200.265143 0.877714 361.545143 165.12 360.886857 367.542857-0.694857 200.886857-164.205714 361.984-366.774857 361.289143z m290.413714-662.381714c83.053714 84.443429 126.72 183.588571 125.805714 300.617143-0.877714 117.650286-46.592 216.612571-130.157714 299.300571l35.145143 40.155429c205.312-185.197714 193.133714-510.793143 6.656-679.753143l-37.449143 39.68zM182.710857 157.257143l36.937143 39.570286C49.371429 365.714286 55.332571 633.161143 224.621714 797.732571l-33.389714 38.765715c-180.297143-146.285714-220.16-478.171429-8.521143-679.204572z" fill="#FF0000" p-id="53455"></path></svg>