<?xml version="1.0" standalone="no"?><!DOCTYPE svg PUBLIC "-//W3C//DTD SVG 1.1//EN" "http://www.w3.org/Graphics/SVG/1.1/DTD/svg11.dtd"><svg t="1710409709155" class="icon" viewBox="0 0 1024 1024" version="1.1" xmlns="http://www.w3.org/2000/svg" p-id="50695" xmlns:xlink="http://www.w3.org/1999/xlink" width="64" height="64"><path d="M610.742857 457.142857c-21.942857 0-40.228571-18.285714-40.228571-40.228571 0-21.942857 18.285714-40.228571 40.228571-40.228572 21.942857 0 40.228571 18.285714 40.228572 40.228572 3.657143 21.942857-14.628571 40.228571-40.228572 40.228571zM314.514286 512c10.971429 40.228571 36.571429 124.342857 36.571428 160.914286 0 7.314286 7.314286 7.314286 7.314286 7.314285h157.257143c10.971429 0 21.942857 10.971429 21.942857 21.942858 0 3.657143 0 7.314286-3.657143 10.971428l-14.628571 40.228572H285.257143l-47.542857-288.914286v-95.085714h21.942857c7.314286 0 25.6 3.657143 29.257143 21.942857 3.657143 7.314286 0 40.228571-3.657143 54.857143 3.657143-3.657143 18.285714 32.914286 29.257143 65.828571z m21.942857 182.857143c-3.657143-43.885714-25.6-135.314286-36.571429-175.542857-10.971429-32.914286-25.6-65.828571-25.6-69.485715l-3.657143-3.657142v-3.657143c0-10.971429 3.657143-29.257143 3.657143-40.228572v-3.657143c0-7.314286-7.314286-7.314286-10.971428-7.314285H256v76.8c0 3.657143 40.228571 248.685714 43.885714 274.285714H512c3.657143-10.971429 10.971429-29.257143 10.971429-29.257143v-3.657143c0-3.657143-3.657143-3.657143-3.657143-3.657143H347.428571c0-7.314286-10.971429-7.314286-10.971428-10.971428z m299.885714-117.028572l-47.542857 51.2-36.571429 32.914286h-131.657142s29.257143-18.285714 36.571428-25.6h58.514286c18.285714 0 29.257143-10.971429 36.571428-21.942857l58.514286-69.485714 25.6-29.257143c14.628571-18.285714 32.914286-58.514286 36.571429-65.828572 3.657143-7.314286 3.657143-18.285714 10.971428-18.285714 3.657143 0 7.314286 3.657143 7.314286 14.628572 0 10.971429 3.657143 36.571429-7.314286 58.514285-14.628571 29.257143-32.914286 51.2-47.542857 73.142857z m-128-7.314285l69.485714-91.428572c7.314286-10.971429 21.942857-14.628571 36.571429-7.314285 10.971429 7.314286 14.628571 21.942857 7.314286 36.571428l-76.8 98.742857c-3.657143 7.314286-14.628571 18.285714-25.6 18.285715h-62.171429l-40.228571 25.6c-10.971429 7.314286-25.6 3.657143-32.914286-3.657143-10.971429-10.971429-7.314286-25.6 3.657143-36.571429l54.857143-36.571428 65.828571-3.657143z m351.085714-51.2c0 51.2-10.971429 98.742857-29.257142 142.628571-65.828571-14.628571-113.371429-73.142857-113.371429-138.971428 0-69.485714 51.2-128 117.028571-138.971429 14.628571 36.571429 25.6 84.114286 25.6 135.314286z m-128 0c0 54.857143 36.571429 102.4 87.771429 120.685714 14.628571-40.228571 25.6-80.457143 25.6-120.685714 0-40.228571-7.314286-80.457143-21.942857-120.685715-54.857143 18.285714-91.428571 65.828571-91.428572 120.685715z" fill="" p-id="50696"></path><path d="M786.285714 731.428571L307.2 256c65.828571-54.857143 138.971429-76.8 215.771429-76.8 186.514286 0 340.114286 153.6 340.114285 340.114286-3.657143 80.457143-32.914286 153.6-76.8 212.114285M182.857143 519.314286c0-80.457143 25.6-157.257143 76.8-215.771429l479.085714 475.428572c-62.171429 51.2-138.971429 76.8-215.771428 76.8-190.171429 3.657143-340.114286-149.942857-340.114286-336.457143m340.114286-427.885715C285.257143 91.428571 95.085714 281.6 95.085714 519.314286c0 237.714286 190.171429 427.885714 427.885715 427.885714S950.857143 753.371429 950.857143 519.314286c0-237.714286-193.828571-427.885714-427.885714-427.885715" fill="#FFBF00" p-id="50697" data-spm-anchor-id="a313x.search_index.0.i26.86ab3a81cLYb65" class="selected"></path></svg>