<?xml version="1.0" standalone="no"?><!DOCTYPE svg PUBLIC "-//W3C//DTD SVG 1.1//EN" "http://www.w3.org/Graphics/SVG/1.1/DTD/svg11.dtd"><svg t="1704420187005" class="icon" viewBox="0 0 1024 1024" version="1.1" xmlns="http://www.w3.org/2000/svg" p-id="42308" xmlns:xlink="http://www.w3.org/1999/xlink" width="64" height="64"><path d="M500.406857 968.448c-35.693714-3.766857-71.094857-7.424-106.496-11.337143-9.764571-1.060571-11.702857-10.057143-15.323428-16.969143-31.780571-61.074286-58.514286-124.269714-76.324572-190.866285-3.986286-14.884571-8.045714-17.554286-21.577143-9.508572-29.622857 17.554286-58.953143 35.547429-85.174857 57.782857-13.092571 11.008-21.028571 12.726857-33.206857-1.645714-21.065143-24.795429-22.052571-23.954286 1.133714-48.201143 35.876571-37.485714 71.789714-74.971429 107.629715-112.493714 5.485714-5.741714 11.885714-10.825143 10.971428-20.297143-4.132571-41.947429 11.008-80.64 20.845714-120.173714 12.288-49.627429 25.417143-99.035429 37.668572-148.736 2.816-11.593143 8.411429-18.797714 19.419428-23.954286 29.110857-13.641143 57.636571-28.489143 86.345143-42.934857 21.577143-10.898286 25.6-31.012571 8.704-48.786286-31.707429-33.426286-39.021714-72.777143-27.611428-115.858286 14.518857-54.674286 67.218286-86.893714 121.453714-75.702857 56.758857 11.702857 92.708571 66.816 83.492571 128-3.620571 23.844571-12.653714 45.458286-30.354285 61.842286-10.24 9.398857-10.496 19.492571-10.057143 31.524571 0.365714 9.033143 5.485714 12.434286 12.251428 16.091429 8.448 4.461714 12.068571-1.682286 16.457143-6.217143 35.949714-37.449143 72.411429-74.422857 107.446857-112.64 11.410286-12.434286 18.285714-13.677714 30.793143-1.353143 26.404571 25.892571 27.209143 25.234286 2.048 51.309715-27.392 28.452571-54.637714 57.051429-82.541714 84.918857-9.654857 9.691429-14.262857 17.188571 2.706286 22.345143 26.221714 8.045714 35.547429 26.989714 41.069714 52.736 12.434286 57.819429 27.209143 115.2 42.934857 172.251428a272.347429 272.347429 0 0 1 6.326857 112.859429c-2.669714 18.212571 3.035429 25.782857 18.468572 33.060571 41.179429 19.382857 77.933714 45.897143 113.993143 73.508572 11.337143 8.667429 10.752 13.568 1.609142 23.442285-25.234286 27.318857-24.649143 27.611429-54.089142 4.790857a548.096 548.096 0 0 0-77.238858-49.92c-10.349714-5.558857-15.542857-7.497143-19.273142 7.131429-17.408 68.315429-47.177143 131.84-77.385143 195.218286-6.144 12.873143-13.860571 18.285714-28.086857 19.2-31.158857 2.048-62.171429 6.107429-96.731429 9.691428 7.826286-16.091429 13.933714-29.147429 20.406857-41.984 24.502857-48.274286 44.141714-98.596571 61.805714-149.76 3.876571-11.446857 1.645714-15.250286-9.728-17.846857-64.548571-14.628571-128.987429-13.970286-193.682285-1.170286-14.738286 2.925714-14.116571 9.764571-10.093715 21.577143a1211.465143 1211.465143 0 0 0 70.985143 167.204572c3.291429 6.253714 8.557714 11.922286 8.045715 21.869714z m239.616-360.813714a174.299429 174.299429 0 0 0-5.595428-47.981715c-15.616-60.818286-32.329143-121.417143-44.909715-182.857142-5.485714-26.587429-24.795429-32.987429-43.337143-40.265143-15.140571-5.924571-20.260571 12.726857-29.622857 20.48-8.996571 7.424-16.530286 16.530286-24.649143 24.941714-76.763429 79.213714-153.453714 158.500571-230.4 237.531429-7.277714 7.460571-13.165714 15.286857-7.241142 24.758857 5.412571 8.594286 13.202286 0.731429 19.565714-0.914286 107.885714-28.086857 215.296-26.989714 322.340571 3.876571 42.825143 12.324571 42.715429 12.726857 43.885715-39.570285z m-423.789714-27.136l7.314286 5.741714c3.035429-5.010286 5.229714-10.825143 9.142857-14.994286 79.725714-83.565714 159.378286-167.168 239.689143-250.148571 11.812571-12.214857 13.714286-18.907429-4.022858-24.685714-4.900571-1.572571-9.947429-4.278857-9.472-10.605715 2.304-28.672-11.849143-59.062857 19.748572-83.785143 25.380571-19.858286 26.989714-61.257143 12.068571-91.538285-13.421714-27.282286-38.912-41.618286-70.034285-38.582857-29.147429 2.779429-49.078857 18.944-58.258286 46.153142-11.044571 32.694857-8.411429 64.585143 18.797714 88.649143 14.299429 12.653714 19.2 25.965714 17.408 43.739429a136.996571 136.996571 0 0 0-0.365714 26.258286c0.950857 11.117714-3.291429 17.261714-13.421714 21.942857-23.771429 11.117714-46.372571 25.307429-70.802286 34.633143-30.098286 11.52-44.946286 30.610286-51.565714 62.756571-12.8 62.025143-30.537143 123.026286-46.226286 184.466286z m126.756571 345.344a1735.424 1735.424 0 0 1-63.195428-162.486857c-6.765714-20.589714-1.206857-27.428571 18.468571-32.621715a491.264 491.264 0 0 1 266.313143 2.998857c15.469714 4.461714 17.188571 10.130286 12.653714 24.173715a1467.538286 1467.538286 0 0 1-64.841143 167.753143c27.977143 1.645714 32.841143 0.548571 39.131429-12.251429 28.598857-58.441143 54.784-117.869714 71.424-181.138286 3.145143-11.958857 2.779429-18.285714-10.313143-22.966857-122.258286-43.593143-244.370286-46.701714-366.811428-0.694857-14.226286 5.339429-16.347429 11.812571-12.361143 26.038857 16.091429 57.234286 38.656 111.762286 63.012571 165.778286 9.179429 20.297143 21.394286 29.915429 46.518857 25.417143z" fill="#ff0000" p-id="42309"></path></svg>