<?xml version="1.0" standalone="no"?><!DOCTYPE svg PUBLIC "-//W3C//DTD SVG 1.1//EN" "http://www.w3.org/Graphics/SVG/1.1/DTD/svg11.dtd"><svg t="1706772256004" class="icon" viewBox="0 0 1024 1024" version="1.1" xmlns="http://www.w3.org/2000/svg" p-id="1965" width="64" height="64" xmlns:xlink="http://www.w3.org/1999/xlink"><path d="M450.4832 396.73856C381.91616 302.77632 202.86976 330.13248 202.86976 330.13248l-7.05024 4.4032c45.03552 278.02112 220.37504 264.07936 220.37504 264.07936 99.69152-103.39328 200.00256-154.22976 200.00256-154.22976-122.5984 69.7856-274.2784 293.82656-274.2784 293.82656h55.18336l56.6528-96.78848c309.90848 89.68192 374.46144-340.57728 374.46144-340.57728-330.09664-64.0512-377.73312 95.89248-377.73312 95.89248z" fill="#00FF00" p-id="1966"></path><path d="M778.3936 192.73216a20.84864 20.84864 0 0 0-5.632-0.82944H256.00512c-119.49568 0-163.13344 137.63584-164.9408 143.56992a20.9408 20.9408 0 0 0-0.80384 5.67296v324.56192c0.88064 130.23232 155.2384 164.58752 161.84832 166.05184 1.31584 0.26112 2.61632 0.34816 3.89632 0.34816h516.7616c114.06848 0 158.45888-141.44 160.27136-147.5584 0.47104-1.72032 0.71168-3.6096 0.71168-5.5296V342.55872c-0.00512-99.77856-148.89472-147.78368-155.35616-149.82656z m117.08928 483.24096c-5.888 17.2288-43.78112 117.888-122.72128 117.888H258.26304c-16.64-3.97824-129.13664-34.35008-129.82272-128.31232V344.12544c6.09792-17.06496 43.56096-113.98144 127.5648-113.98144h513.71008c37.4784 12.47232 125.76768 54.17984 125.76768 112.4096v333.41952z" fill="#00FF00" p-id="1967"></path><path d="M756.12672 715.09504c4.1984-4.40832 13.78816-12.9792 28.5696-25.40032 17.8688-15.04768 30.5408-26.81856 38.25152-35.52256 7.58784-8.58112 13.13792-16.83968 16.44032-24.63232 3.23072-7.78752 4.96128-15.7184 4.96128-23.808 0-15.85152-5.62176-29.14816-16.91136-39.92064-11.35104-10.71104-26.60864-16.06144-46.00832-16.06144-19.13856 0-34.45248 5.03808-45.8496 14.86848-11.35104 9.98912-17.87904 24.50944-19.6096 43.4688l25.41056 2.65216c0.128-12.70784 3.72224-22.5792 10.92096-29.75232 7.10144-7.15776 16.72192-10.71104 28.63104-10.71104 11.24864 0 20.40832 3.4304 27.4176 10.08128 7.04 6.76864 10.55232 15.02208 10.55232 24.79104 0 9.40032-3.91168 19.31776-11.61216 29.9008-7.71072 10.4704-22.50752 24.70912-44.43136 42.73152-14.05952 11.48928-24.93952 21.64224-32.39936 30.5408-7.4496 8.77056-12.8512 17.69984-16.31232 26.81856a42.05056 42.05056 0 0 0-2.86208 17.16224h133.2992v-23.78752h-98.93888a85.2224 85.2224 0 0 1 10.48064-13.41952z" fill="#00FF00" p-id="1968"></path></svg>