<?xml version="1.0" standalone="no"?><!DOCTYPE svg PUBLIC "-//W3C//DTD SVG 1.1//EN" "http://www.w3.org/Graphics/SVG/1.1/DTD/svg11.dtd"><svg t="1703576526472" class="icon" viewBox="0 0 1024 1024" version="1.1" xmlns="http://www.w3.org/2000/svg" p-id="45468" width="32" height="32" xmlns:xlink="http://www.w3.org/1999/xlink"><path d="M312.9344 507.904a94.0032 94.0032 0 0 1-93.9008-93.9008 94.0288 94.0288 0 0 1 93.9008-93.9008 94.0288 94.0288 0 0 1 93.9008 93.9008 94.0032 94.0032 0 0 1-93.9008 93.9008z m0-126.4128c-17.92 0-32.4608 14.592-32.4608 32.4608 0 17.8688 14.592 32.4608 32.4608 32.4608 17.92 0 32.4608-14.592 32.4608-32.4608a32.512 32.512 0 0 0-32.4608-32.4608z m261.3248 342.784H265.0624a30.7456 30.7456 0 0 1 0-61.44h309.1968a30.7456 30.7456 0 0 1 0 61.44z m373.5552-397.568c26.5216 15.0528 42.2912 42.496 42.3424 73.3696v264.192a83.3024 83.3024 0 0 1-42.2912 73.3696 80.2304 80.2304 0 0 1-81.6128-0.8704l-27.2896-16.2304v44.2368c0 67.9936-54.0672 123.3408-120.4736 123.3408H172.3904c-66.4064 0-120.4736-55.3472-120.4736-123.3408V279.552c0-67.9936 54.0672-123.3408 120.4736-123.3408h546.048c66.4064 0 120.4736 55.3472 120.4736 123.3408v64.256l27.2896-16.2304a80.2304 80.2304 0 0 1 81.6128-0.8704z m-229.3248 499.968c32.5632 0 59.0336-27.8016 59.0336-61.9008v-56.7808a33.9968 33.9968 0 0 1-0.1536-3.2256V385.8944c0-1.0752 0.0512-2.1504 0.1536-3.2256V279.552c0-34.1504-26.4704-61.9008-59.0336-61.9008H172.3904c-32.5632 0-59.0336 27.7504-59.0336 61.9008v485.2224c0 34.1504 26.4704 61.9008 59.0336 61.9008h546.0992z m210.176-162.4576V400.128a22.144 22.144 0 0 0-11.2128-19.968 18.944 18.944 0 0 0-19.8144 0.2048l-58.88 35.072v233.472l58.88 35.072c8.6016 5.0688 16.0768 2.304 19.8144 0.2048a22.144 22.144 0 0 0 11.2128-19.968z" fill="#2c2c2c" p-id="45469"></path></svg>