<?xml version="1.0" standalone="no"?><!DOCTYPE svg PUBLIC "-//W3C//DTD SVG 1.1//EN" "http://www.w3.org/Graphics/SVG/1.1/DTD/svg11.dtd"><svg t="1703576455446" class="icon" viewBox="0 0 1024 1024" version="1.1" xmlns="http://www.w3.org/2000/svg" p-id="42913" width="32" height="32" xmlns:xlink="http://www.w3.org/1999/xlink"><path d="M766.59 488.777h-63.48c0 26.138-7.468 52.277-14.937 74.681l44.81 44.809c22.403-33.607 33.606-74.681 33.606-119.49zM617.226 496.244V264.731c0-63.48-48.544-112.022-112.023-112.022-63.48 0-112.022 48.544-112.022 112.022v7.468l224.045 224.045zM217.68 190.05l-48.543 48.543 224.044 224.045v26.138c0 63.479 48.543 112.022 112.022 112.022 7.468 0 14.936 0 26.139-3.734l63.48 63.48c-26.139 11.201-56.011 18.67-85.885 18.67-104.554 0-197.905-78.416-197.905-190.438h-67.214c0 126.959 100.82 231.513 224.045 250.183v123.225h74.68V738.959c33.607-3.734 67.214-18.67 93.353-33.606l156.83 156.83 48.544-48.543-623.59-623.59z" p-id="42914" fill="#2c2c2c"></path></svg>