<?xml version="1.0" standalone="no"?><!DOCTYPE svg PUBLIC "-//W3C//DTD SVG 1.1//EN" "http://www.w3.org/Graphics/SVG/1.1/DTD/svg11.dtd"><svg t="1706521542589" class="icon" viewBox="0 0 1024 1024" version="1.1" xmlns="http://www.w3.org/2000/svg" p-id="119598" xmlns:xlink="http://www.w3.org/1999/xlink" width="64" height="64"><path d="M362.666667 469.397333c14.122667-11.050667 41.088-32.896 69.952-51.712l2.816 50.005334c-11.690667 8.384-25.002667 18.389333-40.234667 30.421333l-6.229333 4.885333-9.92 7.765334-12.544 1.130666c-214.613333 19.456-255.637333 39.466667-267.477334 56.469334-13.034667 18.752-13.674667 29.354667-13.696 70.186666 3.392 6.165333 22.570667 19.84 53.333334 19.84h28.821333l10.752 26.730667A63.68 63.68 0 0 0 237.504 725.333333a64 64 0 0 0 58.581333-38.442666L307.264 661.333333H425.472v42.666667h-90.304a106.624 106.624 0 0 1-97.664 64A106.517333 106.517333 0 0 1 138.666667 701.056C85.333333 701.056 42.666667 671.104 42.666667 640c0-42.666667 0-65.322667 21.333333-96s64-53.333333 298.666667-74.602667zM960 490.666667c-32-21.333333-32-21.333333-85.333333-53.333334 0 0-2.666667-25.770667-21.333334-32-47.018667-15.68-153.92-19.904-260.053333-20.970666l-2.410667 42.602666c86.442667 0.832 193.536 4.053333 241.450667 16.64l0.938667 18.666667 19.434666 11.669333c49.109333 29.461333 52.245333 31.338667 78.016 48.512 7.210667 21.44 4.053333 84.672-5.44 103.168-6.464 4.8-26.069333 12.544-42.090666 16.490667l-26.069334 6.357333-5.568 26.24A64.021333 64.021333 0 0 1 789.333333 725.333333a64 64 0 0 1-58.581333-38.442666L719.573333 661.333333H598.528v42.666667h93.141333A106.624 106.624 0 0 0 789.333333 768c51.264 0 93.717333-36.266667 103.957334-84.458667 0 0 53.482667-13.013333 66.709333-32.874666 21.333333-32 24.704-143.530667 0-160z m-404.138667 137.578666h-87.722666V725.333333h87.722666v-97.088z m-72.618666-70.464h57.536L560.192 213.333333h-96.362667l19.413334 344.448z m-237.034667 423.68l31.658667-59.498666 31.424 59.498666h35.989333l-46.784-86.613333 45.589333-84.202667h-33.109333l-30.229333 57.109334-30.229334-57.109334h-35.989333l45.333333 84.202667L213.333333 981.461333h32.874667z m232.682667 0l31.658666-59.498666 31.424 59.498666h35.989334l-46.784-86.613333 45.589333-84.202667h-33.130667l-30.229333 57.109334-30.229333-57.109334h-35.989334l45.333334 84.202667-46.549334 86.613333h32.917334z m232.682666 0l31.658667-59.498666 31.445333 59.498666H810.666667l-46.762667-86.613333 45.589333-84.202667h-33.130666l-30.208 57.109334-30.229334-57.109334h-36.010666l45.354666 84.202667-46.549333 86.613333h32.853333z" fill="#FF0000" p-id="119599"></path></svg>