<?xml version="1.0" standalone="no"?><!DOCTYPE svg PUBLIC "-//W3C//DTD SVG 1.1//EN" "http://www.w3.org/Graphics/SVG/1.1/DTD/svg11.dtd"><svg t="1710742991051" class="icon" viewBox="0 0 1024 1024" version="1.1" xmlns="http://www.w3.org/2000/svg" p-id="4244" width="64" height="64" xmlns:xlink="http://www.w3.org/1999/xlink"><path d="M749.216 892.096l-27.136-43.424C839.008 775.584 908.8 649.728 908.8 512c0-133.216-66.336-256.832-177.408-330.688l28.352-42.624C885.12 222.048 960 361.6 960 512c0 155.488-78.784 297.568-210.784 380.096zM274.784 892.128C142.816 809.568 64 667.488 64 512c0-150.4 74.88-289.952 200.256-373.312l28.352 42.624C181.536 255.168 115.2 378.784 115.2 512c0 137.728 69.792 263.584 186.72 336.704l-27.136 43.424z" fill="#FFBF00" p-id="4245"></path><path d="M512 848c-185.28 0-336-150.72-336-336S326.72 176 512 176s336 150.72 336 336-150.72 336-336 336z m0-620.8c-157.024 0-284.8 127.776-284.8 284.8 0 157.056 127.776 284.8 284.8 284.8 157.056 0 284.8-127.744 284.8-284.8 0-157.024-127.744-284.8-284.8-284.8z" fill="#FFBF00" p-id="4246"></path><path d="M427.296 683.456V346.944h101.696c24.992 0 47.136 3.2 66.464 9.6 19.328 6.4 34.496 17.024 45.504 31.904 11.008 14.88 16.512 34.944 16.512 60.224 0 24.544-5.472 44.704-16.384 60.544-10.912 15.84-25.952 27.616-45.056 35.328-19.104 7.744-40.768 11.584-65.024 11.584h-50.848v127.328h-52.864z m52.864-169.92h45.728c26.912 0 46.88-5.28 59.872-15.84 13.024-10.56 19.52-26.912 19.52-49.056s-6.848-37.504-20.512-46.048c-13.696-8.544-33.888-12.832-60.672-12.832h-43.936v123.776z" fill="#FFBF00" p-id="4247"></path><path d="M252.2912 697.0688l454.4-454.4 36.2048 36.2016-454.4 454.4z" fill="#FFBF00" p-id="4248"></path></svg>