<?xml version="1.0" standalone="no"?><!DOCTYPE svg PUBLIC "-//W3C//DTD SVG 1.1//EN" "http://www.w3.org/Graphics/SVG/1.1/DTD/svg11.dtd"><svg t="1710743158878" class="icon" viewBox="0 0 1024 1024" version="1.1" xmlns="http://www.w3.org/2000/svg" p-id="18938" xmlns:xlink="http://www.w3.org/1999/xlink" width="64" height="64"><path d="M511.63648 702.58688c163.45088 0 295.94112-132.49024 295.94112-295.99232 0-163.49696-132.49024-295.9872-295.94112-295.9872-163.49696 0-295.9872 132.49024-295.9872 295.9872 0 163.50208 132.49024 295.99232 295.9872 295.99232z m0-540.82048c135.2192 0 244.83328 109.61408 244.83328 244.82816 0 135.2192-109.61408 244.83328-244.83328 244.83328-135.21408 0-244.82816-109.61408-244.82816-244.83328-0.00512-135.21408 109.61408-244.82816 244.82816-244.82816z" fill="#FFBF00" p-id="18939"></path><path d="M807.57248 145.31584l-32.80384 32.90112c186.32704 242.98496 0 473.21088 0 473.21088l32.80384 27.40224c232.08448-292.33664 0-533.51424 0-533.51424zM249.28256 651.42784s-186.32704-230.23104 0-473.21088l-32.90112-32.90112s-231.98208 241.1776 0 533.51424l32.90112-27.40224zM447.19104 465.93024H359.5776v-48.57344h78.9504v-16.74752H359.5776v-43.70944h84.25984v-16.83968H340.69504v142.71488h106.496zM492.16512 424.7552h36.5568c20.1984 0 34.1248-4.23936 41.86112-12.61056 7.74144-8.3712 11.63264-18.688 11.63264-30.81216 0-7.05536-1.4592-13.53216-4.3776-19.47136-2.82624-5.888-6.72256-10.46528-11.43808-13.7728-4.72064-3.26144-10.60864-5.49888-17.57184-6.66624-4.9664-0.87552-12.26752-1.36192-21.7088-1.36192H473.28256v142.71488h18.88256V424.7552z m0-67.85536h36.45952c8.56576 0 14.45376 0.38912 17.66912 1.26464 4.9152 1.36704 8.90368 4.14208 11.87328 8.4224 3.0208 4.23424 4.57728 9.3952 4.57728 15.3344 0 8.27392-2.58048 14.60224-7.69024 19.1744-5.16096 4.5824-13.824 6.81472-26.04032 6.81472h-36.84864v-51.01056zM682.86976 480.384c6.23104-1.60256 11.48928-3.9424 15.62624-7.06048 4.18816-3.10784 7.69536-7.54176 10.46528-13.2864a41.42592 41.42592 0 0 0 4.28544-18.64192c0-8.32512-2.33984-15.47776-6.95808-21.61664-4.72576-6.08256-11.3408-10.40896-19.91168-12.94336 6.62528-3.30752 11.68384-7.63904 14.99648-13.04576 3.26144-5.35552 4.9664-11.09504 4.9664-17.2288 0-6.52288-1.89952-12.8-5.65248-18.83648-3.69664-6.03648-8.85248-10.41408-15.43168-13.2864-6.66624-2.9696-15.32928-4.3776-26.28608-4.3776h-53.48864v142.71488h54.41536c9.05728 0 16.7424-0.77824 22.97344-2.39104z m-58.50624-123.48416h28.47744c10.27072 0 17.47456 0.68096 21.75488 2.04288a17.06496 17.06496 0 0 1 9.73312 7.35232c2.24256 3.60448 3.35872 7.78752 3.35872 12.50816 0 4.96128-1.21344 9.14944-3.65056 12.46208s-6.03648 5.69344-10.8544 7.10656c-3.54816 1.1264-9.58464 1.65376-17.96096 1.65376h-30.85824v-43.12576z m0 59.96544h33.00352c9.05216 0 16.01024 0.82944 20.82816 2.33984 4.86912 1.64864 8.66304 4.3776 11.392 8.2688 2.67264 3.98848 4.09088 8.57088 4.09088 13.9264 0 4.57728-0.9728 8.56576-2.82624 12.02688-1.9456 3.45088-4.28544 6.12864-7.24992 7.93088-2.87744 1.84832-6.52288 3.11296-10.8544 3.89632-2.5344 0.4864-6.81472 0.68096-12.85632 0.68096h-35.52768v-49.07008zM323.5584 702.8736c-67.90144-5.64736-104.64768 77.73696-104.64768 77.73696h108.64128v50.08384l-111.90272 2.33472s39.5264 87.61344 107.91424 79.87712c0 0 54.31808 5.60128 89.46176-53.39648l368.85504-0.68096v-99.78368H419.34848s-27.93984-50.51904-95.79008-56.17152z" fill="#FFBF00" p-id="18940"></path></svg>