<?xml version="1.0" standalone="no"?><!DOCTYPE svg PUBLIC "-//W3C//DTD SVG 1.1//EN" "http://www.w3.org/Graphics/SVG/1.1/DTD/svg11.dtd"><svg t="1706519219340" class="icon" viewBox="0 0 1024 1024" version="1.1" xmlns="http://www.w3.org/2000/svg" p-id="61467" xmlns:xlink="http://www.w3.org/1999/xlink" width="64" height="64"><path d="M843.861333 180.138667l-60.458666 60.458666A382.805333 382.805333 0 0 1 896 512c0 105.877333-43.072 201.877333-112.597333 271.402667l60.458666 60.458666C928.810667 758.933333 981.333333 641.6 981.333333 512s-52.522667-246.933333-137.472-331.861333zM128 512c0-105.877333 43.072-201.877333 112.597333-271.402667L180.138667 180.138667C95.189333 265.066667 42.666667 382.4 42.666667 512s52.522667 246.933333 137.472 331.861333l60.458666-60.458666A382.805333 382.805333 0 0 1 128 512z" fill="#ffffff" p-id="61468"></path><path d="M512 213.333333c164.693333 0 298.666667 133.973333 298.666667 298.666667s-133.973333 298.666667-298.666667 298.666667-298.666667-133.973333-298.666667-298.666667 133.973333-298.666667 298.666667-298.666667m0-42.666666C323.477333 170.666667 170.666667 323.477333 170.666667 512s152.810667 341.333333 341.333333 341.333333 341.333333-152.810667 341.333333-341.333333S700.522667 170.666667 512 170.666667z" fill="#ffffff" p-id="61469"></path><path d="M547.754667 633.514667l20.544-24.533334-40.896-34.218666-61.44-9.685334-163.605334-136.896a68.053333 68.053333 0 0 1 87.68-38.592l95.978667 36.864a124.096 124.096 0 0 0 61.397333 10.218667l58.133334-5.162667 147.264 123.2-13.76 25.237334c-20.842667 38.229333-48.192 78.848-88.917334 97.472 0 0.085333-20.522667 24.554667-20.522666 24.554666l-81.856-68.458666zM247.552 493.610667l27.370667-32.725334 147.242666 123.2-27.370666 32.725334z" fill="#ffffff" p-id="61470"></path></svg>