<?xml version="1.0" standalone="no"?><!DOCTYPE svg PUBLIC "-//W3C//DTD SVG 1.1//EN" "http://www.w3.org/Graphics/SVG/1.1/DTD/svg11.dtd"><svg t="1704420244679" class="icon" viewBox="0 0 1024 1024" version="1.1" xmlns="http://www.w3.org/2000/svg" p-id="43905" xmlns:xlink="http://www.w3.org/1999/xlink" width="64" height="64"><path d="M219.940571 267.995429C221.403429 177.737143 296.228571 104.96 385.133714 107.190857c90.624 2.340571 161.828571 75.849143 160.548572 165.778286-1.316571 89.782857-76.544 162.816-165.522286 160.621714-90.953143-2.267429-161.645714-75.337143-160.182857-165.595428z m543.195429 568.137142H892.708571v59.209143h-224.804571c-4.534857-32.438857-6.363429-61.001143 24.941714-85.504 37.851429-29.586286 71.606857-64.548571 105.837715-98.596571a125.805714 125.805714 0 0 0 27.904-41.142857c12.726857-32.073143-3.730286-63.378286-34.486858-71.021715-30.244571-7.606857-59.355429 13.056-64.914285 46.08-0.987429 5.705143-1.243429 11.446857-1.974857 18.761143h-58.733715c-14.445714-46.153143 25.782857-108.397714 79.616-122.697143 48.237714-12.8 96.731429 3.401143 125.184 41.764572 28.379429 38.290286 31.744 91.062857 5.266286 131.876571-12.946286 19.968-29.878857 37.741714-46.884571 54.674286-21.650286 21.540571-45.238857 41.142857-68.022858 61.586286l1.462858 5.010285z m-285.476571-183.588571c-40.594286-13.677714-76.324571-25.856-112.164572-37.778286-28.233143-9.362286-38.912-5.888-56.246857 17.810286-33.170286 45.385143-65.865143 91.099429-99.657143 136.082286-7.168 9.581714-16.896 18.870857-27.501714 23.771428-16.969143 7.936-34.523429 4.498286-48.822857-8.557714-15.36-13.970286-16.274286-31.963429-11.337143-50.541714 1.645714-6.217143 5.010286-12.288 8.777143-17.517715 48.493714-66.742857 97.206857-133.412571 145.883428-200.045714 12.653714-17.261714 29.915429-25.088 51.126857-24.027428 6.546286 0.256 13.238857 0.841143 19.492572 2.486857 26.660571 7.460571 59.318857 8.374857 78.043428 24.941714 17.883429 15.908571 21.430857 48.091429 30.902858 73.216 6.912 18.358857 13.165714 36.937143 21.504 60.196571z m122.002285-11.556571c-21.613714-61.184-41.545143-116.772571-60.598857-172.617143-1.718857-5.12 0.585143-13.019429 3.620572-18.029715 18.139429-29.988571 36.278857-60.050286 55.808-89.161142 20.662857-30.793143 61.549714-39.058286 93.366857-20.406858 31.232 18.285714 46.336 60.196571 28.964571 91.428572-38.326857 68.827429-78.994286 136.411429-121.161143 208.822857z m153.234286-420.790858a75.812571 75.812571 0 0 1-75.849143 77.056 76.141714 76.141714 0 0 1-76.617143-76.507428 75.922286 75.922286 0 0 1 74.971429-75.812572 75.593143 75.593143 0 0 1 77.531428 75.264z m-294.509714 283.062858l42.642285-22.820572 112.896 311.698286c-3.291429 1.572571-3.913143 2.084571-4.571428 2.157714-42.934857 4.425143-42.971429 4.425143-57.526857-35.072l-87.003429-236.434286c-2.194286-6.034286-4.022857-12.214857-6.436571-19.529142z m307.565714-132.096l-21.723429-42.971429 135.314286-80.457143c0 19.382857 0.621714 34.998857-0.365714 50.468572-0.256 3.949714-4.681143 8.886857-8.521143 11.190857-34.230857 20.589714-68.790857 40.704-104.667429 61.805714z" fill="#ff0000" p-id="43906"></path></svg>