<?xml version="1.0" standalone="no"?><!DOCTYPE svg PUBLIC "-//W3C//DTD SVG 1.1//EN" "http://www.w3.org/Graphics/SVG/1.1/DTD/svg11.dtd"><svg t="1710494796878" class="icon" viewBox="0 0 1024 1024" version="1.1" xmlns="http://www.w3.org/2000/svg" p-id="1617" width="64" height="64" xmlns:xlink="http://www.w3.org/1999/xlink"><path d="M122.185143 411.757714l196.132571 300.068572 87.881143-32.548572-149.613714-327.899428-134.4 60.342857m567.552 300.580571l196.534857-299.008C700.745143 312.576 508.708571 287.744 304.493714 338.907429c3.876571 9.142857 6.436571 15.835429 9.398857 22.308571 42.569143 93.001143 86.052571 185.6 127.341715 279.186286 10.093714 22.857143 20.004571 32.548571 47.396571 30.354285 69.705143-5.558857 136.265143 11.044571 201.106286 41.545143M55.808 400.201143c264.265143-182.491429 642.816-178.139429 898.779429 0.365714l-247.259429 377.563429c-69.266286-43.337143-143.835429-64.365714-230.509714-59.245715 23.186286 32.512 20.845714 75.337143 60.452571 96.109715 20.187429 10.569143 24.466286 38.326857 13.531429 58.148571-11.117714 20.114286-35.437714 28.598857-56.685715 19.675429-21.101714-8.886857-31.305143-31.451429-26.331428-54.308572 1.792-8.338286 1.682286-18.541714-1.499429-26.331428-11.666286-28.233143-24.978286-55.844571-40.228571-89.270857L301.092571 774.217143 55.808 400.201143" fill="#FFBF00" p-id="1618"></path></svg>