<?xml version="1.0" standalone="no"?><!DOCTYPE svg PUBLIC "-//W3C//DTD SVG 1.1//EN" "http://www.w3.org/Graphics/SVG/1.1/DTD/svg11.dtd"><svg t="1706578618786" class="icon" viewBox="0 0 1024 1024" version="1.1" xmlns="http://www.w3.org/2000/svg" p-id="27137" xmlns:xlink="http://www.w3.org/1999/xlink" width="64" height="64"><path d="M238.189714 759.332571c64.877714 94.500571 150.784 139.849143 261.924572 129.243429 87.954286-8.411429 154.770286-53.650286 204.178285-129.462857-54.454857-22.601143-105.581714-44.141714-157.001142-64.804572-4.900571-1.974857-13.092571-0.768-17.664 2.194286-38.436571 24.978286-76.434286 25.453714-115.126858 0.658286-4.754286-3.035429-12.836571-5.156571-17.590857-3.291429-52.150857 20.918857-103.936 42.715429-158.72 65.462857m288.146286-457.545142l-4.169143 48.201142c-211.858286-40.338286-366.811429 169.508571-311.259428 336.018286 51.858286-21.504 103.716571-42.642286 155.099428-64.877714 4.900571-2.121143 8.411429-11.044571 9.618286-17.334857 9.252571-48.054857 47.104-81.481143 94.244571-82.358857 47.835429-0.841143 86.820571 31.963429 97.499429 81.188571 1.536 6.912 5.339429 16.530286 10.715428 18.870857 50.797714 22.125714 102.144 42.934857 155.355429 64.987429 13.129143-39.789714 10.825143-78.628571 5.705143-119.808h50.322286c34.450286 99.657143-32.146286 253.293714-141.092572 324.205714a324.461714 324.461714 0 0 1-398.957714-35.328C140.982857 753.993143 115.236571 590.994286 187.209143 461.531429c67.657143-121.673143 215.844571-192.475429 339.126857-159.744z m132.132571-61.184c-10.020571 1.097143-17.737143 1.865143-26.038857 2.706285-9.142857 25.307429-3.876571 48.786286 4.790857 72.704 10.971429 29.988571 23.625143 59.904 29.513143 91.062857 8.228571 44.105143-12.434286 82.541714-39.936 114.139429-9.142857 10.532571-34.230857 7.168-51.931428 10.130286a411.428571 411.428571 0 0 1-2.852572-5.705143c6.253714-9.472 12.141714-19.163429 18.834286-28.306286 33.682286-45.824 37.083429-93.622857 10.752-144.091428-17.554286-33.645714-27.757714-69.046857-19.2-108.836572l-26.038857-4.352 51.748571-131.657143 50.358857 132.205715z m156.708572 288.219428c8.96-13.531429 14.994286-23.405714 21.76-32.731428 33.097143-45.312 36.059429-92.452571 10.313143-142.116572-17.444571-33.718857-28.233143-69.010286-19.602286-109.056l-25.856-4.973714 51.565714-131.437714 50.468572 131.657142c-9.435429 1.28-17.115429 2.230857-26.075429 3.401143-8.630857 22.710857-5.595429 45.275429 3.181714 67.547429 8.594286 21.723429 19.053714 42.788571 26.185143 64.950857 17.627429 54.747429-1.462857 101.924571-33.426285 145.590857-2.852571 3.876571-9.508571 6.473143-14.628572 6.875429-13.019429 0.950857-26.148571 0.292571-43.885714 0.292571z m-122.294857 0.036572c9.106286-14.08 15.652571-25.161143 23.113143-35.620572 31.817143-44.251429 33.572571-90.258286 9.033142-138.24-17.590857-34.377143-28.818286-70.217143-19.968-110.592l-26.075428-4.132571 51.785143-131.766857 50.212571 131.291428-31.195428 4.937143c2.121143 20.406857 2.852571 41.106286 6.948571 61.147429 2.706286 13.348571 9.691429 25.965714 15.835429 38.4 30.537143 61.586286 21.577143 119.04-18.541715 172.726857-4.388571 5.888-13.458286 10.166857-20.955428 11.337143-11.885714 1.901714-24.210286 0.512-40.228572 0.512z" fill="#00ff00" p-id="27138"></path></svg>