<?xml version="1.0" standalone="no"?><!DOCTYPE svg PUBLIC "-//W3C//DTD SVG 1.1//EN" "http://www.w3.org/Graphics/SVG/1.1/DTD/svg11.dtd"><svg t="1706518810384" class="icon" viewBox="0 0 1024 1024" version="1.1" xmlns="http://www.w3.org/2000/svg" p-id="46389" xmlns:xlink="http://www.w3.org/1999/xlink" width="64" height="64"><path d="M515.072 891.026286C312.758857 890.514286 151.625143 727.113143 152.502857 523.337143c0.841143-200.155429 165.339429-361.837714 367.469714-361.142857 200.411429 0.804571 361.910857 164.827429 361.398858 367.067428-0.548571 201.033143-163.84 362.386286-366.262858 361.764572z m1.462857-52.406857c171.885714 0.292571 311.771429-138.678857 312.246857-310.162286 0.475429-172.982857-138.971429-313.490286-311.332571-313.673143-172.361143-0.146286-312.685714 140.251429-312.502857 312.685714 0.256 171.629714 139.702857 310.857143 311.588571 311.149715z m-57.051428-319.268572c0-37.229714 0.694857-74.459429-0.365715-111.689143-0.365714-14.774857 4.754286-19.017143 18.761143-18.139428 16.713143 1.097143 33.609143-0.219429 50.322286 0.731428 26.88 1.536 47.542857 13.933714 58.953143 38.765715 11.264 24.649143 8.704 48.749714-8.338286 69.924571-7.168 8.923429-8.521143 13.238857 0.950857 22.016 23.149714 21.430857 28.16 49.188571 18.724572 78.409143-9.252571 28.635429-31.561143 43.410286-60.598858 46.518857-20.260571 2.194286-40.850286 0.987429-61.184 2.340571-13.348571 0.914286-17.810286-3.620571-17.554285-17.188571 0.877714-37.229714 0.329143-74.422857 0.329143-111.689143z m36.096 52.662857v28.452572c0 6.034286 0.036571 12.178286 8.374857 12.434285 13.165714 0.475429 26.441143 1.536 38.619428-4.937142 16.530286-8.777143 23.661714-30.354286 16.64-49.627429-6.729143-18.541714-29.513143-30.354286-52.918857-25.088-21.321143 4.827429-6.290286 23.113143-10.642286 34.377143-0.512 1.316571-0.073143 2.925714-0.073142 4.388571z m16.676571-74.605714c29.110857-0.219429 45.714286-14.738286 45.275429-38.144-0.329143-23.259429-17.517714-37.449143-44.251429-38.217143-12.544-0.365714-19.090286 2.486857-17.92 16.786286 1.097143 13.750857 1.097143 27.794286 0 41.581714-1.170286 14.628571 4.205714 20.48 16.896 18.029714z m-103.533714 150.308571c-15.030857 3.072-23.844571-1.938286-24.466286-18.468571-0.512-12.507429-7.021714-17.92-20.041143-16.310857-7.899429 1.024-16.091429 0.877714-24.064 0.073143-17.92-1.938286-30.171429 0.402286-32.146286 23.186285-1.828571 20.845714-20.699429 11.483429-31.597714 11.008-14.262857-0.585143-5.632-12.726857-4.388571-18.651428 15.542857-74.349714 32.475429-148.333714 47.579428-222.72 4.132571-20.297143 17.554286-15.433143 29.659429-15.469714 12.178286 0 25.161143-4.754286 29.110857 15.908571 14.336 74.605714 30.390857 148.845714 46.884571 222.939429 3.730286 16.64-0.548571 21.686857-16.530285 18.468571zM349.988571 454.656c-1.462857 0.146286-2.816 0.292571-4.205714 0.365714-5.924571 29.110857-11.995429 58.148571-17.773714 87.259429-7.168 36.717714-5.046857 38.473143 33.024 34.633143 9.874286-1.024 12.507429-4.498286 10.605714-13.641143-7.314286-36.205714-14.445714-72.411429-21.650286-108.617143z m347.282286 195.547429c-34.048 0.292571-62.244571-20.589714-71.387428-53.540572-1.755429-6.144-8.338286-16.164571 1.718857-18.468571 9.874286-2.230857 23.186286-7.899429 31.232 5.778285 1.097143 1.828571 1.572571 4.132571 2.450285 6.107429 7.826286 18.468571 21.906286 26.88 41.691429 24.393143 19.090286-2.377143 29.988571-14.372571 33.462857-32.621714 3.803429-20.041143-2.084571-36.864-21.248-45.787429-15.762286-7.350857-33.060571-11.52-49.005714-18.724571-28.598857-13.019429-41.142857-40.96-35.181714-75.044572a68.461714 68.461714 0 0 1 61.988571-55.917714c29.147429-2.56 57.856 14.738286 67.437714 42.130286 2.377143 6.802286 11.410286 18.541714-0.804571 21.76-9.691429 2.56-25.307429 9.069714-31.817143-8.045715-6.619429-17.700571-19.017143-25.453714-37.449143-21.979428-14.994286 2.779429-21.723429 13.750857-24.027428 27.794285-2.998857 18.468571 4.937143 31.268571 21.869714 38.253715 11.410286 4.644571 23.405714 8.045714 35.035428 12.251428 36.937143 13.531429 56.137143 49.078857 48.64 89.782857a76.470857 76.470857 0 0 1-74.605714 61.878858z m289.572572-123.904c-1.938286 124.928-45.238857 234.057143-131.913143 326.070857-13.019429 13.787429-22.674286 18.944-34.011429-0.365715a45.824 45.824 0 0 0-10.057143-11.52c-10.788571-8.886857-7.862857-15.250286 1.060572-24.502857 86.564571-89.453714 126.061714-196.754286 117.723428-320.914285-6.582857-96.987429-44.726857-180.736-111.067428-251.392-10.496-11.154286-13.165714-17.078857-1.024-29.184 27.904-27.940571 27.318857-28.818286 53.211428 1.426285 76.178286 88.941714 114.322286 192.256 116.077715 310.381715zM46.994286 524.434286c2.121143-123.172571 44.726857-231.168 128.768-323.072 11.154286-12.214857 17.115429-12.690286 28.233143-0.073143 23.808 27.026286 24.539429 26.404571 0.987428 53.284571a410.953143 410.953143 0 0 0 10.861714 554.642286c15.177143 16.091429 15.433143 24.612571 0.475429 39.570286-20.443429 20.48-19.602286 21.723429-39.716571 0.365714-85.577143-90.806857-127.414857-199.204571-129.609143-324.717714z" fill="#FFBF00" p-id="46390"></path></svg>