<?xml version="1.0" standalone="no"?><!DOCTYPE svg PUBLIC "-//W3C//DTD SVG 1.1//EN" "http://www.w3.org/Graphics/SVG/1.1/DTD/svg11.dtd"><svg t="1706514643634" class="icon" viewBox="0 0 1024 1024" version="1.1" xmlns="http://www.w3.org/2000/svg" p-id="24311" xmlns:xlink="http://www.w3.org/1999/xlink" width="64" height="64"><path d="M524.434286 837.558857c100.937143 0 201.837714 0.146286 302.738285-0.036571 51.821714-0.109714 68.132571-29.44 41.874286-74.532572-99.986286-171.739429-199.936-343.515429-300.032-515.181714-4.754286-8.192-9.691429-16.530286-16.091428-23.405714-17.444571-18.505143-40.155429-18.468571-57.526858 0.182857-6.4 6.875429-11.264 15.286857-16.018285 23.405714-97.828571 168.009143-195.510857 335.981714-293.193143 503.954286-5.12 8.886857-10.605714 17.664-14.628572 26.989714-12.068571 28.233143 0.585143 51.675429 30.610286 57.161143 7.826286 1.389714 15.981714 1.426286 23.990857 1.426286 99.437714 0.073143 198.875429 0 298.313143 0m-1.682286 55.186285c-100.937143 0-201.874286 0.219429-302.811428-0.036571-93.878857-0.219429-136.777143-74.496-89.526857-156.050286 100.681143-173.970286 201.691429-347.721143 303.140571-521.252571 47.981714-82.102857 133.741714-81.700571 181.76 0.658286 101.010286 172.946286 201.362286 346.258286 302.153143 519.314285 15.616 26.770286 24.868571 54.710857 17.408 85.833143-10.532571 44.178286-48.201143 71.204571-100.571429 71.424-103.862857 0.365714-207.725714 0.109714-311.588571 0.109714m-45.897143-360.813714l135.899429-81.334857c-23.844571 89.709714-46.445714 174.921143-70.180572 264.045714 12.946286-6.034286 22.308571-10.349714 37.741715-17.444571l-67.803429 105.179428-25.051429-119.186285c10.715429 9.764571 17.627429 16.091429 27.355429 24.868571l18.395429-189.732571-125.184 73.654857c9.216-34.998857 17.042286-65.170286 25.124571-95.232 15.36-57.051429 31.232-114.066286 46.08-171.300572 3.035429-11.958857 7.606857-17.334857 20.516571-16.676571 18.761143 1.097143 37.595429 0.256 59.977143 0.256l-86.418285 219.867429 3.547428 3.035428" fill="#FF0000" p-id="24312"></path></svg>