<?xml version="1.0" standalone="no"?><!DOCTYPE svg PUBLIC "-//W3C//DTD SVG 1.1//EN" "http://www.w3.org/Graphics/SVG/1.1/DTD/svg11.dtd"><svg t="1706518969973" class="icon" viewBox="0 0 1024 1024" version="1.1" xmlns="http://www.w3.org/2000/svg" p-id="52362" xmlns:xlink="http://www.w3.org/1999/xlink" width="64" height="64"><path d="M508.562286 814.994286c172.032-0.073143 311.515429-138.971429 311.808-310.601143 0.365714-172.873143-139.264-313.161143-311.698286-313.197714-172.288 0-312.612571 140.8-312.064 313.088 0.548571 171.666286 140.214857 310.747429 311.954286 310.710857m-1.792 52.48c-202.349714-0.585143-363.446857-163.84-362.678857-367.652572 0.804571-200.228571 165.302857-361.947429 367.396571-361.216 200.448 0.731429 362.020571 164.754286 361.472 367.030857-0.548571 201.033143-163.84 362.349714-366.189714 361.837715m290.011428-662.235429l37.449143-40.228571c192 177.371429 192.731429 502.125714-7.058286 680.045714l-34.889142-40.118857c83.748571-82.907429 129.353143-181.979429 130.194285-299.593143 0.804571-117.065143-43.008-216.173714-125.696-300.105143M182.454857 164.425143l37.888 40.448c-82.029714 84.114286-126.610286 183.405714-125.513143 301.202286 1.097143 117.101714 46.336 215.332571 129.938286 298.752-5.961143 7.021714-11.483429 13.531429-17.115429 20.041142l-17.188571 19.565715C6.070857 687.542857-24.100571 363.483429 182.454857 164.425143m63.780572 285.220571h81.481142v-44.617143l94.756572 99.474286-93.513143 93.257143v-40.96H246.235429v-107.154286z m525.385142-0.292571v105.837714h-81.188571l-1.755429 38.948572c-30.683429-30.793143-62.171429-62.390857-91.611428-91.830858 27.355429-28.16 58.587429-60.342857 91.428571-94.061714 0.475429 12.8 1.097143 25.965714 1.718857 41.106286H771.657143z m-262.509714 95.049143a40.704 40.704 0 0 1-41.069714-39.899429 40.374857 40.374857 0 0 1 38.912-41.801143 40.301714 40.301714 0 0 1 42.166857 40.777143 40.484571 40.484571 0 0 1-40.009143 40.923429" fill="#FF0000" p-id="52363"></path></svg>