<?xml version="1.0" standalone="no"?><!DOCTYPE svg PUBLIC "-//W3C//DTD SVG 1.1//EN" "http://www.w3.org/Graphics/SVG/1.1/DTD/svg11.dtd"><svg t="1706521330035" class="icon" viewBox="0 0 1024 1024" version="1.1" xmlns="http://www.w3.org/2000/svg" p-id="113034" xmlns:xlink="http://www.w3.org/1999/xlink" width="64" height="64"><path d="M940.218182 386.327273v-102.4h-23.272727v102.4h-62.836364v-102.4h-25.6v102.4h-27.927273s-2.327273 27.927273 0 104.727272c2.327273 79.127273 62.836364 83.781818 62.836364 83.781819v221.090909c-2.327273 13.963636-16.290909 30.254545-51.2 30.254545-25.6 0-39.563636-11.636364-48.872727-23.272727-6.981818-9.309091-9.309091-20.945455-9.309091-30.254546v-165.236363c-9.309091-74.472727-97.745455-81.454545-97.745455-81.454546s6.981818-176.872727 0-209.454545c-4.654545-32.581818-30.254545-37.236364-30.254545-37.236364s-202.472727-2.327273-237.381819 0-34.909091 37.236364-34.90909 37.236364v577.163636h-37.236364v44.218182H698.181818v-44.218182h-41.890909V570.181818c25.6 0 39.563636 16.290909 46.545455 27.927273 4.654545 4.654545 6.981818 11.636364 6.981818 18.618182v169.890909c0 39.563636 32.581818 83.781818 111.709091 83.781818s83.781818-81.454545 83.781818-81.454545l2.327273-214.109091s18.618182-6.981818 37.236363-23.272728 25.6-53.527273 25.6-53.527272v-111.709091h-30.254545z m-328.145455 134.981818h-218.763636V325.818182h218.763636v195.490909zM41.890909 551.563636V651.636364h128v53.527272l118.690909-100.072727-123.345454-104.727273v51.2z" fill="#FFBF00" p-id="113035"></path></svg>