<?xml version="1.0" standalone="no"?><!DOCTYPE svg PUBLIC "-//W3C//DTD SVG 1.1//EN" "http://www.w3.org/Graphics/SVG/1.1/DTD/svg11.dtd"><svg t="1703661423967" class="icon" viewBox="0 0 1024 1024" version="1.1" xmlns="http://www.w3.org/2000/svg" p-id="65825" width="16" height="16" xmlns:xlink="http://www.w3.org/1999/xlink"><path d="M512 1013.31c-67.666 0-133.324-13.256-195.139-39.406-59.704-25.256-113.31-61.387-159.344-107.42S75.339 766.842 50.096 707.138C23.946 645.312 10.69 579.666 10.69 512s13.256-133.324 39.406-195.139c25.256-59.704 61.387-113.31 107.42-159.344s99.641-82.178 159.345-107.421C378.688 23.946 444.334 10.69 512 10.69s133.324 13.256 195.139 39.406c59.704 25.256 113.31 61.387 159.344 107.42s82.178 99.641 107.421 159.345c26.15 61.827 39.406 127.473 39.406 195.139s-13.256 133.324-39.406 195.139c-25.256 59.704-61.387 113.31-107.42 159.344s-99.641 82.178-159.345 107.421c-61.815 26.15-127.473 39.406-195.139 39.406z m0-945.92C266.84 67.39 67.39 266.84 67.39 512S266.84 956.61 512 956.61 956.61 757.16 956.61 512 757.16 67.39 512 67.39z" p-id="65826" fill="#ff0000"></path><path d="M396.437 627.227l-42.435-81.155H327.36v81.155h-55.445V396.773h84.56c49.243 0 90.138 16.726 90.138 72.481 0 33.762-15.793 55.445-39.652 66.591l51.42 91.369h-61.944z m-69.064-124.832h24.777c26.331 0 40.26-11.457 40.26-33.14s-13.942-28.804-40.26-28.804h-24.777v61.944zM491.21 396.773h146.192v45.84h-90.747v42.745h77.128v46.461h-77.128v48.934h94.165v46.46H491.21v-230.44z m184.6 116.47c0-76.818 51.42-120.794 109.959-120.794 30.046 0 54.202 13.943 69.996 30.047L826.65 457.81c-11.456-10.525-23.534-17.969-39.949-17.969-29.736 0-54.202 26.642-54.202 71.55 0 45.84 21.062 72.48 53.58 72.48 18.28 0 33.14-9.294 43.99-21.061l29.113 34.693c-19.508 22.616-45.218 34.073-75.264 34.073-58.552-0.026-108.107-40.287-108.107-118.334z m-510.98-91.045a29.748 29.748 0 1 0 59.498 0 29.748 29.748 0 1 0-59.497 0z" p-id="65827" fill="#ff0000"></path></svg>