<?xml version="1.0" standalone="no"?><!DOCTYPE svg PUBLIC "-//W3C//DTD SVG 1.1//EN" "http://www.w3.org/Graphics/SVG/1.1/DTD/svg11.dtd"><svg t="1706521420727" class="icon" viewBox="0 0 1024 1024" version="1.1" xmlns="http://www.w3.org/2000/svg" p-id="115276" xmlns:xlink="http://www.w3.org/1999/xlink" width="64" height="64"><path d="M810.666667 682.666667H42.666667V213.333333h128V170.666667h128v42.666666h42.666666v42.666667H85.333333v384h682.666667V256H512v-42.666667h42.666667V170.666667h128v42.666666h128v469.333334zM128 768h768V298.666667h-42.666667v426.666666H128v42.666667z m810.666667 42.666667H213.333333v42.666666h768V384h-42.666666v426.666667zM618.666667 298.666667v64h-64v42.666666h64v64h42.666666v-64h64v-42.666666h-64v-64h-42.666666z m-320 106.666666v-42.666666H128v42.666666h170.666667z m85.333333 149.333334h85.333333v-94.442667h-85.333333V554.666667z m13.909333-170.666667h57.536l19.413334-341.333333h-96.362667l19.413333 341.333333z" fill="#FF0000" p-id="115277"></path></svg>