<?xml version="1.0" standalone="no"?><!DOCTYPE svg PUBLIC "-//W3C//DTD SVG 1.1//EN" "http://www.w3.org/Graphics/SVG/1.1/DTD/svg11.dtd"><svg t="1706526462779" class="icon" viewBox="0 0 1024 1024" version="1.1" xmlns="http://www.w3.org/2000/svg" p-id="130913" xmlns:xlink="http://www.w3.org/1999/xlink" width="64" height="64"><path d="M269.750857 183.954286c38.290286 7.094857 53.869714-9.216 62.976-39.277715 18.761143-61.988571 64.658286-85.394286 126.902857-86.125714 57.746286-0.658286 115.382857-1.170286 173.092572 0.512 57.014857 1.645714 98.084571 24.722286 117.76 80.164572 0.256 0.731429 0.731429 1.316571 0.841143 2.048 6.729143 33.718857 26.989714 47.067429 61.403428 45.970285 22.089143-0.694857 29.805714 13.056 29.037714 37.302857-0.658286 21.357714-15.725714 20.224-29.476571 19.273143-20.699429-1.462857-25.380571 5.741714-21.942857 26.331429 7.314286 42.971429 8.557714 88.246857-10.642286 127.049143-16.201143 32.768-17.700571 64.512-17.115428 98.230857 0.256 15.250286-6.144 19.931429-21.028572 20.260571-64.987429 1.499429-66.230857 1.865143-64.402286-63.634285 0.658286-23.259429-6.765714-27.940571-28.050285-27.062858-40.850286 1.609143-81.810286 0.402286-122.733715 0.438858-9.545143 0.036571-18.176-0.256-26.002285-8.045715-73.801143-73.984-147.968-147.529143-222.025143-221.257143-1.865143-1.901714-3.145143-4.388571-8.594286-12.214857z m273.298286 40.155428c58.404571 0 116.772571-0.438857 175.177143 0.292572 15.725714 0.182857 18.870857-3.913143 13.421714-18.724572a590.994286 590.994286 0 0 0-31.158857-72.192c-9.325714-17.773714-22.857143-28.196571-42.422857-30.427428a1037.458286 1037.458286 0 0 0-231.387429-0.036572c-19.529143 2.194286-33.28 12.580571-42.496 30.354286a672.658286 672.658286 0 0 0-30.464 70.144c-6.144 16.018286-4.754286 21.321143 14.153143 20.992 58.404571-1.097143 116.772571-0.402286 175.177143-0.402286z m354.121143 625.846857c-10.496 9.910857-20.041143 19.748571-30.427429 28.562286-9.216 7.862857-12.909714-2.889143-17.152-7.131428-240.530286-240.347429-480.731429-480.987429-721.408-721.188572-10.788571-10.788571-10.203429-17.188571 0.804572-25.526857 10.825143-8.228571 16.603429-25.161143 35.584-6.070857 173.348571 174.116571 347.794286 347.136 521.874285 520.484571 65.792 65.536 131.510857 131.145143 197.266286 196.754286 4.059429 4.059429 7.936 8.338286 13.458286 14.116571z m-597.101715-275.017142c79.981714-20.224 141.312 15.250286 198.546286 59.794285 26.806857 20.809143 21.357714 57.856-8.813714 74.752-40.96 22.930286-86.125714 35.803429-130.084572 51.456-29.549714 10.496-59.684571 19.456-89.088 30.354286-36.681143 13.714286-40.484571 39.936-9.910857 65.024 11.849143 9.728 24.576 18.395429 36.937143 27.392 12.178286 8.886857 24.393143 17.554286 35.218286 30.829714-30.244571 0-60.525714 0.109714-90.770286-0.146285a20.955429 20.955429 0 0 1-10.166857-3.328c-31.012571-19.236571-62.902857-37.302857-92.598857-58.404572-38.765714-27.648-35.510857-66.816 7.241143-87.442286 56.649143-27.355429 116.809143-45.750857 176.420571-65.316571 13.165714-4.315429 26.514286-8.338286 39.241143-13.787429 30.500571-13.019429 34.962286-36.937143 9.874286-59.062857-15.762286-13.933714-34.084571-25.014857-51.309715-37.339428-6.436571-4.644571-12.909714-9.216-20.736-14.774857z m416.402286 339.675428c-30.683429 0-60.269714 0.219429-89.892571-0.219428a29.586286 29.586286 0 0 1-14.153143-4.681143c-28.635429-17.444571-57.746286-34.304-85.430857-53.284572-44.544-30.537143-41.947429-71.350857 6.765714-93.330285 36.498286-16.457143 74.861714-28.708571 112.164571-43.337143 8.228571-3.291429 13.494857-1.572571 19.273143 4.461714 12.068571 12.653714 24.539429 25.014857 37.12 37.156571 7.753143 7.460571 6.765714 11.227429-3.657143 14.409143-16.749714 5.12-33.499429 10.459429-49.590857 17.261715-30.573714 12.873143-35.035429 36.937143-9.874285 58.953142 19.163429 16.749714 40.850286 30.537143 61.147428 46.043429 5.412571 4.132571 13.312 5.961143 16.128 16.566857z m-31.085714-343.515428c28.379429 0 56.795429-0.914286 85.101714 0.365714 16.457143 0.731429 28.525714 13.897143 42.898286 20.845714 22.308571 10.752 44.617143 22.162286 63.963428 38.034286 30.573714 25.124571 27.318857 61.184-6.875428 80.859428-46.592 26.770286-72.704 19.602286-103.021714-28.123428-2.048-3.218286-4.022857-5.741714-1.828572-9.728 13.750857-24.868571-1.389714-40.155429-19.017143-53.504-20.224-15.323429-41.435429-29.403429-62.244571-44.032l1.060571-4.717714zM294.765714 353.572571c38.875429 38.838857 73.764571 72.886857 107.666286 107.885715 12.726857 13.129143 7.972571 30.976 4.425143 45.641143-3.291429 13.824-18.578286 8.045714-28.708572 8.155428-55.588571 0.548571-55.734857 0.292571-55.552-55.222857 0.073143-16.603429-0.219429-31.634286-11.483428-46.738286-11.117714-14.848-13.714286-34.852571-16.347429-59.721143z" fill="#FFBF00" p-id="130914"></path></svg>