<?xml version="1.0" standalone="no"?><!DOCTYPE svg PUBLIC "-//W3C//DTD SVG 1.1//EN" "http://www.w3.org/Graphics/SVG/1.1/DTD/svg11.dtd"><svg t="1706520482916" class="icon" viewBox="0 0 1024 1024" version="1.1" xmlns="http://www.w3.org/2000/svg" p-id="90858" xmlns:xlink="http://www.w3.org/1999/xlink" width="64" height="64"><path d="M770.816 523.117714c-2.194286 54.198857-8.228571 107.593143-28.013714 158.756572-5.010286 13.019429-10.971429 17.152-25.965715 13.312-103.424-26.550857-158.134857-112.786286-135.606857-215.515429 14.116571-64.256 80.896-124.306286 144.237715-130.816 13.458286-1.389714 14.08 8.557714 16.969142 15.689143 20.553143 50.834286 26.221714 104.411429 28.379429 158.573714z m-48.749714-1.024c0.768-33.792-3.510857-67.035429-9.289143-100.205714-2.304-13.312-6.107429-19.309714-21.065143-11.776-46.336 23.296-66.157714 61.330286-66.413714 111.872-0.329143 51.273143 19.017143 90.331429 66.194285 114.102857 14.811429 7.497143 18.907429 1.901714 21.248-11.556571 5.924571-33.938286 10.24-67.949714 9.325715-102.436572zM274.285714 516.278857c2.925714-47.323429 8.667429-97.792 25.709715-146.651428 7.021714-20.114286 16.603429-22.601143 35.510857-16.822858 100.937143 30.537143 151.990857 116.955429 127.744 216.685715-17.444571 71.862857-79.067429 112.420571-142.189715 127.378285-13.019429 3.108571-14.372571-6.326857-17.810285-13.970285-16.530286-37.12-29.805714-112.054857-28.964572-166.619429z m48.164572 6.363429c0.438857 35.145143 3.913143 69.961143 10.569143 104.484571 2.340571 12.141714 7.094857 15.36 19.126857 9.545143 47.616-22.930286 67.584-61.622857 67.657143-113.115429 0.182857-51.346286-19.382857-90.258286-66.779429-113.700571-13.165714-6.473143-18.029714-2.779429-20.370286 10.422857a616.521143 616.521143 0 0 0-10.24 102.4z m473.088-144.128c-14.262857-2.962286-10.386286-17.92-15.250286-27.099429-3.108571-5.851429-6.912-13.714286 4.461714-17.408 45.056-14.482286 90.112-29.257143 134.985143-44.251428 11.337143-3.693714 13.056 4.315429 13.714286 11.264 1.097143 10.349714 17.444571 24.466286 2.267428 30.354285-45.348571 17.700571-92.379429 31.414857-140.178285 47.140572z m-3.181715 287.817143c6.363429 2.194286 9.801143 3.401143 13.238858 4.534857 40.155429 13.129143 80.091429 27.062857 120.576 38.985143 16.091429 4.754286 17.298286 12.068571 11.081142 25.088-5.010286 10.532571-2.486857 27.428571-24.32 19.456-41.033143-14.921143-82.834286-27.867429-124.342857-41.325715-7.936-2.56-14.043429-5.12-9.728-14.921143 4.681143-10.605714 5.12-23.405714 13.531429-31.817142z m-672.548571 91.428571c-11.008-6.948571-9.362286-20.882286-14.555429-31.195429-4.096-8.082286-0.438857-11.776 7.204572-14.262857a12773.668571 12773.668571 0 0 0 131.145143-43.117714c8.996571-3.035429 12.763429-0.365714 16.237714 8.118857 12.434286 30.390857 12.8 30.317714-17.444571 40.301714-36.059429 11.958857-72.155429 23.771429-108.251429 35.620572-4.132571 1.353143-8.338286 2.633143-14.299429 4.534857zM267.666286 346.221714c-0.402286 24.393143-13.165714 33.974857-38.107429 25.709715-37.302857-12.324571-74.130286-25.965714-111.945143-36.388572-20.845714-5.778286-11.922286-16.713143-8.777143-27.648 3.437714-11.812571 4.864-23.515429 23.990858-16.384 40.118857 14.994286 81.298286 27.209143 121.892571 40.923429 5.339429 1.828571 14.116571 0.877714 12.946286 13.787428z m621.677714 199.241143c-21.869714 0-43.739429-0.914286-65.572571 0.292572-18.834286 1.024-14.994286-11.629714-14.445715-21.650286 0.548571-9.874286-6.729143-24.393143 14.262857-23.954286 44.507429 0.877714 88.978286 0.731429 133.412572 0.073143 19.163429-0.292571 13.714286 13.056 13.641143 22.674286-0.036571 9.508571 5.705143 23.332571-13.531429 22.747428-22.564571-0.731429-45.165714-0.182857-67.766857-0.182857z m-735.049143 0c-21.174857 0-42.422857-1.097143-63.488 0.365714-18.468571 1.28-16.347429-10.422857-15.36-21.065142 0.841143-9.837714-7.021714-24.832 14.006857-24.502858 44.507429 0.585143 89.051429 0.475429 133.595429 0 19.456-0.219429 12.836571 13.787429 13.202286 23.113143 0.365714 9.764571 4.827429 23.04-14.08 22.308572-22.601143-0.914286-45.238857-0.219429-67.876572-0.219429z" fill="#00ff00" p-id="90859"></path></svg>