<?xml version="1.0" standalone="no"?><!DOCTYPE svg PUBLIC "-//W3C//DTD SVG 1.1//EN" "http://www.w3.org/Graphics/SVG/1.1/DTD/svg11.dtd"><svg t="1706520365680" class="icon" viewBox="0 0 1024 1024" version="1.1" xmlns="http://www.w3.org/2000/svg" p-id="86432" xmlns:xlink="http://www.w3.org/1999/xlink" width="64" height="64"><path d="M40.228571 497.371429c73.142857-76.8 153.6-157.257143 234.057143-241.371429v142.628571h175.542857v204.8H277.942857v142.628572c-84.114286-87.771429-160.914286-168.228571-237.714286-248.685714z m720.457143-237.714286c76.8 80.457143 157.257143 160.914286 234.057143 241.371428-76.8 76.8-153.6 157.257143-237.714286 241.371429v-138.971429h-175.542857v-204.8h171.885715V263.314286l7.314285-3.657143z m-362.057143 190.171428H226.742857v-62.171428c-40.228571 40.228571-76.8 80.457143-109.714286 113.371428 32.914286 36.571429 73.142857 76.8 113.371429 117.028572v-65.828572H402.285714v-102.4zM804.571429 618.057143l113.371428-113.371429c-36.571429-36.571429-76.8-76.8-113.371428-117.028571v62.171428h-171.885715v102.4H804.571429v65.828572z" fill="#00ff00" p-id="86433"></path></svg>