<?xml version="1.0" standalone="no"?><!DOCTYPE svg PUBLIC "-//W3C//DTD SVG 1.1//EN" "http://www.w3.org/Graphics/SVG/1.1/DTD/svg11.dtd"><svg t="1704261758938" class="icon" viewBox="0 0 1024 1024" version="1.1" xmlns="http://www.w3.org/2000/svg" p-id="30295" width="800" height="800" xmlns:xlink="http://www.w3.org/1999/xlink"><path d="M759.982955 491.561166s-10.950111 1.613701-28.799614-4.470609c-17.849504-6.076076-120.220687-41.536322-177.679952-40.15315-56.191357 1.350239-90.466026 15.815912-109.937463 25.152322-19.471437 9.319944-40.976466 25.555747-40.976467 25.555746s-32.858565 1.621934-68.96923 11.370002c-36.102432 9.731602-59.221162 31.631823-59.221162 40.144917 0 8.52956-1.210275 8.117902-1.210275 8.117901s-12.95077 11.732261 4.26478 30.018123l2.494649 2.667546c11.419401 12.176852 7.689777 8.241399 25.086456 13.765853 8.965918 2.848675 312.868535 0 312.868535 0l78.79963-3.95192s22.814103-3.647292 29.820527-8.521326c6.998191-4.874034 28.939578-14.893797 33.459586-18.862183 5.664418-4.972832 6.644165-28.857246 5.07163-39.247502-0.510456-3.342665-7.311051-7.558046-7.311051-7.558046l-0.601021-23.480989s5.475055-3.853122 2.840442-10.546685z" fill="#D14C32" p-id="30296"></path><path d="M757.216611 504.108511s-18.623421 2.906308-22.336579 4.42121c-19.422038 7.912072-23.736217 16.301668-23.736217 16.301668l46.072796 0.880949v-21.603827zM765.029885 555.738693s-23.003465-1.885395-31.524792 4.824636c-8.513093 6.685331-11.551132 10.79368-11.551131 10.79368l39.346299-0.576322c0-0.008233 4.684671-10.563152 3.729624-15.041994zM303.149282 583.525628s-9.550472-26.831887-29.203039-21.760257c-9.435208 2.437017 3.194468 21.760257 3.194469 21.760257l26.00857 0.601021" fill="#34251E" p-id="30297"></path><path d="M723.468864 486.613033l20.072459 7.014657s-330.100551 33.163192-345.002581 27.367044c-14.910263-5.771449-12.777873-6.067843-12.777874-6.067844l337.707996-28.313857z" fill="#D8684A" p-id="30298"></path><path d="M418.001946 594.722734l285.592056-5.672652s32.496306-6.298372 50.650436-13.230697c-8.364896 4.73407-22.394211 11.460567-27.729302 15.165491-6.998191 4.865801-29.820527 8.521327-29.820527 8.521327l-78.791397 3.943686s-303.91085 2.848675-312.868535 0c-16.137005-5.112796-14.119879-2.10769-22.830568-11.370002l135.797837 2.642847z" fill="#3D2C25" p-id="30299"></path><path d="M614.280619 595.134392c-0.477524-6.174874-0.33756-13.041335-0.33756-19.01038a45.340044 45.340044 0 1 1 90.671856 0c0 7.014657-0.617487 13.329495-2.675779 19.01038H614.280619z" fill="#3D2C25" p-id="30300"></path><path d="M659.266637 577.449552m-42.293773 0a42.293773 42.293773 0 1 0 84.587546 0 42.293773 42.293773 0 1 0-84.587546 0Z" fill="#7B6B63" p-id="30301"></path><path d="M658.690316 577.466018m-30.726175 0a30.726175 30.726175 0 1 0 61.452349 0 30.726175 30.726175 0 1 0-61.452349 0Z" fill="#FEFDF8" p-id="30302"></path><path d="M685.760965 577.902376c0 7.837974-3.334432 14.893797-8.653057 19.833696l-18.425826-19.833696 26.57666-5.219827c0.329327 1.696032 0.502223 3.449696 0.502223 5.219827zM658.682082 604.973025c-4.783469 0-9.270545-1.234975-13.173065-3.416764l13.173065-23.653885 13.173066 23.653885a26.88952 26.88952 0 0 1-13.173066 3.416764z" fill="#3D2C25" p-id="30303"></path><path d="M655.438215 551.029323l3.252101 26.881286-24.559534-11.394701a27.04595 27.04595 0 0 1 21.307433-15.486585zM683.249849 566.515908l-24.559533 11.394701 3.2521-26.881286a27.070649 27.070649 0 0 1 21.307433 15.486585z" fill="#3D2C25" p-id="30304"></path><path d="M658.682082 577.902376l-18.425825 19.833696a27.004784 27.004784 0 0 1-8.142601-25.053523l26.568426 5.219827z" fill="#3D2C25" p-id="30305"></path><path d="M659.266637 577.466018m-8.81772 0a8.817721 8.817721 0 1 0 17.635441 0 8.817721 8.817721 0 1 0-17.635441 0Z" fill="#5E524A" p-id="30306"></path><path d="M613.926593 568.631831l-199.57194 7.179321v8.776555l199.637805-10.489054z" fill="#D8684A" p-id="30307"></path><path d="M760.081753 493.31483s0.246995 6.174874-2.865142 7.508647c-3.12037 1.317307-26.642525-1.926561-26.642525-1.92656s28.799614-4.371811 29.507667-5.582087z" fill="#D67524" p-id="30308"></path><path d="M273.073528 555.384667s0.477524-5.22806 2.025358-7.508647c5.680884-8.315497 33.377254-20.294754 34.488732-16.22757 1.111477 4.050718-4.08365 18.104732-22.805869 21.801423-14.860864 2.947473-13.708221 1.934794-13.708221 1.934794z" fill="#FEFDF8" p-id="30309"></path><path d="M327.33009 595.084993c-0.46929-6.174874-0.33756-13.041335-0.337559-19.026846a45.340044 45.340044 0 0 1 90.671855 0c0 7.014657-0.609254 13.345962-2.667546 19.026846H327.33009z" fill="#3D2C25" p-id="30310"></path><path d="M372.324342 577.383686m-42.28554 0a42.28554 42.28554 0 1 0 84.571079 0 42.28554 42.28554 0 1 0-84.571079 0Z" fill="#7B6B63" p-id="30311"></path><path d="M371.739787 577.416619m-30.726175 0a30.726175 30.726175 0 1 0 61.45235 0 30.726175 30.726175 0 1 0-61.45235 0Z" fill="#FEFDF8" p-id="30312"></path><path d="M398.818669 577.86121c0 7.821508-3.326199 14.893797-8.653057 19.833697l-18.425825-19.833697 26.576659-5.219827c0.321093 1.687799 0.502223 3.441463 0.502223 5.219827z" fill="#3D2C25" p-id="30313"></path><path d="M371.739787 604.931859c-4.783469 0-9.270545-1.234975-13.173065-3.416764l13.173065-23.653885 13.181298 23.653885a27.004784 27.004784 0 0 1-13.181298 3.416764z" fill="#3D2C25" p-id="30314"></path><path d="M368.487686 550.979924l3.252101 26.881286-24.559534-11.402935a27.062416 27.062416 0 0 1 21.307433-15.478351zM396.299321 566.458275l-24.559534 11.402935 3.2521-26.881286a27.054183 27.054183 0 0 1 21.307434 15.478351zM371.739787 577.86121l-18.425825 19.833697a27.029483 27.029483 0 0 1-8.142601-25.053524l26.568426 5.219827z" fill="#3D2C25" p-id="30315"></path><path d="M372.324342 577.416619m-8.825954 0a8.825954 8.825954 0 1 0 17.651907 0 8.825954 8.825954 0 1 0-17.651907 0Z" fill="#5E524A" p-id="30316"></path><path d="M422.209093 588.350263l-0.041165-0.362259c-0.049399-0.31286-4.050718-31.994082-4.923434-41.215228-0.296394-3.219168-2.856909-31.557725 0.049399-36.925749 2.511116-4.610573 134.398199-21.710858 149.43196-23.637419h70.187739l0.123497 0.115264 8.447229 8.134368-0.164664 0.271695c-0.33756 0.592788-34.159405 58.867136-40.449543 72.0896-4.898734 10.274991-10.50552 17.232016-21.957854 17.717773-12.316816 0.543389-158.867168 3.779023-160.340904 3.811955h-0.36226z m144.566159-101.325572c-58.570742 7.54158-146.591518 19.957194-148.75684 23.217528-2.264121 4.182448-1.029146 24.872394 0.049399 36.448225 0.823317 8.669524 4.412977 37.230376 4.865801 40.820036 8.274332-0.172896 147.94999-3.260334 159.962179-3.795489 9.698669-0.419891 15.453652-5.09633 21.241568-17.256716 6.076076-12.76964 37.765532-67.446094 40.317813-71.867304l-7.862674-7.574513h-69.817246z" fill="#484F4E" p-id="30317"></path><path d="M528.952088 585.229893c-0.016466-0.288161-1.531369-30.009889-1.020912-44.072136 0.510456-13.774086 7.85444-42.590167 7.928539-42.878328l0.80685 0.197596c-0.082332 0.288161-7.401616 29.013676-7.903839 42.713664-0.510456 14.029315 0.996213 43.701644 1.012679 44.006272l-0.823317 0.032932z" fill="#484F4E" p-id="30318"></path><path d="M393.969335 508.529721s-50.090581 3.630826-69.512619 13.156599c-19.438505 9.509307-38.802911 16.359301-38.802911 16.3593h-2.576981s22.056651-17.495477 50.049415-26.008571c27.984531-8.521327 48.024056-8.669524 48.024056-8.669523h7.352218c-0.008233 0 4.396511 5.013998 5.466822 5.162195z" fill="#D8684A" p-id="30319"></path><path d="M663.531417 475.366529s-87.526786-36.818718-160.74433-17.55311c-79.911108 18.508157-84.785142 43.718111-84.785141 43.718111v6.998191l226.971915-13.996382c0-0.008233 17.577809-7.986171 18.557556-19.16681z" fill="#202226" p-id="30320"></path><path d="M428.787393 489.05005c10.258525-8.924752 31.508326-21.085138 75.3417-31.236631 62.209801-16.375767 134.727526 7.739176 155.137544 15.363088-71.365081 0.889182-160.925459 4.57764-230.479244 15.873543z" fill="#343C3E" p-id="30321"></path><path d="M457.298846 490.779015l0.996213 20.286521s-24.987658 4.651739-24.987658-1.630167c0-6.281906 16.787425-16.425166 23.991445-18.656354z" fill="#D14C32" p-id="30322"></path><path d="M433.447365 510.061089a2.058291 2.058291 0 0 1-0.411658-1.226741c0-6.290139 17.042653-16.433399 24.345471-18.664587l0.329327 6.627698-24.26314 13.26363z" fill="#DC7357" p-id="30323"></path></svg>