<?xml version="1.0" standalone="no"?><!DOCTYPE svg PUBLIC "-//W3C//DTD SVG 1.1//EN" "http://www.w3.org/Graphics/SVG/1.1/DTD/svg11.dtd"><svg t="1692097343834" class="icon" viewBox="0 0 1024 1024" version="1.1" xmlns="http://www.w3.org/2000/svg" p-id="9380" xmlns:xlink="http://www.w3.org/1999/xlink" width="64" height="64"><path d="M874.130286 765.732571c-0.219429 27.245714-9.545143 36.425143-37.302857 36.608-35.108571 0.256-70.144-0.256-105.216 0.256-10.349714 0.182857-18.651429-2.084571-24.685715-10.678857-0.438857-0.585143-1.097143-1.024-1.499428-1.609143-33.024-51.638857-80.091429-62.72-139.739429-60.598857-128.438857 4.608-257.170286 1.462857-385.755428 1.462857-23.076571-0.036571-46.445714-16.822857-70.144-50.432-3.291429-17.92-1.353143-31.232 5.961142-39.862857 7.314286-8.630857 23.04-16.310857 47.250286-23.04h59.648l48.822857 40.850286 60.123429-40.886857h102.070857l43.154286 40.886857 46.848-40.886857h80.420571c37.376 0 64.402286-11.044571 84.114286-38.912 3.108571-4.461714 9.362286-11.008 18.761143-19.675429a36.571429 36.571429 0 0 1 24.795428-9.728h100.534857c33.645714 0.073143 41.801143 7.972571 41.874286 40.850286 0.073143 28.525714 0 57.051429 0 85.504 0 29.988571 0.182857 59.904-0.036571 89.892571z m-105.764572-91.136c0 21.942857-0.109714 43.812571 0.036572 65.792 0.109714 16.164571 7.570286 26.916571 24.393143 27.940572 17.883429 1.060571 28.013714-9.508571 28.342857-26.368 0.914286-43.885714 0.877714-87.771429 0.109714-131.620572-0.292571-16.822857-10.093714-27.648-27.940571-26.916571-16.749714 0.731429-24.685714 11.264-24.868572 27.574857-0.256 21.138286-0.073143 42.349714-0.073143 63.597714z m192.841143-390.582857a31.232 31.232 0 0 1-41.472 28.525715c-112.530286-40.411429-226.304-58.075429-343.113143-18.395429-53.174857 18.066286-101.961143 44.544-143.36 82.505143-20.845714 19.2-24.868571-3.547429-35.035428-10.642286-13.714286-9.618286-4.022857-16.676571 3.730285-23.515428 107.044571-94.025143 232.082286-128 372.187429-112.201143 59.794286 6.765714 118.052571 19.821714 173.275429 44.470857 5.376 2.413714 13.202286 2.779429 13.787428 9.252571zM717.165714 331.52c62.573714 0.512 121.636571 11.556571 178.139429 35.84 12.470857 5.376 13.787429 9.654857 7.204571 22.052571-9.874286 18.651429-17.115429 24.027429-40.594285 14.994286-126.793143-48.566857-247.515429-37.741714-356.827429 47.652572-20.772571 16.237714-21.504-7.204571-31.012571-12.470858-11.227429-6.253714-9.033143-13.897143 0.256-22.052571 58.075429-51.090286 126.610286-76.653714 202.678857-84.041143 13.750857-1.316571 27.684571-1.389714 40.155428-1.974857z m7.168 103.277714a335.616 335.616 0 0 1 117.211429 23.113143c11.556571 4.608 15.725714 8.301714 8.155428 21.723429-10.532571 18.761143-17.700571 25.234286-42.24 15.835428-78.774857-30.061714-155.062857-20.589714-223.670857 30.244572-24.502857 18.176-27.611429-8.740571-38.034285-16.457143-13.604571-10.057143 3.035429-15.798857 8.777142-20.370286 48.896-38.838857 105.984-53.321143 169.801143-54.089143z" fill="#FFBF00" p-id="9381"></path></svg>