<?xml version="1.0" standalone="no"?><!DOCTYPE svg PUBLIC "-//W3C//DTD SVG 1.1//EN" "http://www.w3.org/Graphics/SVG/1.1/DTD/svg11.dtd"><svg t="1706521442493" class="icon" viewBox="0 0 1024 1024" version="1.1" xmlns="http://www.w3.org/2000/svg" p-id="116303" xmlns:xlink="http://www.w3.org/1999/xlink" width="64" height="64"><path d="M810.666667 298.666667H590.890667l-2.410667 42.666666H810.666667v384H298.666667V341.333333h136.853333l-2.410667-42.666666H256l-85.333333 64v85.333333H85.333333v170.666667h85.333334v85.333333l85.333333 64h597.333333l85.333334-64V362.666667l-85.333334-64h-42.666666zM128 576v-85.333333h42.666667v85.333333H128z m128 138.666667L213.333333 682.666667V384l42.666667-32v362.666667zM896 384v298.666667l-42.666667 32v-362.666667l42.666667 32z m-427.861333 116.245333h87.722666V597.333333h-87.722666v-97.088zM463.808 85.333333h96.362667l-19.413334 344.448h-57.536L463.808 85.333333z" fill="#FF0000" p-id="116304"></path></svg>