<?xml version="1.0" standalone="no"?><!DOCTYPE svg PUBLIC "-//W3C//DTD SVG 1.1//EN" "http://www.w3.org/Graphics/SVG/1.1/DTD/svg11.dtd"><svg t="1706521617461" class="icon" viewBox="0 0 1024 1024" version="1.1" xmlns="http://www.w3.org/2000/svg" p-id="120862" xmlns:xlink="http://www.w3.org/1999/xlink" width="64" height="64"><path d="M493.381818 353.745455V183.854545h-83.781818l-97.745455-65.163636v302.545455l97.745455-67.490909zM93.090909 69.818182c-93.090909 181.527273-16.290909 388.654545-11.636364 397.963636l32.581819-11.636363c0-2.327273-74.472727-202.472727 11.636363-370.036364L93.090909 69.818182zM167.563636 121.018182c-72.145455 139.636364-11.636364 300.218182-9.309091 307.2l32.581819-11.636364c0-2.327273-55.854545-151.272727 9.309091-276.945454l-32.581819-18.618182zM265.309091 193.163636l-30.254546-16.290909c-44.218182 88.436364-6.981818 190.836364-6.981818 195.490909l32.581818-11.636363c0-2.327273-32.581818-93.090909 4.654546-167.563637zM982.109091 463.127273l-107.054546-20.945455-116.363636-111.709091h-169.890909L467.781818 442.181818l-146.618182 27.927273-41.890909 51.2 27.927273 60.509091 67.490909 23.272727s18.618182 55.854545 65.163636 55.854546c46.545455 0 60.509091-41.890909 60.509091-41.89091H768s32.581818 58.181818 81.454545 48.872728 51.2-58.181818 51.2-58.181818l48.872728-6.981819 46.545454-67.490909-13.963636-72.145454zM512 451.490909l88.436364-95.418182h137.309091l37.236363 95.418182H512zM388.654545 723.781818c-11.636364-6.981818-34.909091-9.309091-48.872727-9.309091-16.290909 0-41.890909 2.327273-53.527273 9.309091-11.636364 6.981818-20.945455 16.290909-27.927272 27.927273-6.981818 11.636364-9.309091 25.6-9.309091 41.890909v62.836364c0 16.290909 2.327273 30.254545 9.309091 41.890909 6.981818 11.636364 16.290909 20.945455 27.927272 27.927272 11.636364 6.981818 37.236364 9.309091 53.527273 9.309091 16.290909 0 37.236364-2.327273 48.872727-9.309091 11.636364-6.981818 20.945455-16.290909 27.927273-27.927272 6.981818-11.636364 9.309091-25.6 9.309091-41.890909v-62.836364c0-16.290909-2.327273-30.254545-9.309091-41.890909-6.981818-11.636364-16.290909-20.945455-27.927273-27.927273z m4.654546 137.309091c0 9.309091-2.327273 18.618182-4.654546 25.6-4.654545 6.981818-9.309091 13.963636-16.290909 18.618182-6.981818 4.654545-23.272727 6.981818-32.581818 6.981818s-30.254545-4.654545-37.236363-9.309091c-6.981818-4.654545-11.636364-9.309091-16.29091-18.618182-4.654545-4.654545-6.981818-13.963636-6.981818-23.272727v-65.163636c0-9.309091 2.327273-18.618182 4.654546-25.6 4.654545-6.981818 9.309091-13.963636 16.290909-18.618182 6.981818-4.654545 27.927273-6.981818 37.236363-6.981818s25.6 2.327273 32.581819 6.981818c6.981818 4.654545 11.636364 9.309091 16.290909 18.618182 4.654545 6.981818 4.654545 16.290909 4.654545 25.6V861.090909zM495.709091 716.8h-23.272727v221.090909h30.254545v-93.090909H605.090909v-27.927273h-102.4v-69.818182h118.690909v-30.254545h-118.690909zM679.563636 716.8h-25.6v221.090909h30.254546v-93.090909h104.727273v-27.927273h-104.727273v-69.818182h121.018182v-30.254545h-121.018182z" fill="#FFBF00" p-id="120863"></path></svg>