<?xml version="1.0" standalone="no"?><!DOCTYPE svg PUBLIC "-//W3C//DTD SVG 1.1//EN" "http://www.w3.org/Graphics/SVG/1.1/DTD/svg11.dtd"><svg t="1706520637116" class="icon" viewBox="0 0 1024 1024" version="1.1" xmlns="http://www.w3.org/2000/svg" p-id="93970" xmlns:xlink="http://www.w3.org/1999/xlink" width="64" height="64"><path d="M589.860571 859.940571c147.638857-38.180571 267.300571-207.067429 257.060572-358.875428-10.276571-153.417143-131.949714-308.809143-258.56-325.12-72.192 227.620571-74.642286 454.802286 1.462857 683.995428m-110.518857-307.2c1.792-151.332571 17.005714-287.012571 70.692571-416.292571 8.740571-21.101714 17.993143-26.441143 40.155429-19.565714 159.926857 49.700571 264.630857 153.051429 299.849143 317.769143 35.254857 164.754286-24.502857 298.313143-149.979429 405.174857-47.469714 40.448-103.241143 65.462857-163.254857 81.810285-13.531429 3.620571-17.92-1.901714-22.820571-12.470857-33.316571-71.68-50.285714-147.858286-61.074286-225.462857-6.619429-47.725714-10.057143-95.817143-13.568-130.925714zM316.086857 352.512c17.225143 54.272 12.580571 106.569143-6.948571 163.474286l114.688-64.768c0 19.712 1.316571 35.730286-0.621715 51.346285-0.804571 6.180571-7.68 13.385143-13.677714 16.932572a3315.2 3315.2 0 0 1-108.361143 62.171428c-12.068571 6.546286-17.554286 14.482286-14.811428 27.721143 7.497143 36.169143 15.177143 72.265143 23.478857 111.762286l113.956571-64.987429c0 20.553143 1.133714 36.571429-0.548571 52.260572-0.621714 5.705143-6.875429 12.397714-12.324572 15.725714-23.734857 14.445714-48.566857 26.989714-71.826285 42.057143-5.961143 3.913143-11.300571 14.774857-10.678857 21.869714 3.693714 42.057143-4.864 81.152-22.089143 119.222857-6.912 15.36-15.433143 23.332571-33.097143 20.736-10.422857-1.499429-21.211429-0.292571-35.291429-0.292571 23.990857-39.570286 40.082286-77.897143 37.376-125.513143L110.08 896.621714c0-20.553143-1.097143-37.595429 0.731429-54.381714 0.512-5.376 8.045714-11.264 13.787428-14.628571a4481.133714 4481.133714 0 0 1 125.586286-71.68c13.933714-7.570286 15.506286-14.811429 11.008-29.403429-10.496-33.938286-18.395429-68.681143-27.940572-105.325714L110.226286 691.2c0-20.662857-0.914286-38.4 0.621714-55.881143 0.402286-4.608 7.972571-9.508571 13.238857-12.580571 34.048-19.931429 68.388571-39.350857 102.509714-59.172572 5.522286-3.218286 13.238857-6.729143 14.994286-11.812571 17.298286-50.834286 42.130286-100.352 31.451429-156.891429-0.731429-4.096-2.084571-8.118857-3.986286-15.36-52.626286 30.134857-103.606857 59.209143-158.72 90.697143 0-20.224-1.024-37.229714 0.621714-53.942857 0.402286-4.608 8.118857-9.398857 13.421715-12.507429 41.618286-24.246857 83.456-48.091429 125.147428-72.045714-5.814857-27.867429-12.251429-54.637714-16.822857-81.737143-6.765714-40.155429 1.389714-78.262857 17.773714-115.236571 7.570286-17.188571 16.603429-28.086857 37.412572-24.173714 9.142857 1.718857 18.834286 0.292571 33.28 0.292571-35.437714 62.244571-55.369143 124.233143-23.186286 193.024l125.842286-71.68c0 19.126857 1.353143 34.486857-0.621715 49.444571-0.877714 6.217143-7.753143 13.421714-13.787428 17.005715-30.537143 18.395429-61.696 35.766857-93.330286 53.869714z" fill="#00ff00" p-id="93971"></path></svg>