<?xml version="1.0" standalone="no"?><!DOCTYPE svg PUBLIC "-//W3C//DTD SVG 1.1//EN" "http://www.w3.org/Graphics/SVG/1.1/DTD/svg11.dtd"><svg t="1703663303519" class="icon" viewBox="0 0 1024 1024" version="1.1" xmlns="http://www.w3.org/2000/svg" p-id="112586" width="16" height="16" xmlns:xlink="http://www.w3.org/1999/xlink"><path d="M518.724267 496.4352m-453.870934 0a453.870933 453.870933 0 1 0 907.741867 0 453.870933 453.870933 0 1 0-907.741867 0Z" fill="#74E002" p-id="112587"></path><path d="M620.202667 607.607467l61.917866 149.742933a22.766933 22.766933 0 0 1-21.060266 31.470933H360.516267a22.766933 22.766933 0 0 1-21.026134-31.573333l62.532267-149.640533h218.180267z m-55.7056 46.08h-107.178667l-24.029867 57.480533a22.766933 22.766933 0 0 0 21.026134 31.5392h112.981333a22.766933 22.766933 0 0 0 21.026133-31.470933l-23.825066-57.5488z" fill="#FFFFFF" p-id="112588"></path><path d="M510.737067 237.636267c127.488 0 230.877867 99.157333 230.877866 221.4912 0 122.299733-103.389867 221.457067-230.877866 221.457066-127.522133 0-230.877867-99.157333-230.877867-221.457066 0-122.333867 103.355733-221.4912 230.877867-221.4912z m0 105.984c-66.525867 0-120.4224 51.712-120.4224 115.5072s53.930667 115.5072 120.4224 115.5072 120.388267-51.712 120.388266-115.5072c0-63.829333-53.930667-115.5072-120.388266-115.5072z m0 40.106666c43.383467 0 78.574933 33.792 78.574933 75.400534 0 41.642667-35.157333 75.3664-78.574933 75.3664s-78.609067-33.723733-78.609067-75.3664c0-41.642667 35.191467-75.400533 78.609067-75.400534z" fill="#FFFFFF" p-id="112589"></path></svg>