<?xml version="1.0" standalone="no"?><!DOCTYPE svg PUBLIC "-//W3C//DTD SVG 1.1//EN" "http://www.w3.org/Graphics/SVG/1.1/DTD/svg11.dtd"><svg t="1706520984776" class="icon" viewBox="0 0 1024 1024" version="1.1" xmlns="http://www.w3.org/2000/svg" p-id="100359" xmlns:xlink="http://www.w3.org/1999/xlink" width="64" height="64"><path d="M774.729143 560.64v60.672c-37.997714 0-74.971429 0.109714-111.981714-0.036571a5950.902857 5950.902857 0 0 1-92.123429-0.731429c-77.604571-1.353143-140.434286-50.285714-160.804571-125.074286-1.901714-6.948571-3.584-14.006857-6.034286-23.552-35.620571 0.731429-70.875429 4.205714-103.277714 21.028572-22.016 11.410286-23.990857 25.709714-6.875429 43.483428 12.141714 12.653714 25.673143 23.917714 38.4 36.022857 33.024 31.451429 50.285714 68.864 36.754286 114.541715-13.092571 44.214857-48.274286 69.339429-90.331429 73.033143-62.171429 5.449143-125.074286 1.389714-188.964571 1.389714v-47.542857c10.971429 0 21.650286 0.219429 32.329143-0.036572 48.896-1.097143 97.901714-0.658286 146.651428-4.169143 22.930286-1.682286 43.666286-13.604571 51.273143-38.582857 7.716571-25.380571-5.814857-43.702857-22.308571-60.233143-14.482286-14.482286-30.537143-27.465143-44.178286-42.642285-36.754286-40.813714-28.818286-90.331429 18.761143-118.162286 35.657143-20.882286 75.593143-26.441143 115.821714-29.184 12.653714-0.877714 18.688-4.315429 22.674286-17.298286 23.442286-76.544 87.405714-123.428571 167.021714-123.684571 63.561143-0.182857 127.085714-0.036571 193.28-0.036572V344.502857h32.109714c36.571429 0 73.142857 0.109714 109.714286 0 18.139429-0.073143 30.354286 7.497143 30.171429 26.660572-0.219429 19.017143-12.946286 26.624-30.683429 26.660571-45.238857 0.146286-90.477714 0-137.508571 0v109.568h121.856c6.582857 0 13.165714-0.146286 19.748571 0.146286 16.457143 0.731429 26.404571 9.398857 26.624 25.856 0.219429 17.664-10.459429 26.88-27.721143 27.062857-38.034286 0.438857-76.032 0.182857-114.066286 0.182857h-26.331428" fill="#FF0000" p-id="100360"></path></svg>