<?xml version="1.0" standalone="no"?><!DOCTYPE svg PUBLIC "-//W3C//DTD SVG 1.1//EN" "http://www.w3.org/Graphics/SVG/1.1/DTD/svg11.dtd"><svg t="1712914099570" class="icon" viewBox="0 0 1024 1024" version="1.1" xmlns="http://www.w3.org/2000/svg" p-id="180057" xmlns:xlink="http://www.w3.org/1999/xlink" width="48" height="48"><path d="M531.675429 932.644571c-98.669714 0-197.339429-0.438857-296.009143 0.365715-18.139429 0.146286-24.978286-2.998857-24.868572-23.588572 1.060571-149.101714 0.877714-298.203429 0.182857-447.268571-0.073143-17.408 4.608-22.418286 21.942858-22.016 40.923429 0.950857 42.020571 0.036571 40.704-41.142857-2.706286-84.187429 21.686857-157.952 85.065142-214.784 80.237714-71.936 173.458286-89.819429 272.932572-48.603429 98.340571 40.740571 151.405714 118.016 159.561143 224.768 1.609143 21.101714 1.206857 42.422857 0.731428 63.561143-0.256 11.776 2.925714 16.530286 15.872 16.969143 43.849143 1.353143 43.849143 1.901714 43.849143 47.177143 0 141.056-0.365714 282.148571 0.365714 423.168 0.146286 17.664-5.302857 21.869714-22.089142 21.76-99.401143-0.731429-198.838857-0.365714-298.24-0.365715z m-95.561143-354.925714l6.692571 4.571429c5.632 25.124571 5.632 50.578286 2.998857 76.068571-5.302857 51.565714-10.898286 103.131429-16.420571 154.733714-3.181714 30.098286 8.850286 49.481143 32.694857 52.553143 24.246857 3.072 41.106286-11.995429 45.787429-41.837714 4.754286-30.281143 8.96-60.672 13.385142-91.026286 1.133714-7.899429 0.950857-17.408 11.702858-18.249143 12.178286-0.914286 13.238857 9.435429 15.067428 17.846858 6.802286 31.378286 13.019429 62.902857 19.968 94.281142 6.253714 28.050286 23.771429 42.130286 46.811429 38.546286 22.820571-3.547429 34.450286-22.674286 31.963428-51.273143-5.522286-62.537143-16.274286-124.598857-18.029714-187.538285-0.438857-15.542857 0.292571-31.049143 7.68-49.298286 18.358857 18.907429 34.194286 35.986286 50.980571 52.150857 16.091429 15.579429 34.742857 16.201143 48.64 2.816 14.006857-13.421714 14.299429-32.109714-0.841142-48.713143-24.612571-26.953143-48.64-54.747429-75.593143-79.213714-26.916571-24.429714-59.318857-36.425143-96.950857-26.477714a101.485714 101.485714 0 0 1-50.029715 0.073142c-39.387429-9.508571-72.265143 4.059429-100.059428 30.134858-24.502857 22.930286-46.665143 48.347429-69.339429 73.142857-17.334857 18.870857-17.92 38.034286-2.669714 52.004571 14.445714 13.275429 33.353143 11.885714 50.322286-5.376 15.725714-15.981714 30.208-33.243429 45.238857-49.92z m171.849143-124.379428c25.673143 5.046857 45.568 20.992 71.241142 18.358857 10.349714-1.097143 16.091429-2.377143 15.689143-14.628572-1.024-29.184 0.694857-58.587429-1.718857-87.625143-7.497143-88.795429-69.705143-152.576-151.515428-157.293714-81.664-4.754286-148.882286 50.797714-165.961143 138.093714-7.094857 36.096-3.328 72.886857-4.059429 109.348572-0.219429 10.313143 5.632 10.971429 13.860572 11.922286 27.648 3.181714 49.188571-12.653714 74.203428-20.187429-41.216-57.344-38.912-114.358857 4.681143-153.6a105.801143 105.801143 0 0 1 140.251429-0.292571c44.361143 39.570286 46.262857 96.256 3.291428 155.904zM536.429714 299.154286c-42.788571-0.475429-78.738286 35.035429-78.628571 77.641143a77.385143 77.385143 0 0 0 76.690286 77.019428 77.129143 77.129143 0 0 0 78.518857-77.275428 78.153143 78.153143 0 0 0-76.580572-77.385143z" fill="#000000" p-id="180058"></path></svg>